{"glyphs":{"0":{"ha":833,"x_min":72,"x_max":760,"o":"m 424 735 q 597 690 521 735 q 717 561 674 644 q 760 369 760 478 q 715 170 760 258 q 591 31 671 82 q 408 -19 511 -19 q 236 26 313 -19 q 116 154 160 71 q 72 347 72 238 q 116 545 72 457 q 240 684 160 633 q 424 735 319 735 m 411 710 q 305 667 351 710 q 233 544 258 625 q 207 351 207 463 q 267 90 207 175 q 421 6 326 6 q 527 49 481 6 q 599 173 574 92 q 625 365 625 254 q 565 625 625 540 q 411 710 506 710 z "},"1":{"ha":514,"x_min":65,"x_max":485,"o":"m 351 143 q 381 53 351 78 q 485 29 411 29 l 485 0 q 293 6 335 6 q 113 1 254 6 l 79 0 l 79 29 q 190 54 153 29 q 226 143 226 79 l 226 479 q 213 577 226 546 q 166 619 199 608 q 65 629 133 629 l 65 660 q 233 678 167 663 q 351 731 299 693 l 351 143 z "},"2":{"ha":665,"x_min":65,"x_max":603,"o":"m 339 735 q 492 689 436 735 q 547 560 547 643 q 517 449 547 503 q 445 351 488 396 q 333 244 403 307 q 249 165 276 192 q 199 107 221 138 l 481 107 q 537 113 518 107 q 563 134 556 119 q 574 178 569 149 l 597 178 q 603 -7 597 50 q 396 0 572 0 l 71 0 l 71 24 q 151 103 94 49 q 283 235 231 176 q 374 369 336 294 q 413 529 413 444 q 274 679 413 679 q 88 549 160 679 l 65 561 q 168 685 101 636 q 339 735 235 735 z "},"3":{"ha":626,"x_min":51,"x_max":565,"o":"m 315 735 q 459 692 403 735 q 515 576 515 649 q 455 439 515 500 q 308 347 394 378 q 490 290 415 344 q 565 136 565 236 q 488 -43 565 36 q 292 -166 411 -122 q 51 -210 174 -210 l 51 -185 q 238 -144 150 -182 q 379 -34 325 -106 q 433 136 433 38 q 393 272 433 218 q 286 331 353 325 q 258 319 281 328 q 221 310 235 310 q 199 328 199 310 q 209 347 199 340 q 235 354 219 354 q 258 352 243 354 q 283 349 272 350 q 364 442 338 390 q 390 549 390 493 q 358 643 390 613 q 269 674 326 674 q 164 642 211 674 q 85 550 117 611 l 61 561 q 315 735 142 735 z "},"4":{"ha":686,"x_min":24,"x_max":636,"o":"m 636 68 q 497 75 618 72 l 497 -196 l 386 -196 l 386 75 l 24 75 l 24 104 l 475 735 l 497 735 l 497 168 l 514 168 q 570 174 551 168 q 596 195 589 181 q 607 239 603 210 l 631 239 q 636 68 631 122 m 386 168 l 386 565 l 106 168 l 386 168 z "},"5":{"ha":576,"x_min":63,"x_max":521,"o":"m 464 785 q 469 582 464 643 q 276 589 440 589 l 129 589 l 113 321 q 188 351 151 340 q 275 363 224 363 q 458 303 396 363 q 521 149 521 244 q 453 -35 521 46 q 280 -161 386 -117 q 63 -206 174 -206 l 63 -181 q 222 -143 147 -179 q 342 -36 296 -107 q 389 135 389 35 q 343 272 389 222 q 214 321 297 321 q 157 315 181 321 q 100 297 133 310 l 86 306 l 113 719 q 188 714 140 714 l 344 714 q 401 720 382 714 q 426 741 419 726 q 438 785 433 756 l 464 785 z "},"6":{"ha":718,"x_min":76,"x_max":665,"o":"m 415 608 q 539 572 482 608 q 631 467 596 536 q 665 306 665 399 q 624 131 665 204 q 514 19 583 57 q 360 -19 444 -19 q 151 85 226 -19 q 76 375 76 189 q 151 705 76 569 q 332 912 225 840 q 547 1004 439 983 l 553 976 q 401 901 468 949 q 282 756 333 854 q 217 496 231 657 q 304 581 249 554 q 415 608 360 608 m 374 8 q 486 79 442 8 q 531 296 531 150 q 489 503 531 438 q 381 568 447 568 q 284 540 332 568 q 213 449 236 511 q 211 378 211 426 q 258 93 211 178 q 374 8 306 8 z "},"7":{"ha":564,"x_min":38,"x_max":553,"o":"m 553 685 q 481 536 532 636 q 393 356 426 432 q 336 183 360 281 q 313 -25 313 85 q 315 -92 313 -53 q 318 -135 318 -122 q 300 -186 318 -167 q 253 -206 282 -206 q 206 -183 222 -206 q 190 -128 190 -161 q 223 83 190 -21 q 302 276 256 188 q 424 488 349 364 l 489 597 l 160 597 q 103 591 122 597 q 78 570 85 585 q 67 526 71 556 l 43 526 q 38 721 43 664 q 244 714 69 714 l 553 714 l 553 685 z "},"8":{"ha":722,"x_min":72,"x_max":651,"o":"m 425 557 q 546 462 503 500 q 620 369 589 424 q 651 246 651 315 q 613 108 651 168 q 506 14 574 47 q 351 -19 438 -19 q 153 41 233 -19 q 72 214 72 101 q 133 385 72 310 q 294 510 194 460 q 164 642 210 579 q 118 786 118 704 q 151 899 118 850 q 243 976 185 949 q 372 1003 301 1003 q 536 953 471 1003 q 601 813 601 903 q 556 675 601 738 q 425 557 510 613 m 357 978 q 263 938 300 978 q 226 829 226 897 q 272 694 226 750 q 404 572 317 638 q 490 794 490 654 q 456 928 490 878 q 357 978 421 978 m 360 6 q 483 54 433 6 q 533 188 533 103 q 503 305 533 253 q 433 394 474 357 q 315 493 392 432 q 194 235 194 406 q 235 71 194 136 q 360 6 275 6 z "},"9":{"ha":707,"x_min":51,"x_max":640,"o":"m 357 735 q 565 638 490 735 q 640 368 640 542 q 566 68 640 192 q 384 -122 492 -56 q 169 -206 276 -187 l 164 -178 q 378 -58 290 -142 q 494 210 465 25 q 408 131 463 156 q 301 107 354 107 q 178 143 235 107 q 86 248 121 179 q 51 410 51 317 q 92 585 51 511 q 203 697 133 658 q 357 735 272 735 m 336 147 q 430 174 383 147 q 500 258 476 200 q 506 365 506 303 q 458 628 506 550 q 343 707 411 707 q 231 636 275 707 q 186 419 186 565 q 228 213 186 278 q 336 147 269 147 z "},"\u0000":{"ha":0,"x_min":0,"x_max":0,"o":""},"\r":{"ha":346,"x_min":0,"x_max":0,"o":""}," ":{"ha":346,"x_min":0,"x_max":0,"o":""},"A":{"ha":875,"x_min":-10,"x_max":883,"o":"m 788 117 q 883 28 821 31 l 883 0 q 735 4 828 4 q 557 0 615 4 l 557 28 q 633 41 610 31 q 656 79 656 51 q 639 144 656 103 l 554 372 l 218 372 l 161 225 q 133 111 133 150 q 163 49 133 68 q 254 28 193 29 l 254 0 q 94 4 175 4 q -10 0 32 4 l -10 28 q 100 149 60 44 l 426 990 l 449 990 l 788 117 m 543 400 l 388 815 l 229 400 l 543 400 z "},"Á":{"ha":875,"x_min":-10,"x_max":883,"o":"m 788 117 q 883 28 821 31 l 883 0 q 735 4 828 4 q 557 0 615 4 l 557 28 q 633 41 610 31 q 656 79 656 51 q 639 144 656 103 l 554 372 l 218 372 l 161 225 q 133 111 133 150 q 163 49 133 68 q 254 28 193 29 l 254 0 q 94 4 175 4 q -10 0 32 4 l -10 28 q 100 149 60 44 l 426 990 l 449 990 l 788 117 m 543 400 l 388 815 l 229 400 l 543 400 m 585 1286 q 626 1300 607 1300 q 669 1276 653 1300 q 678 1250 678 1264 q 640 1196 678 1219 q 540 1151 611 1178 q 361 1072 436 1110 l 351 1090 q 449 1170 408 1133 q 500 1215 490 1207 q 585 1286 551 1264 z "},"Ă":{"ha":875,"x_min":-10,"x_max":883,"o":"m 788 117 q 883 28 821 31 l 883 0 q 735 4 828 4 q 557 0 615 4 l 557 28 q 633 41 610 31 q 656 79 656 51 q 639 144 656 103 l 554 372 l 218 372 l 161 225 q 133 111 133 150 q 163 49 133 68 q 254 28 193 29 l 254 0 q 94 4 175 4 q -10 0 32 4 l -10 28 q 100 149 60 44 l 426 990 l 449 990 l 788 117 m 543 400 l 388 815 l 229 400 l 543 400 m 713 1247 q 602 1134 672 1182 q 436 1086 532 1086 q 270 1134 340 1086 q 160 1247 200 1182 l 178 1261 q 281 1198 217 1224 q 436 1172 346 1172 q 592 1199 526 1172 q 696 1263 657 1225 l 713 1247 z "},"Ắ":{"ha":875,"x_min":-10,"x_max":883,"o":"m 788 117 q 883 28 821 31 l 883 0 q 735 4 828 4 q 557 0 615 4 l 557 28 q 633 41 610 31 q 656 79 656 51 q 639 144 656 103 l 554 372 l 218 372 l 161 225 q 133 111 133 150 q 163 49 133 68 q 254 28 193 29 l 254 0 q 94 4 175 4 q -10 0 32 4 l -10 28 q 100 149 60 44 l 426 990 l 449 990 l 788 117 m 543 400 l 388 815 l 229 400 l 543 400 m 713 1247 q 602 1134 672 1182 q 436 1086 532 1086 q 270 1134 340 1086 q 160 1247 200 1182 l 178 1261 q 281 1198 217 1224 q 436 1172 346 1172 q 592 1199 526 1172 q 696 1263 657 1225 l 713 1247 m 585 1494 q 626 1508 607 1508 q 669 1485 653 1508 q 678 1458 678 1472 q 640 1404 678 1428 q 540 1360 611 1386 q 361 1281 436 1318 l 351 1299 q 449 1378 408 1342 q 500 1424 490 1415 q 585 1494 551 1472 z "},"Ặ":{"ha":875,"x_min":-10,"x_max":883,"o":"m 788 117 q 883 28 821 31 l 883 0 q 735 4 828 4 q 557 0 615 4 l 557 28 q 633 41 610 31 q 656 79 656 51 q 639 144 656 103 l 554 372 l 218 372 l 161 225 q 133 111 133 150 q 163 49 133 68 q 254 28 193 29 l 254 0 q 94 4 175 4 q -10 0 32 4 l -10 28 q 100 149 60 44 l 426 990 l 449 990 l 788 117 m 543 400 l 388 815 l 229 400 l 543 400 m 713 1247 q 602 1134 672 1182 q 436 1086 532 1086 q 270 1134 340 1086 q 160 1247 200 1182 l 178 1261 q 281 1198 217 1224 q 436 1172 346 1172 q 592 1199 526 1172 q 696 1263 657 1225 l 713 1247 m 438 -251 q 381 -229 404 -251 q 357 -174 357 -207 q 379 -118 357 -140 q 438 -96 401 -96 q 496 -119 474 -96 q 518 -175 518 -142 q 494 -231 518 -210 q 438 -251 471 -251 z "},"Ằ":{"ha":875,"x_min":-10,"x_max":883,"o":"m 788 117 q 883 28 821 31 l 883 0 q 735 4 828 4 q 557 0 615 4 l 557 28 q 633 41 610 31 q 656 79 656 51 q 639 144 656 103 l 554 372 l 218 372 l 161 225 q 133 111 133 150 q 163 49 133 68 q 254 28 193 29 l 254 0 q 94 4 175 4 q -10 0 32 4 l -10 28 q 100 149 60 44 l 426 990 l 449 990 l 788 117 m 543 400 l 388 815 l 229 400 l 543 400 m 713 1247 q 602 1134 672 1182 q 436 1086 532 1086 q 270 1134 340 1086 q 160 1247 200 1182 l 178 1261 q 281 1198 217 1224 q 436 1172 346 1172 q 592 1199 526 1172 q 696 1263 657 1225 l 713 1247 m 296 1494 q 381 1424 329 1472 q 431 1378 390 1415 q 529 1299 472 1342 l 519 1281 q 340 1360 444 1318 q 240 1404 269 1386 q 203 1458 203 1428 q 211 1485 203 1472 q 254 1508 228 1508 q 296 1494 274 1508 z "},"Ẳ":{"ha":875,"x_min":-10,"x_max":883,"o":"m 788 117 q 883 28 821 31 l 883 0 q 735 4 828 4 q 557 0 615 4 l 557 28 q 633 41 610 31 q 656 79 656 51 q 639 144 656 103 l 554 372 l 218 372 l 161 225 q 133 111 133 150 q 163 49 133 68 q 254 28 193 29 l 254 0 q 94 4 175 4 q -10 0 32 4 l -10 28 q 100 149 60 44 l 426 990 l 449 990 l 788 117 m 543 400 l 388 815 l 229 400 l 543 400 m 713 1247 q 602 1134 672 1182 q 436 1086 532 1086 q 270 1134 340 1086 q 160 1247 200 1182 l 178 1261 q 281 1198 217 1224 q 436 1172 346 1172 q 592 1199 526 1172 q 696 1263 657 1225 l 713 1247 m 422 1349 q 514 1453 514 1385 q 487 1513 514 1492 q 417 1533 460 1533 q 350 1511 369 1533 q 383 1492 371 1507 q 394 1454 394 1478 q 376 1410 394 1426 q 332 1393 358 1393 q 289 1409 306 1393 q 272 1451 272 1425 q 288 1498 272 1476 q 326 1533 303 1519 q 443 1561 375 1561 q 559 1536 508 1561 q 610 1461 610 1511 q 567 1384 610 1417 q 450 1336 525 1351 l 450 1272 l 422 1272 l 422 1349 z "},"Ẵ":{"ha":875,"x_min":-10,"x_max":883,"o":"m 788 117 q 883 28 821 31 l 883 0 q 735 4 828 4 q 557 0 615 4 l 557 28 q 633 41 610 31 q 656 79 656 51 q 639 144 656 103 l 554 372 l 218 372 l 161 225 q 133 111 133 150 q 163 49 133 68 q 254 28 193 29 l 254 0 q 94 4 175 4 q -10 0 32 4 l -10 28 q 100 149 60 44 l 426 990 l 449 990 l 788 117 m 543 400 l 388 815 l 229 400 l 543 400 m 713 1247 q 602 1134 672 1182 q 436 1086 532 1086 q 270 1134 340 1086 q 160 1247 200 1182 l 178 1261 q 281 1198 217 1224 q 436 1172 346 1172 q 592 1199 526 1172 q 696 1263 657 1225 l 713 1247 m 324 1461 q 389 1447 358 1461 q 463 1406 419 1433 q 537 1366 511 1378 q 593 1354 563 1354 q 679 1432 657 1354 l 700 1428 q 650 1321 694 1361 q 546 1281 606 1281 q 481 1294 511 1281 q 407 1336 450 1308 q 333 1376 358 1364 q 276 1388 307 1388 q 224 1370 244 1388 q 190 1310 203 1353 l 169 1314 q 219 1421 175 1381 q 324 1461 264 1461 z "},"Ǎ":{"ha":875,"x_min":-10,"x_max":883,"o":"m 788 117 q 883 28 821 31 l 883 0 q 735 4 828 4 q 557 0 615 4 l 557 28 q 633 41 610 31 q 656 79 656 51 q 639 144 656 103 l 554 372 l 218 372 l 161 225 q 133 111 133 150 q 163 49 133 68 q 254 28 193 29 l 254 0 q 94 4 175 4 q -10 0 32 4 l -10 28 q 100 149 60 44 l 426 990 l 449 990 l 788 117 m 543 400 l 388 815 l 229 400 l 543 400 m 704 1267 q 547 1187 615 1236 q 444 1083 478 1138 l 419 1083 q 317 1187 386 1138 q 160 1267 249 1236 l 167 1286 q 331 1242 250 1268 q 460 1189 413 1215 q 565 1242 499 1215 q 697 1286 631 1268 l 704 1267 z "},"Â":{"ha":875,"x_min":-10,"x_max":883,"o":"m 788 117 q 883 28 821 31 l 883 0 q 735 4 828 4 q 557 0 615 4 l 557 28 q 633 41 610 31 q 656 79 656 51 q 639 144 656 103 l 554 372 l 218 372 l 161 225 q 133 111 133 150 q 163 49 133 68 q 254 28 193 29 l 254 0 q 94 4 175 4 q -10 0 32 4 l -10 28 q 100 149 60 44 l 426 990 l 449 990 l 788 117 m 543 400 l 388 815 l 229 400 l 543 400 m 449 1272 q 551 1169 482 1218 q 708 1089 619 1119 l 701 1069 q 537 1114 618 1088 q 408 1167 456 1140 q 303 1114 369 1140 q 171 1069 238 1088 l 164 1089 q 322 1169 253 1119 q 424 1272 390 1218 l 449 1272 z "},"Ấ":{"ha":875,"x_min":-10,"x_max":883,"o":"m 788 117 q 883 28 821 31 l 883 0 q 735 4 828 4 q 557 0 615 4 l 557 28 q 633 41 610 31 q 656 79 656 51 q 639 144 656 103 l 554 372 l 218 372 l 161 225 q 133 111 133 150 q 163 49 133 68 q 254 28 193 29 l 254 0 q 94 4 175 4 q -10 0 32 4 l -10 28 q 100 149 60 44 l 426 990 l 449 990 l 788 117 m 543 400 l 388 815 l 229 400 l 543 400 m 449 1272 q 551 1169 482 1218 q 708 1089 619 1119 l 701 1069 q 537 1114 618 1088 q 408 1167 456 1140 q 303 1114 369 1140 q 171 1069 238 1088 l 164 1089 q 322 1169 253 1119 q 424 1272 390 1218 l 449 1272 m 585 1592 q 626 1606 607 1606 q 669 1582 653 1606 q 678 1556 678 1569 q 640 1501 678 1525 q 540 1457 611 1483 q 361 1378 436 1415 l 351 1396 q 449 1476 408 1439 q 500 1521 490 1513 q 585 1592 551 1569 z "},"Ậ":{"ha":875,"x_min":-10,"x_max":883,"o":"m 788 117 q 883 28 821 31 l 883 0 q 735 4 828 4 q 557 0 615 4 l 557 28 q 633 41 610 31 q 656 79 656 51 q 639 144 656 103 l 554 372 l 218 372 l 161 225 q 133 111 133 150 q 163 49 133 68 q 254 28 193 29 l 254 0 q 94 4 175 4 q -10 0 32 4 l -10 28 q 100 149 60 44 l 426 990 l 449 990 l 788 117 m 543 400 l 388 815 l 229 400 l 543 400 m 449 1272 q 551 1169 482 1218 q 708 1089 619 1119 l 701 1069 q 537 1114 618 1088 q 408 1167 456 1140 q 303 1114 369 1140 q 171 1069 238 1088 l 164 1089 q 322 1169 253 1119 q 424 1272 390 1218 l 449 1272 m 438 -251 q 381 -229 404 -251 q 357 -174 357 -207 q 379 -118 357 -140 q 438 -96 401 -96 q 496 -119 474 -96 q 518 -175 518 -142 q 494 -231 518 -210 q 438 -251 471 -251 z "},"Ầ":{"ha":875,"x_min":-10,"x_max":883,"o":"m 788 117 q 883 28 821 31 l 883 0 q 735 4 828 4 q 557 0 615 4 l 557 28 q 633 41 610 31 q 656 79 656 51 q 639 144 656 103 l 554 372 l 218 372 l 161 225 q 133 111 133 150 q 163 49 133 68 q 254 28 193 29 l 254 0 q 94 4 175 4 q -10 0 32 4 l -10 28 q 100 149 60 44 l 426 990 l 449 990 l 788 117 m 543 400 l 388 815 l 229 400 l 543 400 m 449 1272 q 551 1169 482 1218 q 708 1089 619 1119 l 701 1069 q 537 1114 618 1088 q 408 1167 456 1140 q 303 1114 369 1140 q 171 1069 238 1088 l 164 1089 q 322 1169 253 1119 q 424 1272 390 1218 l 449 1272 m 296 1592 q 381 1521 329 1569 q 431 1476 390 1513 q 529 1396 472 1439 l 519 1378 q 340 1457 444 1415 q 240 1501 269 1483 q 203 1556 203 1525 q 211 1582 203 1569 q 254 1606 228 1606 q 296 1592 274 1606 z "},"Ẩ":{"ha":875,"x_min":-10,"x_max":883,"o":"m 788 117 q 883 28 821 31 l 883 0 q 735 4 828 4 q 557 0 615 4 l 557 28 q 633 41 610 31 q 656 79 656 51 q 639 144 656 103 l 554 372 l 218 372 l 161 225 q 133 111 133 150 q 163 49 133 68 q 254 28 193 29 l 254 0 q 94 4 175 4 q -10 0 32 4 l -10 28 q 100 149 60 44 l 426 990 l 449 990 l 788 117 m 543 400 l 388 815 l 229 400 l 543 400 m 449 1272 q 551 1169 482 1218 q 708 1089 619 1119 l 701 1069 q 537 1114 618 1088 q 408 1167 456 1140 q 303 1114 369 1140 q 171 1069 238 1088 l 164 1089 q 322 1169 253 1119 q 424 1272 390 1218 l 449 1272 m 642 1346 q 733 1450 733 1382 q 706 1510 733 1489 q 636 1531 679 1531 q 569 1508 589 1531 q 602 1490 590 1504 q 614 1451 614 1475 q 596 1407 614 1424 q 551 1390 578 1390 q 508 1406 525 1390 q 492 1449 492 1422 q 507 1495 492 1474 q 546 1531 522 1517 q 663 1558 594 1558 q 778 1533 728 1558 q 829 1458 829 1508 q 787 1381 829 1414 q 669 1333 744 1349 l 669 1269 l 642 1269 l 642 1346 z "},"Ẫ":{"ha":875,"x_min":-10,"x_max":883,"o":"m 788 117 q 883 28 821 31 l 883 0 q 735 4 828 4 q 557 0 615 4 l 557 28 q 633 41 610 31 q 656 79 656 51 q 639 144 656 103 l 554 372 l 218 372 l 161 225 q 133 111 133 150 q 163 49 133 68 q 254 28 193 29 l 254 0 q 94 4 175 4 q -10 0 32 4 l -10 28 q 100 149 60 44 l 426 990 l 449 990 l 788 117 m 543 400 l 388 815 l 229 400 l 543 400 m 449 1272 q 551 1169 482 1218 q 708 1089 619 1119 l 701 1069 q 537 1114 618 1088 q 408 1167 456 1140 q 303 1114 369 1140 q 171 1069 238 1088 l 164 1089 q 322 1169 253 1119 q 424 1272 390 1218 l 449 1272 m 324 1558 q 389 1544 358 1558 q 463 1503 419 1531 q 537 1463 511 1475 q 593 1451 563 1451 q 679 1529 657 1451 l 700 1525 q 650 1418 694 1458 q 546 1378 606 1378 q 481 1392 511 1378 q 407 1433 450 1406 q 333 1473 358 1461 q 276 1485 307 1485 q 224 1467 244 1485 q 190 1407 203 1450 l 169 1411 q 219 1518 175 1478 q 324 1558 264 1558 z "},"Ä":{"ha":875,"x_min":-10,"x_max":883,"o":"m 788 117 q 883 28 821 31 l 883 0 q 735 4 828 4 q 557 0 615 4 l 557 28 q 633 41 610 31 q 656 79 656 51 q 639 144 656 103 l 554 372 l 218 372 l 161 225 q 133 111 133 150 q 163 49 133 68 q 254 28 193 29 l 254 0 q 94 4 175 4 q -10 0 32 4 l -10 28 q 100 149 60 44 l 426 990 l 449 990 l 788 117 m 543 400 l 388 815 l 229 400 l 543 400 m 289 1233 q 345 1209 321 1233 q 369 1153 369 1185 q 345 1096 369 1119 q 289 1072 321 1072 q 232 1096 256 1072 q 208 1153 208 1119 q 232 1209 208 1185 q 289 1233 256 1233 m 583 1233 q 640 1209 615 1233 q 664 1153 664 1185 q 640 1096 664 1119 q 583 1072 615 1072 q 526 1096 550 1072 q 503 1153 503 1119 q 526 1209 503 1185 q 583 1233 550 1233 z "},"Ạ":{"ha":875,"x_min":-10,"x_max":883,"o":"m 788 117 q 883 28 821 31 l 883 0 q 735 4 828 4 q 557 0 615 4 l 557 28 q 633 41 610 31 q 656 79 656 51 q 639 144 656 103 l 554 372 l 218 372 l 161 225 q 133 111 133 150 q 163 49 133 68 q 254 28 193 29 l 254 0 q 94 4 175 4 q -10 0 32 4 l -10 28 q 100 149 60 44 l 426 990 l 449 990 l 788 117 m 543 400 l 388 815 l 229 400 l 543 400 m 438 -251 q 381 -229 404 -251 q 357 -174 357 -207 q 379 -118 357 -140 q 438 -96 401 -96 q 496 -119 474 -96 q 518 -175 518 -142 q 494 -231 518 -210 q 438 -251 471 -251 z "},"À":{"ha":875,"x_min":-10,"x_max":883,"o":"m 788 117 q 883 28 821 31 l 883 0 q 735 4 828 4 q 557 0 615 4 l 557 28 q 633 41 610 31 q 656 79 656 51 q 639 144 656 103 l 554 372 l 218 372 l 161 225 q 133 111 133 150 q 163 49 133 68 q 254 28 193 29 l 254 0 q 94 4 175 4 q -10 0 32 4 l -10 28 q 100 149 60 44 l 426 990 l 449 990 l 788 117 m 543 400 l 388 815 l 229 400 l 543 400 m 296 1286 q 381 1215 329 1264 q 431 1170 390 1207 q 529 1090 472 1133 l 519 1072 q 340 1151 444 1110 q 240 1196 269 1178 q 203 1250 203 1219 q 211 1276 203 1264 q 254 1300 228 1300 q 296 1286 274 1300 z "},"Ả":{"ha":875,"x_min":-10,"x_max":883,"o":"m 788 117 q 883 28 821 31 l 883 0 q 735 4 828 4 q 557 0 615 4 l 557 28 q 633 41 610 31 q 656 79 656 51 q 639 144 656 103 l 554 372 l 218 372 l 161 225 q 133 111 133 150 q 163 49 133 68 q 254 28 193 29 l 254 0 q 94 4 175 4 q -10 0 32 4 l -10 28 q 100 149 60 44 l 426 990 l 449 990 l 788 117 m 543 400 l 388 815 l 229 400 l 543 400 m 422 1140 q 514 1244 514 1176 q 487 1304 514 1283 q 417 1325 460 1325 q 350 1303 369 1325 q 383 1284 371 1299 q 394 1246 394 1269 q 376 1201 394 1218 q 332 1185 358 1185 q 289 1201 306 1185 q 272 1243 272 1217 q 288 1290 272 1268 q 326 1325 303 1311 q 443 1353 375 1353 q 559 1328 508 1353 q 610 1253 610 1303 q 567 1176 610 1208 q 450 1128 525 1143 l 450 1064 l 422 1064 l 422 1140 z "},"Ā":{"ha":875,"x_min":-10,"x_max":883,"o":"m 788 117 q 883 28 821 31 l 883 0 q 735 4 828 4 q 557 0 615 4 l 557 28 q 633 41 610 31 q 656 79 656 51 q 639 144 656 103 l 554 372 l 218 372 l 161 225 q 133 111 133 150 q 163 49 133 68 q 254 28 193 29 l 254 0 q 94 4 175 4 q -10 0 32 4 l -10 28 q 100 149 60 44 l 426 990 l 449 990 l 788 117 m 543 400 l 388 815 l 229 400 l 543 400 m 681 1138 l 192 1138 l 192 1172 l 681 1172 l 681 1138 z "},"Ą":{"ha":875,"x_min":-10,"x_max":889,"o":"m 788 117 q 883 28 821 31 l 883 0 q 735 4 828 4 q 557 0 615 4 l 557 28 q 633 41 610 31 q 656 79 656 51 q 639 144 656 103 l 554 372 l 218 372 l 161 225 q 133 111 133 150 q 163 49 133 68 q 254 28 193 29 l 254 0 q 94 4 175 4 q -10 0 32 4 l -10 28 q 100 149 60 44 l 426 990 l 449 990 l 788 117 m 543 400 l 388 815 l 229 400 l 543 400 m 867 4 q 758 -53 792 -15 q 724 -133 724 -92 q 740 -178 724 -161 q 783 -194 756 -194 q 831 -181 808 -194 q 868 -149 854 -168 l 889 -167 q 732 -261 826 -261 q 652 -236 682 -261 q 622 -171 622 -211 q 672 -72 622 -117 q 814 4 722 -26 l 867 4 z "},"Å":{"ha":875,"x_min":-10,"x_max":883,"o":"m 788 117 q 883 28 821 31 l 883 0 q 735 4 828 4 q 557 0 615 4 l 557 28 q 633 41 610 31 q 656 79 656 51 q 639 144 656 103 l 554 372 l 218 372 l 161 225 q 133 111 133 150 q 163 49 133 68 q 254 28 193 29 l 254 0 q 94 4 175 4 q -10 0 32 4 l -10 28 q 100 149 60 44 l 426 990 l 449 990 l 788 117 m 543 400 l 388 815 l 229 400 l 543 400 m 436 1285 q 531 1250 492 1285 q 571 1158 571 1215 q 531 1066 571 1101 q 436 1031 492 1031 q 342 1066 381 1031 q 303 1158 303 1101 q 342 1250 303 1215 q 436 1285 381 1285 m 436 1256 q 371 1228 400 1256 q 342 1157 342 1201 q 370 1085 342 1111 q 436 1060 399 1060 q 503 1085 474 1060 q 532 1157 532 1111 q 503 1229 532 1203 q 436 1256 474 1256 z "},"Ã":{"ha":875,"x_min":-10,"x_max":883,"o":"m 788 117 q 883 28 821 31 l 883 0 q 735 4 828 4 q 557 0 615 4 l 557 28 q 633 41 610 31 q 656 79 656 51 q 639 144 656 103 l 554 372 l 218 372 l 161 225 q 133 111 133 150 q 163 49 133 68 q 254 28 193 29 l 254 0 q 94 4 175 4 q -10 0 32 4 l -10 28 q 100 149 60 44 l 426 990 l 449 990 l 788 117 m 543 400 l 388 815 l 229 400 l 543 400 m 324 1253 q 389 1239 358 1253 q 463 1197 419 1225 q 537 1158 511 1169 q 593 1146 563 1146 q 679 1224 657 1146 l 700 1219 q 650 1113 694 1153 q 546 1072 606 1072 q 481 1086 511 1072 q 407 1128 450 1100 q 333 1167 358 1156 q 276 1179 307 1179 q 224 1162 244 1179 q 190 1101 203 1144 l 169 1106 q 219 1213 175 1172 q 324 1253 264 1253 z "},"Æ":{"ha":1186,"x_min":-14,"x_max":1119,"o":"m 1110 178 q 1119 0 1110 99 q 829 4 1033 4 q 496 0 611 4 l 496 28 q 551 39 535 31 q 574 71 568 47 q 581 147 581 94 l 581 481 l 338 481 l 135 144 q 110 76 110 101 q 133 42 110 53 q 206 28 157 31 l 206 0 q 79 4 164 4 q -14 0 22 4 l -14 28 q 31 49 8 29 q 82 117 54 69 l 568 919 q 536 946 558 939 q 468 956 514 953 l 468 983 q 606 981 554 981 l 661 1072 l 694 1072 l 639 981 q 829 979 715 979 q 1092 983 1014 979 q 1082 819 1082 892 q 1086 733 1082 765 l 1054 733 q 1035 867 1047 824 q 994 931 1022 911 q 910 951 967 951 l 822 951 q 749 944 772 951 q 718 913 726 936 q 710 836 710 889 l 710 508 l 811 508 q 885 544 867 508 q 907 616 903 579 q 913 664 911 653 l 944 664 q 940 551 940 613 l 940 494 q 949 325 940 435 l 917 325 q 910 382 915 333 q 881 456 906 431 q 811 481 856 481 l 710 481 l 710 147 q 718 71 710 94 q 749 40 726 47 q 822 32 772 32 l 924 32 q 1021 54 990 32 q 1063 124 1051 76 q 1082 278 1074 171 l 1114 278 q 1110 178 1110 240 m 581 508 l 581 836 q 579 881 581 868 l 354 508 l 581 508 z "},"B":{"ha":865,"x_min":58,"x_max":803,"o":"m 519 519 q 738 431 672 499 q 803 269 803 364 q 763 129 803 190 q 647 34 722 68 q 469 0 572 0 q 406 1 432 0 q 231 4 317 4 q 58 0 117 4 l 58 28 q 131 39 108 31 q 163 71 154 47 q 171 147 171 94 l 171 836 q 163 913 171 889 q 131 944 154 936 q 58 956 108 953 l 58 983 q 228 979 117 979 l 378 981 q 438 982 404 982 q 655 922 579 982 q 731 764 731 863 q 680 619 731 683 q 519 522 629 556 l 519 519 m 403 956 q 338 946 360 956 q 308 911 317 936 q 300 836 300 886 l 300 522 l 393 522 q 552 584 507 522 q 597 749 597 646 q 551 904 597 853 q 403 956 506 956 m 404 32 q 664 275 664 32 q 605 442 664 385 q 417 499 546 499 l 300 499 l 300 147 q 308 74 300 97 q 338 41 317 50 q 404 32 360 32 z "},"C":{"ha":956,"x_min":74,"x_max":865,"o":"m 515 1003 q 657 979 599 1003 q 771 913 715 956 q 797 900 786 900 q 833 983 825 900 l 865 983 q 860 664 860 893 l 828 664 q 800 794 813 754 q 758 869 788 833 q 652 951 717 924 q 513 978 588 978 q 355 918 422 978 q 250 748 288 858 q 213 489 213 638 q 253 229 213 338 q 365 65 293 121 q 526 8 436 8 q 661 35 596 8 q 764 114 726 61 q 804 197 792 153 q 828 333 817 242 l 860 333 q 865 0 860 94 l 833 0 q 822 63 829 44 q 800 82 814 82 q 771 71 789 82 q 651 3 708 26 q 514 -19 594 -19 q 283 40 382 -19 q 128 213 183 100 q 74 483 74 326 q 130 754 74 636 q 287 938 186 872 q 515 1003 388 1003 z "},"Ć":{"ha":956,"x_min":74,"x_max":865,"o":"m 515 1003 q 657 979 599 1003 q 771 913 715 956 q 797 900 786 900 q 833 983 825 900 l 865 983 q 860 664 860 893 l 828 664 q 800 794 813 754 q 758 869 788 833 q 652 951 717 924 q 513 978 588 978 q 355 918 422 978 q 250 748 288 858 q 213 489 213 638 q 253 229 213 338 q 365 65 293 121 q 526 8 436 8 q 661 35 596 8 q 764 114 726 61 q 804 197 792 153 q 828 333 817 242 l 860 333 q 865 0 860 94 l 833 0 q 822 63 829 44 q 800 82 814 82 q 771 71 789 82 q 651 3 708 26 q 514 -19 594 -19 q 283 40 382 -19 q 128 213 183 100 q 74 483 74 326 q 130 754 74 636 q 287 938 186 872 q 515 1003 388 1003 m 654 1286 q 696 1300 676 1300 q 739 1276 722 1300 q 747 1250 747 1264 q 710 1196 747 1219 q 610 1151 681 1178 q 431 1072 506 1110 l 421 1090 q 519 1170 478 1133 q 569 1215 560 1207 q 654 1286 621 1264 z "},"Č":{"ha":956,"x_min":74,"x_max":865,"o":"m 515 1003 q 657 979 599 1003 q 771 913 715 956 q 797 900 786 900 q 833 983 825 900 l 865 983 q 860 664 860 893 l 828 664 q 800 794 813 754 q 758 869 788 833 q 652 951 717 924 q 513 978 588 978 q 355 918 422 978 q 250 748 288 858 q 213 489 213 638 q 253 229 213 338 q 365 65 293 121 q 526 8 436 8 q 661 35 596 8 q 764 114 726 61 q 804 197 792 153 q 828 333 817 242 l 860 333 q 865 0 860 94 l 833 0 q 822 63 829 44 q 800 82 814 82 q 771 71 789 82 q 651 3 708 26 q 514 -19 594 -19 q 283 40 382 -19 q 128 213 183 100 q 74 483 74 326 q 130 754 74 636 q 287 938 186 872 q 515 1003 388 1003 m 774 1267 q 616 1187 685 1236 q 514 1083 547 1138 l 489 1083 q 387 1187 456 1138 q 229 1267 318 1236 l 236 1286 q 401 1242 319 1268 q 529 1189 482 1215 q 634 1242 568 1215 q 767 1286 700 1268 l 774 1267 z "},"Ç":{"ha":956,"x_min":74,"x_max":865,"o":"m 515 1003 q 657 979 599 1003 q 771 913 715 956 q 797 900 786 900 q 833 983 825 900 l 865 983 q 860 664 860 893 l 828 664 q 800 794 813 754 q 758 869 788 833 q 652 951 717 924 q 513 978 588 978 q 355 918 422 978 q 250 748 288 858 q 213 489 213 638 q 253 229 213 338 q 365 65 293 121 q 526 8 436 8 q 661 35 596 8 q 764 114 726 61 q 804 197 792 153 q 828 333 817 242 l 860 333 q 865 0 860 94 l 833 0 q 822 63 829 44 q 800 82 814 82 q 771 71 789 82 q 651 3 708 26 q 514 -19 594 -19 q 283 40 382 -19 q 128 213 183 100 q 74 483 74 326 q 130 754 74 636 q 287 938 186 872 q 515 1003 388 1003 m 499 -100 q 581 -90 540 -90 q 642 -108 619 -90 q 665 -156 665 -125 q 617 -235 665 -208 q 508 -261 568 -261 q 393 -246 439 -261 l 399 -221 q 451 -225 428 -225 q 539 -210 501 -225 q 576 -162 576 -196 q 518 -124 576 -124 q 450 -133 479 -124 l 497 7 l 535 7 l 499 -100 z "},"Ĉ":{"ha":956,"x_min":74,"x_max":865,"o":"m 515 1003 q 657 979 599 1003 q 771 913 715 956 q 797 900 786 900 q 833 983 825 900 l 865 983 q 860 664 860 893 l 828 664 q 800 794 813 754 q 758 869 788 833 q 652 951 717 924 q 513 978 588 978 q 355 918 422 978 q 250 748 288 858 q 213 489 213 638 q 253 229 213 338 q 365 65 293 121 q 526 8 436 8 q 661 35 596 8 q 764 114 726 61 q 804 197 792 153 q 828 333 817 242 l 860 333 q 865 0 860 94 l 833 0 q 822 63 829 44 q 800 82 814 82 q 771 71 789 82 q 651 3 708 26 q 514 -19 594 -19 q 283 40 382 -19 q 128 213 183 100 q 74 483 74 326 q 130 754 74 636 q 287 938 186 872 q 515 1003 388 1003 m 518 1272 q 620 1169 551 1218 q 778 1089 689 1119 l 771 1069 q 606 1114 688 1088 q 478 1167 525 1140 q 373 1114 439 1140 q 240 1069 307 1088 l 233 1089 q 391 1169 322 1119 q 493 1272 460 1218 l 518 1272 z "},"Ċ":{"ha":956,"x_min":74,"x_max":865,"o":"m 515 1003 q 657 979 599 1003 q 771 913 715 956 q 797 900 786 900 q 833 983 825 900 l 865 983 q 860 664 860 893 l 828 664 q 800 794 813 754 q 758 869 788 833 q 652 951 717 924 q 513 978 588 978 q 355 918 422 978 q 250 748 288 858 q 213 489 213 638 q 253 229 213 338 q 365 65 293 121 q 526 8 436 8 q 661 35 596 8 q 764 114 726 61 q 804 197 792 153 q 828 333 817 242 l 860 333 q 865 0 860 94 l 833 0 q 822 63 829 44 q 800 82 814 82 q 771 71 789 82 q 651 3 708 26 q 514 -19 594 -19 q 283 40 382 -19 q 128 213 183 100 q 74 483 74 326 q 130 754 74 636 q 287 938 186 872 q 515 1003 388 1003 m 506 1250 q 568 1224 542 1250 q 594 1161 594 1197 q 568 1099 594 1125 q 506 1072 542 1072 q 443 1099 469 1072 q 417 1161 417 1125 q 443 1224 417 1197 q 506 1250 469 1250 z "},"D":{"ha":1004,"x_min":58,"x_max":928,"o":"m 438 983 q 806 860 683 983 q 928 503 928 738 q 868 238 928 351 q 695 62 808 124 q 425 0 582 0 l 344 1 q 231 4 267 4 q 58 0 117 4 l 58 28 q 131 39 108 31 q 163 71 154 47 q 171 147 171 94 l 171 836 q 163 913 171 889 q 131 944 154 936 q 58 956 108 953 l 58 983 q 193 979 107 979 l 311 981 q 438 983 406 983 m 403 958 q 338 949 360 958 q 308 914 317 939 q 300 839 300 889 l 300 144 q 308 69 300 94 q 338 35 317 44 q 404 25 360 25 q 636 78 551 25 q 755 235 721 132 q 789 497 789 338 q 751 758 789 657 q 630 908 714 858 q 403 958 546 958 z "},"Ð":{"ha":1004,"x_min":13,"x_max":928,"o":"m 438 983 q 806 860 683 983 q 928 503 928 738 q 868 238 928 351 q 695 62 808 124 q 425 0 582 0 l 344 1 q 231 4 267 4 q 58 0 117 4 l 58 28 q 131 39 108 31 q 163 71 154 47 q 171 147 171 94 l 171 836 q 163 913 171 889 q 131 944 154 936 q 58 956 108 953 l 58 983 q 193 979 107 979 l 311 981 q 438 983 406 983 m 403 958 q 338 949 360 958 q 308 914 317 939 q 300 839 300 889 l 300 144 q 308 69 300 94 q 338 35 317 44 q 404 25 360 25 q 636 78 551 25 q 755 235 721 132 q 789 497 789 338 q 751 758 789 657 q 630 908 714 858 q 403 958 546 958 m 504 481 l 13 481 l 13 508 l 504 508 l 504 481 z "},"Ď":{"ha":1004,"x_min":58,"x_max":928,"o":"m 438 983 q 806 860 683 983 q 928 503 928 738 q 868 238 928 351 q 695 62 808 124 q 425 0 582 0 l 344 1 q 231 4 267 4 q 58 0 117 4 l 58 28 q 131 39 108 31 q 163 71 154 47 q 171 147 171 94 l 171 836 q 163 913 171 889 q 131 944 154 936 q 58 956 108 953 l 58 983 q 193 979 107 979 l 311 981 q 438 983 406 983 m 403 958 q 338 949 360 958 q 308 914 317 939 q 300 839 300 889 l 300 144 q 308 69 300 94 q 338 35 317 44 q 404 25 360 25 q 636 78 551 25 q 755 235 721 132 q 789 497 789 338 q 751 758 789 657 q 630 908 714 858 q 403 958 546 958 m 706 1267 q 548 1187 617 1236 q 446 1083 479 1138 l 421 1083 q 319 1187 388 1138 q 161 1267 250 1236 l 168 1286 q 333 1242 251 1268 q 461 1189 414 1215 q 566 1242 500 1215 q 699 1286 632 1268 l 706 1267 z "},"Đ":{"ha":1004,"x_min":13,"x_max":928,"o":"m 438 983 q 806 860 683 983 q 928 503 928 738 q 868 238 928 351 q 695 62 808 124 q 425 0 582 0 l 344 1 q 231 4 267 4 q 58 0 117 4 l 58 28 q 131 39 108 31 q 163 71 154 47 q 171 147 171 94 l 171 836 q 163 913 171 889 q 131 944 154 936 q 58 956 108 953 l 58 983 q 193 979 107 979 l 311 981 q 438 983 406 983 m 403 958 q 338 949 360 958 q 308 914 317 939 q 300 839 300 889 l 300 144 q 308 69 300 94 q 338 35 317 44 q 404 25 360 25 q 636 78 551 25 q 755 235 721 132 q 789 497 789 338 q 751 758 789 657 q 630 908 714 858 q 403 958 546 958 m 504 481 l 13 481 l 13 508 l 504 508 l 504 481 z "},"E":{"ha":846,"x_min":58,"x_max":779,"o":"m 769 178 q 779 0 769 99 q 461 4 685 4 q 58 0 194 4 l 58 28 q 131 39 108 31 q 163 71 154 47 q 171 147 171 94 l 171 836 q 163 913 171 889 q 131 944 154 936 q 58 956 108 953 l 58 983 q 461 979 194 979 q 751 983 665 979 q 742 819 742 892 q 746 733 742 765 l 714 733 q 689 867 704 824 q 638 931 674 911 q 528 951 601 951 l 413 951 q 340 944 363 951 q 308 913 317 936 q 300 836 300 889 l 300 508 l 392 508 q 467 531 440 508 q 502 585 493 554 q 517 664 511 617 l 521 692 l 553 692 q 549 561 549 633 l 549 494 q 557 297 549 424 l 525 297 q 517 365 524 307 q 478 451 510 422 q 392 481 447 481 l 300 481 l 300 147 q 308 71 300 94 q 340 40 317 47 q 413 32 363 32 l 514 32 q 645 55 600 32 q 711 128 690 78 q 742 278 732 179 l 774 278 q 769 178 769 240 z "},"É":{"ha":846,"x_min":58,"x_max":779,"o":"m 769 178 q 779 0 769 99 q 461 4 685 4 q 58 0 194 4 l 58 28 q 131 39 108 31 q 163 71 154 47 q 171 147 171 94 l 171 836 q 163 913 171 889 q 131 944 154 936 q 58 956 108 953 l 58 983 q 461 979 194 979 q 751 983 665 979 q 742 819 742 892 q 746 733 742 765 l 714 733 q 689 867 704 824 q 638 931 674 911 q 528 951 601 951 l 413 951 q 340 944 363 951 q 308 913 317 936 q 300 836 300 889 l 300 508 l 392 508 q 467 531 440 508 q 502 585 493 554 q 517 664 511 617 l 521 692 l 553 692 q 549 561 549 633 l 549 494 q 557 297 549 424 l 525 297 q 517 365 524 307 q 478 451 510 422 q 392 481 447 481 l 300 481 l 300 147 q 308 71 300 94 q 340 40 317 47 q 413 32 363 32 l 514 32 q 645 55 600 32 q 711 128 690 78 q 742 278 732 179 l 774 278 q 769 178 769 240 m 574 1286 q 615 1300 596 1300 q 658 1276 642 1300 q 667 1250 667 1264 q 629 1196 667 1219 q 529 1151 600 1178 q 350 1072 425 1110 l 340 1090 q 438 1170 397 1133 q 489 1215 479 1207 q 574 1286 540 1264 z "},"Ĕ":{"ha":846,"x_min":58,"x_max":779,"o":"m 769 178 q 779 0 769 99 q 461 4 685 4 q 58 0 194 4 l 58 28 q 131 39 108 31 q 163 71 154 47 q 171 147 171 94 l 171 836 q 163 913 171 889 q 131 944 154 936 q 58 956 108 953 l 58 983 q 461 979 194 979 q 751 983 665 979 q 742 819 742 892 q 746 733 742 765 l 714 733 q 689 867 704 824 q 638 931 674 911 q 528 951 601 951 l 413 951 q 340 944 363 951 q 308 913 317 936 q 300 836 300 889 l 300 508 l 392 508 q 467 531 440 508 q 502 585 493 554 q 517 664 511 617 l 521 692 l 553 692 q 549 561 549 633 l 549 494 q 557 297 549 424 l 525 297 q 517 365 524 307 q 478 451 510 422 q 392 481 447 481 l 300 481 l 300 147 q 308 71 300 94 q 340 40 317 47 q 413 32 363 32 l 514 32 q 645 55 600 32 q 711 128 690 78 q 742 278 732 179 l 774 278 q 769 178 769 240 m 701 1247 q 591 1134 661 1182 q 425 1086 521 1086 q 259 1134 329 1086 q 149 1247 189 1182 l 167 1261 q 270 1198 206 1224 q 425 1172 335 1172 q 581 1199 515 1172 q 685 1263 646 1225 l 701 1247 z "},"Ě":{"ha":846,"x_min":58,"x_max":779,"o":"m 769 178 q 779 0 769 99 q 461 4 685 4 q 58 0 194 4 l 58 28 q 131 39 108 31 q 163 71 154 47 q 171 147 171 94 l 171 836 q 163 913 171 889 q 131 944 154 936 q 58 956 108 953 l 58 983 q 461 979 194 979 q 751 983 665 979 q 742 819 742 892 q 746 733 742 765 l 714 733 q 689 867 704 824 q 638 931 674 911 q 528 951 601 951 l 413 951 q 340 944 363 951 q 308 913 317 936 q 300 836 300 889 l 300 508 l 392 508 q 467 531 440 508 q 502 585 493 554 q 517 664 511 617 l 521 692 l 553 692 q 549 561 549 633 l 549 494 q 557 297 549 424 l 525 297 q 517 365 524 307 q 478 451 510 422 q 392 481 447 481 l 300 481 l 300 147 q 308 71 300 94 q 340 40 317 47 q 413 32 363 32 l 514 32 q 645 55 600 32 q 711 128 690 78 q 742 278 732 179 l 774 278 q 769 178 769 240 m 693 1267 q 535 1187 604 1236 q 433 1083 467 1138 l 408 1083 q 306 1187 375 1138 q 149 1267 238 1236 l 156 1286 q 320 1242 239 1268 q 449 1189 401 1215 q 553 1242 488 1215 q 686 1286 619 1268 l 693 1267 z "},"Ê":{"ha":846,"x_min":58,"x_max":779,"o":"m 769 178 q 779 0 769 99 q 461 4 685 4 q 58 0 194 4 l 58 28 q 131 39 108 31 q 163 71 154 47 q 171 147 171 94 l 171 836 q 163 913 171 889 q 131 944 154 936 q 58 956 108 953 l 58 983 q 461 979 194 979 q 751 983 665 979 q 742 819 742 892 q 746 733 742 765 l 714 733 q 689 867 704 824 q 638 931 674 911 q 528 951 601 951 l 413 951 q 340 944 363 951 q 308 913 317 936 q 300 836 300 889 l 300 508 l 392 508 q 467 531 440 508 q 502 585 493 554 q 517 664 511 617 l 521 692 l 553 692 q 549 561 549 633 l 549 494 q 557 297 549 424 l 525 297 q 517 365 524 307 q 478 451 510 422 q 392 481 447 481 l 300 481 l 300 147 q 308 71 300 94 q 340 40 317 47 q 413 32 363 32 l 514 32 q 645 55 600 32 q 711 128 690 78 q 742 278 732 179 l 774 278 q 769 178 769 240 m 438 1272 q 540 1169 471 1218 q 697 1089 608 1119 l 690 1069 q 526 1114 607 1088 q 397 1167 444 1140 q 292 1114 358 1140 q 160 1069 226 1088 l 153 1089 q 310 1169 242 1119 q 413 1272 379 1218 l 438 1272 z "},"Ế":{"ha":846,"x_min":58,"x_max":779,"o":"m 769 178 q 779 0 769 99 q 461 4 685 4 q 58 0 194 4 l 58 28 q 131 39 108 31 q 163 71 154 47 q 171 147 171 94 l 171 836 q 163 913 171 889 q 131 944 154 936 q 58 956 108 953 l 58 983 q 461 979 194 979 q 751 983 665 979 q 742 819 742 892 q 746 733 742 765 l 714 733 q 689 867 704 824 q 638 931 674 911 q 528 951 601 951 l 413 951 q 340 944 363 951 q 308 913 317 936 q 300 836 300 889 l 300 508 l 392 508 q 467 531 440 508 q 502 585 493 554 q 517 664 511 617 l 521 692 l 553 692 q 549 561 549 633 l 549 494 q 557 297 549 424 l 525 297 q 517 365 524 307 q 478 451 510 422 q 392 481 447 481 l 300 481 l 300 147 q 308 71 300 94 q 340 40 317 47 q 413 32 363 32 l 514 32 q 645 55 600 32 q 711 128 690 78 q 742 278 732 179 l 774 278 q 769 178 769 240 m 438 1272 q 540 1169 471 1218 q 697 1089 608 1119 l 690 1069 q 526 1114 607 1088 q 397 1167 444 1140 q 292 1114 358 1140 q 160 1069 226 1088 l 153 1089 q 310 1169 242 1119 q 413 1272 379 1218 l 438 1272 m 574 1592 q 615 1606 596 1606 q 658 1582 642 1606 q 667 1556 667 1569 q 629 1501 667 1525 q 529 1457 600 1483 q 350 1378 425 1415 l 340 1396 q 438 1476 397 1439 q 489 1521 479 1513 q 574 1592 540 1569 z "},"Ệ":{"ha":846,"x_min":58,"x_max":779,"o":"m 769 178 q 779 0 769 99 q 461 4 685 4 q 58 0 194 4 l 58 28 q 131 39 108 31 q 163 71 154 47 q 171 147 171 94 l 171 836 q 163 913 171 889 q 131 944 154 936 q 58 956 108 953 l 58 983 q 461 979 194 979 q 751 983 665 979 q 742 819 742 892 q 746 733 742 765 l 714 733 q 689 867 704 824 q 638 931 674 911 q 528 951 601 951 l 413 951 q 340 944 363 951 q 308 913 317 936 q 300 836 300 889 l 300 508 l 392 508 q 467 531 440 508 q 502 585 493 554 q 517 664 511 617 l 521 692 l 553 692 q 549 561 549 633 l 549 494 q 557 297 549 424 l 525 297 q 517 365 524 307 q 478 451 510 422 q 392 481 447 481 l 300 481 l 300 147 q 308 71 300 94 q 340 40 317 47 q 413 32 363 32 l 514 32 q 645 55 600 32 q 711 128 690 78 q 742 278 732 179 l 774 278 q 769 178 769 240 m 438 1383 q 528 1248 467 1313 q 669 1144 590 1183 l 658 1125 q 512 1189 583 1151 q 397 1264 440 1226 q 306 1189 363 1226 q 192 1125 250 1151 l 181 1144 q 322 1248 260 1183 q 413 1383 383 1313 l 438 1383 m 451 -251 q 394 -229 418 -251 q 371 -174 371 -207 q 393 -118 371 -140 q 451 -96 415 -96 q 510 -119 488 -96 q 532 -175 532 -142 q 508 -231 532 -210 q 451 -251 485 -251 z "},"Ề":{"ha":846,"x_min":58,"x_max":779,"o":"m 769 178 q 779 0 769 99 q 461 4 685 4 q 58 0 194 4 l 58 28 q 131 39 108 31 q 163 71 154 47 q 171 147 171 94 l 171 836 q 163 913 171 889 q 131 944 154 936 q 58 956 108 953 l 58 983 q 461 979 194 979 q 751 983 665 979 q 742 819 742 892 q 746 733 742 765 l 714 733 q 689 867 704 824 q 638 931 674 911 q 528 951 601 951 l 413 951 q 340 944 363 951 q 308 913 317 936 q 300 836 300 889 l 300 508 l 392 508 q 467 531 440 508 q 502 585 493 554 q 517 664 511 617 l 521 692 l 553 692 q 549 561 549 633 l 549 494 q 557 297 549 424 l 525 297 q 517 365 524 307 q 478 451 510 422 q 392 481 447 481 l 300 481 l 300 147 q 308 71 300 94 q 340 40 317 47 q 413 32 363 32 l 514 32 q 645 55 600 32 q 711 128 690 78 q 742 278 732 179 l 774 278 q 769 178 769 240 m 438 1272 q 540 1169 471 1218 q 697 1089 608 1119 l 690 1069 q 526 1114 607 1088 q 397 1167 444 1140 q 292 1114 358 1140 q 160 1069 226 1088 l 153 1089 q 310 1169 242 1119 q 413 1272 379 1218 l 438 1272 m 285 1592 q 369 1521 318 1569 q 420 1476 379 1513 q 518 1396 461 1439 l 508 1378 q 329 1457 433 1415 q 229 1501 258 1483 q 192 1556 192 1525 q 200 1582 192 1569 q 243 1606 217 1606 q 285 1592 263 1606 z "},"Ể":{"ha":846,"x_min":58,"x_max":818,"o":"m 769 178 q 779 0 769 99 q 461 4 685 4 q 58 0 194 4 l 58 28 q 131 39 108 31 q 163 71 154 47 q 171 147 171 94 l 171 836 q 163 913 171 889 q 131 944 154 936 q 58 956 108 953 l 58 983 q 461 979 194 979 q 751 983 665 979 q 742 819 742 892 q 746 733 742 765 l 714 733 q 689 867 704 824 q 638 931 674 911 q 528 951 601 951 l 413 951 q 340 944 363 951 q 308 913 317 936 q 300 836 300 889 l 300 508 l 392 508 q 467 531 440 508 q 502 585 493 554 q 517 664 511 617 l 521 692 l 553 692 q 549 561 549 633 l 549 494 q 557 297 549 424 l 525 297 q 517 365 524 307 q 478 451 510 422 q 392 481 447 481 l 300 481 l 300 147 q 308 71 300 94 q 340 40 317 47 q 413 32 363 32 l 514 32 q 645 55 600 32 q 711 128 690 78 q 742 278 732 179 l 774 278 q 769 178 769 240 m 438 1272 q 540 1169 471 1218 q 697 1089 608 1119 l 690 1069 q 526 1114 607 1088 q 397 1167 444 1140 q 292 1114 358 1140 q 160 1069 226 1088 l 153 1089 q 310 1169 242 1119 q 413 1272 379 1218 l 438 1272 m 631 1346 q 722 1450 722 1382 q 695 1510 722 1489 q 625 1531 668 1531 q 558 1508 578 1531 q 591 1490 579 1504 q 603 1451 603 1475 q 585 1407 603 1424 q 540 1390 567 1390 q 497 1406 514 1390 q 481 1449 481 1422 q 496 1495 481 1474 q 535 1531 511 1517 q 651 1558 583 1558 q 767 1533 717 1558 q 818 1458 818 1508 q 776 1381 818 1414 q 658 1333 733 1349 l 658 1269 l 631 1269 l 631 1346 z "},"Ễ":{"ha":846,"x_min":58,"x_max":779,"o":"m 769 178 q 779 0 769 99 q 461 4 685 4 q 58 0 194 4 l 58 28 q 131 39 108 31 q 163 71 154 47 q 171 147 171 94 l 171 836 q 163 913 171 889 q 131 944 154 936 q 58 956 108 953 l 58 983 q 461 979 194 979 q 751 983 665 979 q 742 819 742 892 q 746 733 742 765 l 714 733 q 689 867 704 824 q 638 931 674 911 q 528 951 601 951 l 413 951 q 340 944 363 951 q 308 913 317 936 q 300 836 300 889 l 300 508 l 392 508 q 467 531 440 508 q 502 585 493 554 q 517 664 511 617 l 521 692 l 553 692 q 549 561 549 633 l 549 494 q 557 297 549 424 l 525 297 q 517 365 524 307 q 478 451 510 422 q 392 481 447 481 l 300 481 l 300 147 q 308 71 300 94 q 340 40 317 47 q 413 32 363 32 l 514 32 q 645 55 600 32 q 711 128 690 78 q 742 278 732 179 l 774 278 q 769 178 769 240 m 438 1272 q 540 1169 471 1218 q 697 1089 608 1119 l 690 1069 q 526 1114 607 1088 q 397 1167 444 1140 q 292 1114 358 1140 q 160 1069 226 1088 l 153 1089 q 310 1169 242 1119 q 413 1272 379 1218 l 438 1272 m 313 1558 q 378 1544 347 1558 q 451 1503 408 1531 q 526 1463 500 1475 q 582 1451 551 1451 q 668 1529 646 1451 l 689 1525 q 639 1418 683 1458 q 535 1378 594 1378 q 469 1392 500 1378 q 396 1433 439 1406 q 322 1473 347 1461 q 265 1485 296 1485 q 213 1467 233 1485 q 179 1407 192 1450 l 158 1411 q 208 1518 164 1478 q 313 1558 253 1558 z "},"Ë":{"ha":846,"x_min":58,"x_max":779,"o":"m 769 178 q 779 0 769 99 q 461 4 685 4 q 58 0 194 4 l 58 28 q 131 39 108 31 q 163 71 154 47 q 171 147 171 94 l 171 836 q 163 913 171 889 q 131 944 154 936 q 58 956 108 953 l 58 983 q 461 979 194 979 q 751 983 665 979 q 742 819 742 892 q 746 733 742 765 l 714 733 q 689 867 704 824 q 638 931 674 911 q 528 951 601 951 l 413 951 q 340 944 363 951 q 308 913 317 936 q 300 836 300 889 l 300 508 l 392 508 q 467 531 440 508 q 502 585 493 554 q 517 664 511 617 l 521 692 l 553 692 q 549 561 549 633 l 549 494 q 557 297 549 424 l 525 297 q 517 365 524 307 q 478 451 510 422 q 392 481 447 481 l 300 481 l 300 147 q 308 71 300 94 q 340 40 317 47 q 413 32 363 32 l 514 32 q 645 55 600 32 q 711 128 690 78 q 742 278 732 179 l 774 278 q 769 178 769 240 m 278 1233 q 334 1209 310 1233 q 358 1153 358 1185 q 334 1096 358 1119 q 278 1072 310 1072 q 221 1096 244 1072 q 197 1153 197 1119 q 221 1209 197 1185 q 278 1233 244 1233 m 572 1233 q 628 1209 604 1233 q 653 1153 653 1185 q 628 1096 653 1119 q 572 1072 604 1072 q 515 1096 539 1072 q 492 1153 492 1119 q 515 1209 492 1185 q 572 1233 539 1233 z "},"Ė":{"ha":846,"x_min":58,"x_max":779,"o":"m 769 178 q 779 0 769 99 q 461 4 685 4 q 58 0 194 4 l 58 28 q 131 39 108 31 q 163 71 154 47 q 171 147 171 94 l 171 836 q 163 913 171 889 q 131 944 154 936 q 58 956 108 953 l 58 983 q 461 979 194 979 q 751 983 665 979 q 742 819 742 892 q 746 733 742 765 l 714 733 q 689 867 704 824 q 638 931 674 911 q 528 951 601 951 l 413 951 q 340 944 363 951 q 308 913 317 936 q 300 836 300 889 l 300 508 l 392 508 q 467 531 440 508 q 502 585 493 554 q 517 664 511 617 l 521 692 l 553 692 q 549 561 549 633 l 549 494 q 557 297 549 424 l 525 297 q 517 365 524 307 q 478 451 510 422 q 392 481 447 481 l 300 481 l 300 147 q 308 71 300 94 q 340 40 317 47 q 413 32 363 32 l 514 32 q 645 55 600 32 q 711 128 690 78 q 742 278 732 179 l 774 278 q 769 178 769 240 m 425 1250 q 488 1224 461 1250 q 514 1161 514 1197 q 488 1099 514 1125 q 425 1072 461 1072 q 363 1099 389 1072 q 336 1161 336 1125 q 363 1224 336 1197 q 425 1250 389 1250 z "},"Ẹ":{"ha":846,"x_min":58,"x_max":779,"o":"m 769 178 q 779 0 769 99 q 461 4 685 4 q 58 0 194 4 l 58 28 q 131 39 108 31 q 163 71 154 47 q 171 147 171 94 l 171 836 q 163 913 171 889 q 131 944 154 936 q 58 956 108 953 l 58 983 q 461 979 194 979 q 751 983 665 979 q 742 819 742 892 q 746 733 742 765 l 714 733 q 689 867 704 824 q 638 931 674 911 q 528 951 601 951 l 413 951 q 340 944 363 951 q 308 913 317 936 q 300 836 300 889 l 300 508 l 392 508 q 467 531 440 508 q 502 585 493 554 q 517 664 511 617 l 521 692 l 553 692 q 549 561 549 633 l 549 494 q 557 297 549 424 l 525 297 q 517 365 524 307 q 478 451 510 422 q 392 481 447 481 l 300 481 l 300 147 q 308 71 300 94 q 340 40 317 47 q 413 32 363 32 l 514 32 q 645 55 600 32 q 711 128 690 78 q 742 278 732 179 l 774 278 q 769 178 769 240 m 451 -251 q 394 -229 418 -251 q 371 -174 371 -207 q 393 -118 371 -140 q 451 -96 415 -96 q 510 -119 488 -96 q 532 -175 532 -142 q 508 -231 532 -210 q 451 -251 485 -251 z "},"È":{"ha":846,"x_min":58,"x_max":779,"o":"m 769 178 q 779 0 769 99 q 461 4 685 4 q 58 0 194 4 l 58 28 q 131 39 108 31 q 163 71 154 47 q 171 147 171 94 l 171 836 q 163 913 171 889 q 131 944 154 936 q 58 956 108 953 l 58 983 q 461 979 194 979 q 751 983 665 979 q 742 819 742 892 q 746 733 742 765 l 714 733 q 689 867 704 824 q 638 931 674 911 q 528 951 601 951 l 413 951 q 340 944 363 951 q 308 913 317 936 q 300 836 300 889 l 300 508 l 392 508 q 467 531 440 508 q 502 585 493 554 q 517 664 511 617 l 521 692 l 553 692 q 549 561 549 633 l 549 494 q 557 297 549 424 l 525 297 q 517 365 524 307 q 478 451 510 422 q 392 481 447 481 l 300 481 l 300 147 q 308 71 300 94 q 340 40 317 47 q 413 32 363 32 l 514 32 q 645 55 600 32 q 711 128 690 78 q 742 278 732 179 l 774 278 q 769 178 769 240 m 285 1286 q 369 1215 318 1264 q 420 1170 379 1207 q 518 1090 461 1133 l 508 1072 q 329 1151 433 1110 q 229 1196 258 1178 q 192 1250 192 1219 q 200 1276 192 1264 q 243 1300 217 1300 q 285 1286 263 1300 z "},"Ẻ":{"ha":846,"x_min":58,"x_max":779,"o":"m 769 178 q 779 0 769 99 q 461 4 685 4 q 58 0 194 4 l 58 28 q 131 39 108 31 q 163 71 154 47 q 171 147 171 94 l 171 836 q 163 913 171 889 q 131 944 154 936 q 58 956 108 953 l 58 983 q 461 979 194 979 q 751 983 665 979 q 742 819 742 892 q 746 733 742 765 l 714 733 q 689 867 704 824 q 638 931 674 911 q 528 951 601 951 l 413 951 q 340 944 363 951 q 308 913 317 936 q 300 836 300 889 l 300 508 l 392 508 q 467 531 440 508 q 502 585 493 554 q 517 664 511 617 l 521 692 l 553 692 q 549 561 549 633 l 549 494 q 557 297 549 424 l 525 297 q 517 365 524 307 q 478 451 510 422 q 392 481 447 481 l 300 481 l 300 147 q 308 71 300 94 q 340 40 317 47 q 413 32 363 32 l 514 32 q 645 55 600 32 q 711 128 690 78 q 742 278 732 179 l 774 278 q 769 178 769 240 m 411 1140 q 503 1244 503 1176 q 476 1304 503 1283 q 406 1325 449 1325 q 339 1303 358 1325 q 372 1284 360 1299 q 383 1246 383 1269 q 365 1201 383 1218 q 321 1185 347 1185 q 278 1201 294 1185 q 261 1243 261 1217 q 276 1290 261 1268 q 315 1325 292 1311 q 432 1353 364 1353 q 548 1328 497 1353 q 599 1253 599 1303 q 556 1176 599 1208 q 439 1128 514 1143 l 439 1064 l 411 1064 l 411 1140 z "},"Ē":{"ha":846,"x_min":58,"x_max":779,"o":"m 769 178 q 779 0 769 99 q 461 4 685 4 q 58 0 194 4 l 58 28 q 131 39 108 31 q 163 71 154 47 q 171 147 171 94 l 171 836 q 163 913 171 889 q 131 944 154 936 q 58 956 108 953 l 58 983 q 461 979 194 979 q 751 983 665 979 q 742 819 742 892 q 746 733 742 765 l 714 733 q 689 867 704 824 q 638 931 674 911 q 528 951 601 951 l 413 951 q 340 944 363 951 q 308 913 317 936 q 300 836 300 889 l 300 508 l 392 508 q 467 531 440 508 q 502 585 493 554 q 517 664 511 617 l 521 692 l 553 692 q 549 561 549 633 l 549 494 q 557 297 549 424 l 525 297 q 517 365 524 307 q 478 451 510 422 q 392 481 447 481 l 300 481 l 300 147 q 308 71 300 94 q 340 40 317 47 q 413 32 363 32 l 514 32 q 645 55 600 32 q 711 128 690 78 q 742 278 732 179 l 774 278 q 769 178 769 240 m 669 1138 l 181 1138 l 181 1172 l 669 1172 l 669 1138 z "},"Ę":{"ha":846,"x_min":58,"x_max":801,"o":"m 769 178 q 779 0 769 99 q 461 4 685 4 q 58 0 194 4 l 58 28 q 131 39 108 31 q 163 71 154 47 q 171 147 171 94 l 171 836 q 163 913 171 889 q 131 944 154 936 q 58 956 108 953 l 58 983 q 461 979 194 979 q 751 983 665 979 q 742 819 742 892 q 746 733 742 765 l 714 733 q 689 867 704 824 q 638 931 674 911 q 528 951 601 951 l 413 951 q 340 944 363 951 q 308 913 317 936 q 300 836 300 889 l 300 508 l 392 508 q 467 531 440 508 q 502 585 493 554 q 517 664 511 617 l 521 692 l 553 692 q 549 561 549 633 l 549 494 q 557 297 549 424 l 525 297 q 517 365 524 307 q 478 451 510 422 q 392 481 447 481 l 300 481 l 300 147 q 308 71 300 94 q 340 40 317 47 q 413 32 363 32 l 514 32 q 645 55 600 32 q 711 128 690 78 q 742 278 732 179 l 774 278 q 769 178 769 240 m 779 4 q 670 -53 704 -15 q 636 -133 636 -92 q 652 -178 636 -161 q 696 -194 668 -194 q 744 -181 721 -194 q 781 -149 767 -168 l 801 -167 q 644 -261 739 -261 q 565 -236 594 -261 q 535 -171 535 -211 q 585 -72 535 -117 q 726 4 635 -26 l 779 4 z "},"Ẽ":{"ha":846,"x_min":58,"x_max":779,"o":"m 769 178 q 779 0 769 99 q 461 4 685 4 q 58 0 194 4 l 58 28 q 131 39 108 31 q 163 71 154 47 q 171 147 171 94 l 171 836 q 163 913 171 889 q 131 944 154 936 q 58 956 108 953 l 58 983 q 461 979 194 979 q 751 983 665 979 q 742 819 742 892 q 746 733 742 765 l 714 733 q 689 867 704 824 q 638 931 674 911 q 528 951 601 951 l 413 951 q 340 944 363 951 q 308 913 317 936 q 300 836 300 889 l 300 508 l 392 508 q 467 531 440 508 q 502 585 493 554 q 517 664 511 617 l 521 692 l 553 692 q 549 561 549 633 l 549 494 q 557 297 549 424 l 525 297 q 517 365 524 307 q 478 451 510 422 q 392 481 447 481 l 300 481 l 300 147 q 308 71 300 94 q 340 40 317 47 q 413 32 363 32 l 514 32 q 645 55 600 32 q 711 128 690 78 q 742 278 732 179 l 774 278 q 769 178 769 240 m 313 1253 q 378 1239 347 1253 q 451 1197 408 1225 q 526 1158 500 1169 q 582 1146 551 1146 q 668 1224 646 1146 l 689 1219 q 639 1113 683 1153 q 535 1072 594 1072 q 469 1086 500 1072 q 396 1128 439 1100 q 322 1167 347 1156 q 265 1179 296 1179 q 213 1162 233 1179 q 179 1101 192 1144 l 158 1106 q 208 1213 164 1172 q 313 1253 253 1253 z "},"Ʒ":{"ha":825,"x_min":75,"x_max":765,"o":"m 508 544 q 693 435 621 506 q 765 260 765 365 q 719 113 765 176 q 591 15 672 50 q 408 -19 510 -19 q 276 -3 335 -19 q 185 32 218 13 q 139 51 153 51 q 118 38 125 51 q 107 -10 111 24 l 75 -10 q 81 324 81 67 l 113 324 q 193 97 121 185 q 397 8 265 8 q 574 78 514 8 q 633 258 633 149 q 569 445 633 375 q 397 542 506 515 l 397 569 l 638 951 l 346 951 q 215 927 260 951 q 149 849 169 903 q 118 692 128 794 l 86 692 q 90 797 90 736 q 81 983 90 885 q 426 979 183 979 q 764 983 663 979 l 764 956 l 508 544 z "},"Ǯ":{"ha":825,"x_min":75,"x_max":765,"o":"m 508 544 q 693 435 621 506 q 765 260 765 365 q 719 113 765 176 q 591 15 672 50 q 408 -19 510 -19 q 276 -3 335 -19 q 185 32 218 13 q 139 51 153 51 q 118 38 125 51 q 107 -10 111 24 l 75 -10 q 81 324 81 67 l 113 324 q 193 97 121 185 q 397 8 265 8 q 574 78 514 8 q 633 258 633 149 q 569 445 633 375 q 397 542 506 515 l 397 569 l 638 951 l 346 951 q 215 927 260 951 q 149 849 169 903 q 118 692 128 794 l 86 692 q 90 797 90 736 q 81 983 90 885 q 426 979 183 979 q 764 983 663 979 l 764 956 l 508 544 m 678 1267 q 520 1187 589 1236 q 418 1083 451 1138 l 393 1083 q 291 1187 360 1138 q 133 1267 222 1236 l 140 1286 q 305 1242 224 1268 q 433 1189 386 1215 q 538 1242 472 1215 q 671 1286 604 1268 l 678 1267 z "},"F":{"ha":790,"x_min":58,"x_max":751,"o":"m 751 983 q 742 806 742 885 q 746 692 742 736 l 714 692 q 686 851 703 799 q 628 927 669 903 q 500 951 586 951 l 413 951 q 340 944 363 951 q 308 913 317 936 q 300 836 300 889 l 300 494 l 401 494 q 476 517 450 494 q 512 572 503 540 q 526 650 521 603 l 531 678 l 563 678 q 558 547 558 619 l 558 481 q 567 283 558 410 l 535 283 q 526 351 533 293 q 488 438 519 408 q 401 467 457 467 l 300 467 l 300 147 q 311 71 300 94 q 350 39 322 47 q 440 28 378 31 l 440 0 q 236 4 368 4 q 58 0 117 4 l 58 28 q 131 39 108 31 q 163 71 154 47 q 171 147 171 94 l 171 836 q 163 913 171 889 q 131 944 154 936 q 58 956 108 953 l 58 983 q 461 979 194 979 q 751 983 665 979 z "},"G":{"ha":976,"x_min":75,"x_max":929,"o":"m 522 1003 q 657 980 604 1003 q 772 913 710 957 q 800 899 790 899 q 835 983 826 899 l 867 983 q 861 664 861 893 l 829 664 q 803 785 817 738 q 760 869 789 833 q 655 949 719 919 q 519 978 590 978 q 358 918 428 978 q 251 748 289 858 q 214 490 214 638 q 294 124 214 240 q 544 8 374 8 q 689 51 628 8 q 722 84 714 68 q 729 128 729 100 l 729 261 q 718 346 729 319 q 679 382 707 372 q 589 394 651 392 l 589 422 q 785 418 661 418 q 929 422 879 418 l 929 394 q 883 383 897 392 q 863 351 868 375 q 858 275 858 328 l 858 0 l 831 0 q 819 53 829 28 q 793 79 810 79 q 776 75 785 79 q 747 56 768 71 q 647 -1 699 18 q 531 -19 594 -19 q 285 40 388 -19 q 129 210 183 99 q 75 475 75 321 q 133 753 75 633 q 292 938 190 874 q 522 1003 393 1003 z "},"Ǵ":{"ha":976,"x_min":75,"x_max":929,"o":"m 522 1003 q 657 980 604 1003 q 772 913 710 957 q 800 899 790 899 q 835 983 826 899 l 867 983 q 861 664 861 893 l 829 664 q 803 785 817 738 q 760 869 789 833 q 655 949 719 919 q 519 978 590 978 q 358 918 428 978 q 251 748 289 858 q 214 490 214 638 q 294 124 214 240 q 544 8 374 8 q 689 51 628 8 q 722 84 714 68 q 729 128 729 100 l 729 261 q 718 346 729 319 q 679 382 707 372 q 589 394 651 392 l 589 422 q 785 418 661 418 q 929 422 879 418 l 929 394 q 883 383 897 392 q 863 351 868 375 q 858 275 858 328 l 858 0 l 831 0 q 819 53 829 28 q 793 79 810 79 q 776 75 785 79 q 747 56 768 71 q 647 -1 699 18 q 531 -19 594 -19 q 285 40 388 -19 q 129 210 183 99 q 75 475 75 321 q 133 753 75 633 q 292 938 190 874 q 522 1003 393 1003 m 650 1286 q 692 1300 672 1300 q 735 1276 718 1300 q 743 1250 743 1264 q 706 1196 743 1219 q 606 1151 676 1178 q 426 1072 501 1110 l 417 1090 q 515 1170 474 1133 q 565 1215 556 1207 q 650 1286 617 1264 z "},"Ğ":{"ha":976,"x_min":75,"x_max":929,"o":"m 522 1003 q 657 980 604 1003 q 772 913 710 957 q 800 899 790 899 q 835 983 826 899 l 867 983 q 861 664 861 893 l 829 664 q 803 785 817 738 q 760 869 789 833 q 655 949 719 919 q 519 978 590 978 q 358 918 428 978 q 251 748 289 858 q 214 490 214 638 q 294 124 214 240 q 544 8 374 8 q 689 51 628 8 q 722 84 714 68 q 729 128 729 100 l 729 261 q 718 346 729 319 q 679 382 707 372 q 589 394 651 392 l 589 422 q 785 418 661 418 q 929 422 879 418 l 929 394 q 883 383 897 392 q 863 351 868 375 q 858 275 858 328 l 858 0 l 831 0 q 819 53 829 28 q 793 79 810 79 q 776 75 785 79 q 747 56 768 71 q 647 -1 699 18 q 531 -19 594 -19 q 285 40 388 -19 q 129 210 183 99 q 75 475 75 321 q 133 753 75 633 q 292 938 190 874 q 522 1003 393 1003 m 778 1247 q 667 1134 738 1182 q 501 1086 597 1086 q 335 1134 406 1086 q 225 1247 265 1182 l 243 1261 q 347 1198 282 1224 q 501 1172 411 1172 q 657 1199 592 1172 q 761 1263 722 1225 l 778 1247 z "},"Ǧ":{"ha":976,"x_min":75,"x_max":929,"o":"m 522 1003 q 657 980 604 1003 q 772 913 710 957 q 800 899 790 899 q 835 983 826 899 l 867 983 q 861 664 861 893 l 829 664 q 803 785 817 738 q 760 869 789 833 q 655 949 719 919 q 519 978 590 978 q 358 918 428 978 q 251 748 289 858 q 214 490 214 638 q 294 124 214 240 q 544 8 374 8 q 689 51 628 8 q 722 84 714 68 q 729 128 729 100 l 729 261 q 718 346 729 319 q 679 382 707 372 q 589 394 651 392 l 589 422 q 785 418 661 418 q 929 422 879 418 l 929 394 q 883 383 897 392 q 863 351 868 375 q 858 275 858 328 l 858 0 l 831 0 q 819 53 829 28 q 793 79 810 79 q 776 75 785 79 q 747 56 768 71 q 647 -1 699 18 q 531 -19 594 -19 q 285 40 388 -19 q 129 210 183 99 q 75 475 75 321 q 133 753 75 633 q 292 938 190 874 q 522 1003 393 1003 m 769 1267 q 612 1187 681 1236 q 510 1083 543 1138 l 485 1083 q 383 1187 451 1138 q 225 1267 314 1236 l 232 1286 q 397 1242 315 1268 q 525 1189 478 1215 q 630 1242 564 1215 q 763 1286 696 1268 l 769 1267 z "},"Ĝ":{"ha":976,"x_min":75,"x_max":929,"o":"m 522 1003 q 657 980 604 1003 q 772 913 710 957 q 800 899 790 899 q 835 983 826 899 l 867 983 q 861 664 861 893 l 829 664 q 803 785 817 738 q 760 869 789 833 q 655 949 719 919 q 519 978 590 978 q 358 918 428 978 q 251 748 289 858 q 214 490 214 638 q 294 124 214 240 q 544 8 374 8 q 689 51 628 8 q 722 84 714 68 q 729 128 729 100 l 729 261 q 718 346 729 319 q 679 382 707 372 q 589 394 651 392 l 589 422 q 785 418 661 418 q 929 422 879 418 l 929 394 q 883 383 897 392 q 863 351 868 375 q 858 275 858 328 l 858 0 l 831 0 q 819 53 829 28 q 793 79 810 79 q 776 75 785 79 q 747 56 768 71 q 647 -1 699 18 q 531 -19 594 -19 q 285 40 388 -19 q 129 210 183 99 q 75 475 75 321 q 133 753 75 633 q 292 938 190 874 q 522 1003 393 1003 m 514 1272 q 616 1169 547 1218 q 774 1089 685 1119 l 767 1069 q 602 1114 683 1088 q 474 1167 521 1140 q 369 1114 435 1140 q 236 1069 303 1088 l 229 1089 q 387 1169 318 1119 q 489 1272 456 1218 l 514 1272 z "},"Ģ":{"ha":976,"x_min":75,"x_max":929,"o":"m 522 1003 q 657 980 604 1003 q 772 913 710 957 q 800 899 790 899 q 835 983 826 899 l 867 983 q 861 664 861 893 l 829 664 q 803 785 817 738 q 760 869 789 833 q 655 949 719 919 q 519 978 590 978 q 358 918 428 978 q 251 748 289 858 q 214 490 214 638 q 294 124 214 240 q 544 8 374 8 q 689 51 628 8 q 722 84 714 68 q 729 128 729 100 l 729 261 q 718 346 729 319 q 679 382 707 372 q 589 394 651 392 l 589 422 q 785 418 661 418 q 929 422 879 418 l 929 394 q 883 383 897 392 q 863 351 868 375 q 858 275 858 328 l 858 0 l 831 0 q 819 53 829 28 q 793 79 810 79 q 776 75 785 79 q 747 56 768 71 q 647 -1 699 18 q 531 -19 594 -19 q 285 40 388 -19 q 129 210 183 99 q 75 475 75 321 q 133 753 75 633 q 292 938 190 874 q 522 1003 393 1003 m 514 -96 q 579 -124 554 -96 q 604 -193 604 -151 q 579 -278 604 -246 q 490 -335 554 -311 l 481 -310 q 542 -276 517 -299 q 567 -222 568 -253 q 508 -244 542 -244 q 456 -224 476 -244 q 436 -169 436 -204 q 459 -117 436 -139 q 514 -96 482 -96 z "},"Ġ":{"ha":976,"x_min":75,"x_max":929,"o":"m 522 1003 q 657 980 604 1003 q 772 913 710 957 q 800 899 790 899 q 835 983 826 899 l 867 983 q 861 664 861 893 l 829 664 q 803 785 817 738 q 760 869 789 833 q 655 949 719 919 q 519 978 590 978 q 358 918 428 978 q 251 748 289 858 q 214 490 214 638 q 294 124 214 240 q 544 8 374 8 q 689 51 628 8 q 722 84 714 68 q 729 128 729 100 l 729 261 q 718 346 729 319 q 679 382 707 372 q 589 394 651 392 l 589 422 q 785 418 661 418 q 929 422 879 418 l 929 394 q 883 383 897 392 q 863 351 868 375 q 858 275 858 328 l 858 0 l 831 0 q 819 53 829 28 q 793 79 810 79 q 776 75 785 79 q 747 56 768 71 q 647 -1 699 18 q 531 -19 594 -19 q 285 40 388 -19 q 129 210 183 99 q 75 475 75 321 q 133 753 75 633 q 292 938 190 874 q 522 1003 393 1003 m 501 1250 q 564 1224 538 1250 q 590 1161 590 1197 q 564 1099 590 1125 q 501 1072 538 1072 q 439 1099 465 1072 q 413 1161 413 1125 q 439 1224 413 1197 q 501 1250 465 1250 z "},"Ǥ":{"ha":976,"x_min":75,"x_max":976,"o":"m 976 233 l 858 233 l 858 0 l 831 0 q 819 53 829 28 q 793 79 810 79 q 776 75 785 79 q 747 56 768 71 q 647 -1 699 18 q 531 -19 594 -19 q 285 40 388 -19 q 129 210 183 99 q 75 475 75 321 q 133 753 75 633 q 292 938 190 874 q 522 1003 393 1003 q 657 980 604 1003 q 772 913 710 957 q 800 899 790 899 q 835 983 826 899 l 867 983 q 861 664 861 893 l 829 664 q 803 785 817 738 q 760 869 789 833 q 655 949 719 919 q 519 978 590 978 q 358 918 428 978 q 251 748 289 858 q 214 490 214 638 q 294 124 214 240 q 544 8 374 8 q 689 51 628 8 q 722 84 714 68 q 729 128 729 100 l 729 233 l 567 233 l 567 261 l 729 261 l 729 289 q 718 374 729 347 q 679 410 707 400 q 589 422 651 419 l 589 450 q 785 446 661 446 q 929 450 879 446 l 929 422 q 883 411 897 419 q 863 379 868 403 q 858 303 858 356 l 858 261 l 976 261 l 976 233 z "},"H":{"ha":1051,"x_min":58,"x_max":993,"o":"m 993 956 q 920 944 943 953 q 889 913 897 936 q 881 836 881 889 l 881 147 q 889 71 881 94 q 920 39 897 47 q 993 28 943 31 l 993 0 q 815 4 935 4 q 639 0 703 4 l 639 28 q 712 39 689 31 q 743 71 735 47 q 751 147 751 94 l 751 481 l 300 481 l 300 147 q 308 71 300 94 q 340 39 317 47 q 413 28 363 31 l 413 0 q 236 4 349 4 q 58 0 117 4 l 58 28 q 131 39 108 31 q 163 71 154 47 q 171 147 171 94 l 171 836 q 163 913 171 889 q 131 944 154 936 q 58 956 108 953 l 58 983 q 236 979 117 979 q 413 983 347 979 l 413 956 q 340 944 363 953 q 308 913 317 936 q 300 836 300 889 l 300 508 l 751 508 l 751 836 q 743 913 751 889 q 712 944 735 936 q 639 956 689 953 l 639 983 q 815 979 703 979 q 993 983 935 979 l 993 956 z "},"Ħ":{"ha":1051,"x_min":58,"x_max":993,"o":"m 993 956 q 920 944 943 953 q 889 913 897 936 q 881 836 881 889 l 881 147 q 889 71 881 94 q 920 39 897 47 q 993 28 943 31 l 993 0 q 815 4 935 4 q 639 0 703 4 l 639 28 q 712 39 689 31 q 743 71 735 47 q 751 147 751 94 l 751 481 l 300 481 l 300 147 q 308 71 300 94 q 340 39 317 47 q 413 28 363 31 l 413 0 q 236 4 349 4 q 58 0 117 4 l 58 28 q 131 39 108 31 q 163 71 154 47 q 171 147 171 94 l 171 836 q 163 913 171 889 q 131 944 154 936 q 58 956 108 953 l 58 983 q 236 979 117 979 q 413 983 347 979 l 413 956 q 340 944 363 953 q 308 913 317 936 q 300 836 300 889 l 300 508 l 751 508 l 751 836 q 743 913 751 889 q 712 944 735 936 q 639 956 689 953 l 639 983 q 815 979 703 979 q 993 983 935 979 l 993 956 m 993 713 l 58 713 l 58 740 l 993 740 l 993 713 z "},"Ȟ":{"ha":1051,"x_min":58,"x_max":993,"o":"m 993 956 q 920 944 943 953 q 889 913 897 936 q 881 836 881 889 l 881 147 q 889 71 881 94 q 920 39 897 47 q 993 28 943 31 l 993 0 q 815 4 935 4 q 639 0 703 4 l 639 28 q 712 39 689 31 q 743 71 735 47 q 751 147 751 94 l 751 481 l 300 481 l 300 147 q 308 71 300 94 q 340 39 317 47 q 413 28 363 31 l 413 0 q 236 4 349 4 q 58 0 117 4 l 58 28 q 131 39 108 31 q 163 71 154 47 q 171 147 171 94 l 171 836 q 163 913 171 889 q 131 944 154 936 q 58 956 108 953 l 58 983 q 236 979 117 979 q 413 983 347 979 l 413 956 q 340 944 363 953 q 308 913 317 936 q 300 836 300 889 l 300 508 l 751 508 l 751 836 q 743 913 751 889 q 712 944 735 936 q 639 956 689 953 l 639 983 q 815 979 703 979 q 993 983 935 979 l 993 956 m 797 1267 q 640 1187 708 1236 q 538 1083 571 1138 l 513 1083 q 410 1187 479 1138 q 253 1267 342 1236 l 260 1286 q 424 1242 343 1268 q 553 1189 506 1215 q 658 1242 592 1215 q 790 1286 724 1268 l 797 1267 z "},"Ĥ":{"ha":1051,"x_min":58,"x_max":993,"o":"m 993 956 q 920 944 943 953 q 889 913 897 936 q 881 836 881 889 l 881 147 q 889 71 881 94 q 920 39 897 47 q 993 28 943 31 l 993 0 q 815 4 935 4 q 639 0 703 4 l 639 28 q 712 39 689 31 q 743 71 735 47 q 751 147 751 94 l 751 481 l 300 481 l 300 147 q 308 71 300 94 q 340 39 317 47 q 413 28 363 31 l 413 0 q 236 4 349 4 q 58 0 117 4 l 58 28 q 131 39 108 31 q 163 71 154 47 q 171 147 171 94 l 171 836 q 163 913 171 889 q 131 944 154 936 q 58 956 108 953 l 58 983 q 236 979 117 979 q 413 983 347 979 l 413 956 q 340 944 363 953 q 308 913 317 936 q 300 836 300 889 l 300 508 l 751 508 l 751 836 q 743 913 751 889 q 712 944 735 936 q 639 956 689 953 l 639 983 q 815 979 703 979 q 993 983 935 979 l 993 956 m 542 1272 q 644 1169 575 1218 q 801 1089 713 1119 l 794 1069 q 630 1114 711 1088 q 501 1167 549 1140 q 397 1114 463 1140 q 264 1069 331 1088 l 257 1089 q 415 1169 346 1119 q 517 1272 483 1218 l 542 1272 z "},"I":{"ha":471,"x_min":58,"x_max":413,"o":"m 413 956 q 340 944 363 953 q 308 913 317 936 q 300 836 300 889 l 300 147 q 308 71 300 94 q 340 39 317 47 q 413 28 363 31 l 413 0 q 236 4 349 4 q 58 0 117 4 l 58 28 q 131 39 108 31 q 163 71 154 47 q 171 147 171 94 l 171 836 q 163 913 171 889 q 131 944 154 936 q 58 956 108 953 l 58 983 q 236 979 117 979 q 413 983 347 979 l 413 956 z "},"Ĳ":{"ha":899,"x_min":58,"x_max":850,"o":"m 413 956 q 340 944 363 953 q 308 913 317 936 q 300 836 300 889 l 300 147 q 308 71 300 94 q 340 39 317 47 q 413 28 363 31 l 413 0 q 236 4 349 4 q 58 0 117 4 l 58 28 q 131 39 108 31 q 163 71 154 47 q 171 147 171 94 l 171 836 q 163 913 171 889 q 131 944 154 936 q 58 956 108 953 l 58 983 q 236 979 117 979 q 413 983 347 979 l 413 956 m 418 -235 q 562 -162 515 -232 q 608 72 608 -93 l 608 836 q 600 913 608 889 q 569 944 592 936 q 496 956 546 953 l 496 983 q 671 979 554 979 q 850 983 785 979 l 850 956 q 777 944 800 953 q 746 913 754 936 q 738 836 738 889 l 738 328 q 733 119 738 210 q 714 -35 729 28 q 612 -199 689 -136 q 418 -261 535 -261 l 418 -235 z "},"Í":{"ha":471,"x_min":58,"x_max":478,"o":"m 413 956 q 340 944 363 953 q 308 913 317 936 q 300 836 300 889 l 300 147 q 308 71 300 94 q 340 39 317 47 q 413 28 363 31 l 413 0 q 236 4 349 4 q 58 0 117 4 l 58 28 q 131 39 108 31 q 163 71 154 47 q 171 147 171 94 l 171 836 q 163 913 171 889 q 131 944 154 936 q 58 956 108 953 l 58 983 q 236 979 117 979 q 413 983 347 979 l 413 956 m 385 1286 q 426 1300 407 1300 q 469 1276 453 1300 q 478 1250 478 1264 q 440 1196 478 1219 q 340 1151 411 1178 q 161 1072 236 1110 l 151 1090 q 249 1170 208 1133 q 300 1215 290 1207 q 385 1286 351 1264 z "},"Ĭ":{"ha":471,"x_min":-40,"x_max":513,"o":"m 413 956 q 340 944 363 953 q 308 913 317 936 q 300 836 300 889 l 300 147 q 308 71 300 94 q 340 39 317 47 q 413 28 363 31 l 413 0 q 236 4 349 4 q 58 0 117 4 l 58 28 q 131 39 108 31 q 163 71 154 47 q 171 147 171 94 l 171 836 q 163 913 171 889 q 131 944 154 936 q 58 956 108 953 l 58 983 q 236 979 117 979 q 413 983 347 979 l 413 956 m 513 1247 q 402 1134 472 1182 q 236 1086 332 1086 q 70 1134 140 1086 q -40 1247 0 1182 l -22 1261 q 81 1198 17 1224 q 236 1172 146 1172 q 392 1199 326 1172 q 496 1263 457 1225 l 513 1247 z "},"Î":{"ha":471,"x_min":-36,"x_max":508,"o":"m 413 956 q 340 944 363 953 q 308 913 317 936 q 300 836 300 889 l 300 147 q 308 71 300 94 q 340 39 317 47 q 413 28 363 31 l 413 0 q 236 4 349 4 q 58 0 117 4 l 58 28 q 131 39 108 31 q 163 71 154 47 q 171 147 171 94 l 171 836 q 163 913 171 889 q 131 944 154 936 q 58 956 108 953 l 58 983 q 236 979 117 979 q 413 983 347 979 l 413 956 m 249 1272 q 351 1169 282 1218 q 508 1089 419 1119 l 501 1069 q 337 1114 418 1088 q 208 1167 256 1140 q 103 1114 169 1140 q -29 1069 38 1088 l -36 1089 q 122 1169 53 1119 q 224 1272 190 1218 l 249 1272 z "},"Ï":{"ha":471,"x_min":8,"x_max":464,"o":"m 413 956 q 340 944 363 953 q 308 913 317 936 q 300 836 300 889 l 300 147 q 308 71 300 94 q 340 39 317 47 q 413 28 363 31 l 413 0 q 236 4 349 4 q 58 0 117 4 l 58 28 q 131 39 108 31 q 163 71 154 47 q 171 147 171 94 l 171 836 q 163 913 171 889 q 131 944 154 936 q 58 956 108 953 l 58 983 q 236 979 117 979 q 413 983 347 979 l 413 956 m 89 1233 q 145 1209 121 1233 q 169 1153 169 1185 q 145 1096 169 1119 q 89 1072 121 1072 q 32 1096 56 1072 q 8 1153 8 1119 q 32 1209 8 1185 q 89 1233 56 1233 m 383 1233 q 440 1209 415 1233 q 464 1153 464 1185 q 440 1096 464 1119 q 383 1072 415 1072 q 326 1096 350 1072 q 303 1153 303 1119 q 326 1209 303 1185 q 383 1233 350 1233 z "},"İ":{"ha":471,"x_min":58,"x_max":413,"o":"m 413 956 q 340 944 363 953 q 308 913 317 936 q 300 836 300 889 l 300 147 q 308 71 300 94 q 340 39 317 47 q 413 28 363 31 l 413 0 q 236 4 349 4 q 58 0 117 4 l 58 28 q 131 39 108 31 q 163 71 154 47 q 171 147 171 94 l 171 836 q 163 913 171 889 q 131 944 154 936 q 58 956 108 953 l 58 983 q 236 979 117 979 q 413 983 347 979 l 413 956 m 236 1332 q 299 1306 272 1332 q 325 1243 325 1279 q 299 1181 325 1207 q 236 1154 272 1154 q 174 1181 200 1154 q 147 1243 147 1207 q 174 1306 147 1279 q 236 1332 200 1332 z "},"Ị":{"ha":471,"x_min":58,"x_max":413,"o":"m 413 956 q 340 944 363 953 q 308 913 317 936 q 300 836 300 889 l 300 147 q 308 71 300 94 q 340 39 317 47 q 413 28 363 31 l 413 0 q 236 4 349 4 q 58 0 117 4 l 58 28 q 131 39 108 31 q 163 71 154 47 q 171 147 171 94 l 171 836 q 163 913 171 889 q 131 944 154 936 q 58 956 108 953 l 58 983 q 236 979 117 979 q 413 983 347 979 l 413 956 m 236 -251 q 179 -229 203 -251 q 156 -174 156 -207 q 178 -118 156 -140 q 236 -96 200 -96 q 294 -119 272 -96 q 317 -175 317 -142 q 293 -231 317 -210 q 236 -251 269 -251 z "},"Ì":{"ha":471,"x_min":3,"x_max":413,"o":"m 413 956 q 340 944 363 953 q 308 913 317 936 q 300 836 300 889 l 300 147 q 308 71 300 94 q 340 39 317 47 q 413 28 363 31 l 413 0 q 236 4 349 4 q 58 0 117 4 l 58 28 q 131 39 108 31 q 163 71 154 47 q 171 147 171 94 l 171 836 q 163 913 171 889 q 131 944 154 936 q 58 956 108 953 l 58 983 q 236 979 117 979 q 413 983 347 979 l 413 956 m 96 1286 q 181 1215 129 1264 q 231 1170 190 1207 q 329 1090 272 1133 l 319 1072 q 140 1151 244 1110 q 40 1196 69 1178 q 3 1250 3 1219 q 11 1276 3 1264 q 54 1300 28 1300 q 96 1286 74 1300 z "},"Ỉ":{"ha":471,"x_min":58,"x_max":413,"o":"m 413 956 q 340 944 363 953 q 308 913 317 936 q 300 836 300 889 l 300 147 q 308 71 300 94 q 340 39 317 47 q 413 28 363 31 l 413 0 q 236 4 349 4 q 58 0 117 4 l 58 28 q 131 39 108 31 q 163 71 154 47 q 171 147 171 94 l 171 836 q 163 913 171 889 q 131 944 154 936 q 58 956 108 953 l 58 983 q 236 979 117 979 q 413 983 347 979 l 413 956 m 222 1140 q 314 1244 314 1176 q 287 1304 314 1283 q 217 1325 260 1325 q 150 1303 169 1325 q 183 1284 171 1299 q 194 1246 194 1269 q 176 1201 194 1218 q 132 1185 158 1185 q 89 1201 106 1185 q 72 1243 72 1217 q 88 1290 72 1268 q 126 1325 103 1311 q 243 1353 175 1353 q 359 1328 308 1353 q 410 1253 410 1303 q 367 1176 410 1208 q 250 1128 325 1143 l 250 1064 l 222 1064 l 222 1140 z "},"Ī":{"ha":471,"x_min":-8,"x_max":481,"o":"m 413 956 q 340 944 363 953 q 308 913 317 936 q 300 836 300 889 l 300 147 q 308 71 300 94 q 340 39 317 47 q 413 28 363 31 l 413 0 q 236 4 349 4 q 58 0 117 4 l 58 28 q 131 39 108 31 q 163 71 154 47 q 171 147 171 94 l 171 836 q 163 913 171 889 q 131 944 154 936 q 58 956 108 953 l 58 983 q 236 979 117 979 q 413 983 347 979 l 413 956 m 481 1138 l -8 1138 l -8 1172 l 481 1172 l 481 1138 z "},"Į":{"ha":471,"x_min":58,"x_max":435,"o":"m 413 956 q 340 944 363 953 q 308 913 317 936 q 300 836 300 889 l 300 147 q 308 71 300 94 q 340 39 317 47 q 413 28 363 31 l 413 0 q 236 4 349 4 q 58 0 117 4 l 58 28 q 131 39 108 31 q 163 71 154 47 q 171 147 171 94 l 171 836 q 163 913 171 889 q 131 944 154 936 q 58 956 108 953 l 58 983 q 236 979 117 979 q 413 983 347 979 l 413 956 m 413 4 q 303 -53 338 -15 q 269 -133 269 -92 q 285 -178 269 -161 q 329 -194 301 -194 q 377 -181 354 -194 q 414 -149 400 -168 l 435 -167 q 278 -261 372 -261 q 198 -236 228 -261 q 168 -171 168 -211 q 218 -72 168 -117 q 360 4 268 -26 l 413 4 z "},"Ĩ":{"ha":471,"x_min":-31,"x_max":500,"o":"m 413 956 q 340 944 363 953 q 308 913 317 936 q 300 836 300 889 l 300 147 q 308 71 300 94 q 340 39 317 47 q 413 28 363 31 l 413 0 q 236 4 349 4 q 58 0 117 4 l 58 28 q 131 39 108 31 q 163 71 154 47 q 171 147 171 94 l 171 836 q 163 913 171 889 q 131 944 154 936 q 58 956 108 953 l 58 983 q 236 979 117 979 q 413 983 347 979 l 413 956 m 124 1253 q 189 1239 158 1253 q 263 1197 219 1225 q 337 1158 311 1169 q 393 1146 363 1146 q 479 1224 457 1146 l 500 1219 q 450 1113 494 1153 q 346 1072 406 1072 q 281 1086 311 1072 q 207 1128 250 1100 q 133 1167 158 1156 q 76 1179 107 1179 q 24 1162 44 1179 q -10 1101 3 1144 l -31 1106 q 19 1213 -25 1172 q 124 1253 64 1253 z "},"J":{"ha":453,"x_min":-28,"x_max":404,"o":"m -28 -235 q 116 -162 69 -232 q 163 72 163 -93 l 163 836 q 154 913 163 889 q 123 944 146 936 q 50 956 100 953 l 50 983 q 225 979 108 979 q 404 983 339 979 l 404 956 q 331 944 354 953 q 300 913 308 936 q 292 836 292 889 l 292 328 q 288 119 292 210 q 268 -35 283 28 q 166 -199 243 -136 q -28 -261 89 -261 l -28 -235 z "},"Ĵ":{"ha":453,"x_min":-44,"x_max":500,"o":"m -28 -235 q 116 -162 69 -232 q 163 72 163 -93 l 163 836 q 154 913 163 889 q 123 944 146 936 q 50 956 100 953 l 50 983 q 225 979 108 979 q 404 983 339 979 l 404 956 q 331 944 354 953 q 300 913 308 936 q 292 836 292 889 l 292 328 q 288 119 292 210 q 268 -35 283 28 q 166 -199 243 -136 q -28 -261 89 -261 l -28 -235 m 240 1272 q 342 1169 274 1218 q 500 1089 411 1119 l 493 1069 q 328 1114 410 1088 q 200 1167 247 1140 q 95 1114 161 1140 q -37 1069 29 1088 l -44 1089 q 113 1169 44 1119 q 215 1272 182 1218 l 240 1272 z "},"K":{"ha":910,"x_min":58,"x_max":908,"o":"m 786 113 q 838 58 810 78 q 908 28 867 38 l 908 0 q 742 4 842 4 q 599 0 667 4 l 599 28 q 647 36 632 29 q 663 57 663 43 q 649 90 663 71 l 446 396 q 378 476 406 457 q 300 497 350 494 l 300 147 q 308 71 300 94 q 340 39 317 47 q 413 28 363 31 l 413 0 q 236 4 349 4 q 58 0 117 4 l 58 28 q 131 39 108 31 q 163 71 154 47 q 171 147 171 94 l 171 836 q 163 913 171 889 q 131 944 154 936 q 58 956 108 953 l 58 983 q 236 979 117 979 q 413 983 347 979 l 413 956 q 340 944 363 953 q 308 913 317 936 q 300 836 300 889 l 300 525 q 458 603 401 529 l 592 772 q 663 906 663 860 q 576 956 663 954 l 576 983 q 736 979 656 979 q 854 983 813 979 l 854 956 q 768 926 808 949 q 690 854 728 903 l 464 564 l 786 113 z "},"Ǩ":{"ha":910,"x_min":58,"x_max":908,"o":"m 786 113 q 838 58 810 78 q 908 28 867 38 l 908 0 q 742 4 842 4 q 599 0 667 4 l 599 28 q 647 36 632 29 q 663 57 663 43 q 649 90 663 71 l 446 396 q 378 476 406 457 q 300 497 350 494 l 300 147 q 308 71 300 94 q 340 39 317 47 q 413 28 363 31 l 413 0 q 236 4 349 4 q 58 0 117 4 l 58 28 q 131 39 108 31 q 163 71 154 47 q 171 147 171 94 l 171 836 q 163 913 171 889 q 131 944 154 936 q 58 956 108 953 l 58 983 q 236 979 117 979 q 413 983 347 979 l 413 956 q 340 944 363 953 q 308 913 317 936 q 300 836 300 889 l 300 525 q 458 603 401 529 l 592 772 q 663 906 663 860 q 576 956 663 954 l 576 983 q 736 979 656 979 q 854 983 813 979 l 854 956 q 768 926 808 949 q 690 854 728 903 l 464 564 l 786 113 m 747 1267 q 590 1187 658 1236 q 488 1083 521 1138 l 463 1083 q 360 1187 429 1138 q 203 1267 292 1236 l 210 1286 q 374 1242 293 1268 q 503 1189 456 1215 q 608 1242 542 1215 q 740 1286 674 1268 l 747 1267 z "},"Ķ":{"ha":910,"x_min":58,"x_max":908,"o":"m 786 113 q 838 58 810 78 q 908 28 867 38 l 908 0 q 742 4 842 4 q 599 0 667 4 l 599 28 q 647 36 632 29 q 663 57 663 43 q 649 90 663 71 l 446 396 q 378 476 406 457 q 300 497 350 494 l 300 147 q 308 71 300 94 q 340 39 317 47 q 413 28 363 31 l 413 0 q 236 4 349 4 q 58 0 117 4 l 58 28 q 131 39 108 31 q 163 71 154 47 q 171 147 171 94 l 171 836 q 163 913 171 889 q 131 944 154 936 q 58 956 108 953 l 58 983 q 236 979 117 979 q 413 983 347 979 l 413 956 q 340 944 363 953 q 308 913 317 936 q 300 836 300 889 l 300 525 q 458 603 401 529 l 592 772 q 663 906 663 860 q 576 956 663 954 l 576 983 q 736 979 656 979 q 854 983 813 979 l 854 956 q 768 926 808 949 q 690 854 728 903 l 464 564 l 786 113 m 471 -96 q 536 -124 511 -96 q 561 -193 561 -151 q 536 -278 561 -246 q 447 -335 511 -311 l 438 -310 q 499 -276 474 -299 q 524 -222 525 -253 q 465 -244 499 -244 q 413 -224 433 -244 q 393 -169 393 -204 q 416 -117 393 -139 q 471 -96 439 -96 z "},"L":{"ha":817,"x_min":58,"x_max":779,"o":"m 413 956 q 340 944 363 953 q 308 913 317 936 q 300 836 300 889 l 300 147 q 308 71 300 94 q 340 40 317 47 q 413 32 363 32 l 514 32 q 645 56 600 32 q 711 135 690 81 q 742 292 732 189 l 774 292 q 769 178 769 249 q 779 0 769 99 q 461 4 685 4 q 58 0 194 4 l 58 28 q 131 39 108 31 q 163 71 154 47 q 171 147 171 94 l 171 836 q 163 913 171 889 q 131 944 154 936 q 58 956 108 953 l 58 983 q 236 979 117 979 q 413 983 347 979 l 413 956 z "},"Ĺ":{"ha":817,"x_min":58,"x_max":779,"o":"m 413 956 q 340 944 363 953 q 308 913 317 936 q 300 836 300 889 l 300 147 q 308 71 300 94 q 340 40 317 47 q 413 32 363 32 l 514 32 q 645 56 600 32 q 711 135 690 81 q 742 292 732 189 l 774 292 q 769 178 769 249 q 779 0 769 99 q 461 4 685 4 q 58 0 194 4 l 58 28 q 131 39 108 31 q 163 71 154 47 q 171 147 171 94 l 171 836 q 163 913 171 889 q 131 944 154 936 q 58 956 108 953 l 58 983 q 236 979 117 979 q 413 983 347 979 l 413 956 m 385 1286 q 426 1300 407 1300 q 469 1276 453 1300 q 478 1250 478 1264 q 440 1196 478 1219 q 340 1151 411 1178 q 161 1072 236 1110 l 151 1090 q 249 1170 208 1133 q 300 1215 290 1207 q 385 1286 351 1264 z "},"Ľ":{"ha":817,"x_min":58,"x_max":779,"o":"m 413 956 q 340 944 363 953 q 308 913 317 936 q 300 836 300 889 l 300 147 q 308 71 300 94 q 340 40 317 47 q 413 32 363 32 l 514 32 q 645 56 600 32 q 711 135 690 81 q 742 292 732 189 l 774 292 q 769 178 769 249 q 779 0 769 99 q 461 4 685 4 q 58 0 194 4 l 58 28 q 131 39 108 31 q 163 71 154 47 q 171 147 171 94 l 171 836 q 163 913 171 889 q 131 944 154 936 q 58 956 108 953 l 58 983 q 236 979 117 979 q 413 983 347 979 l 413 956 m 654 992 q 661 942 661 975 q 635 844 661 901 q 540 664 608 786 l 521 669 q 549 899 549 847 q 540 941 549 928 q 507 954 532 954 l 507 983 q 564 981 529 981 q 654 992 613 981 z "},"Ļ":{"ha":817,"x_min":58,"x_max":779,"o":"m 413 956 q 340 944 363 953 q 308 913 317 936 q 300 836 300 889 l 300 147 q 308 71 300 94 q 340 40 317 47 q 413 32 363 32 l 514 32 q 645 56 600 32 q 711 135 690 81 q 742 292 732 189 l 774 292 q 769 178 769 249 q 779 0 769 99 q 461 4 685 4 q 58 0 194 4 l 58 28 q 131 39 108 31 q 163 71 154 47 q 171 147 171 94 l 171 836 q 163 913 171 889 q 131 944 154 936 q 58 956 108 953 l 58 983 q 236 979 117 979 q 413 983 347 979 l 413 956 m 451 -96 q 517 -124 492 -96 q 542 -193 542 -151 q 517 -278 542 -246 q 428 -335 492 -311 l 418 -310 q 480 -276 454 -299 q 504 -222 506 -253 q 446 -244 479 -244 q 394 -224 414 -244 q 374 -169 374 -204 q 397 -117 374 -139 q 451 -96 419 -96 z "},"Ŀ":{"ha":817,"x_min":58,"x_max":779,"o":"m 413 956 q 340 944 363 953 q 308 913 317 936 q 300 836 300 889 l 300 147 q 308 71 300 94 q 340 40 317 47 q 413 32 363 32 l 514 32 q 645 56 600 32 q 711 135 690 81 q 742 292 732 189 l 774 292 q 769 178 769 249 q 779 0 769 99 q 461 4 685 4 q 58 0 194 4 l 58 28 q 131 39 108 31 q 163 71 154 47 q 171 147 171 94 l 171 836 q 163 913 171 889 q 131 944 154 936 q 58 956 108 953 l 58 983 q 236 979 117 979 q 413 983 347 979 l 413 956 m 653 692 q 715 665 689 692 q 742 603 742 639 q 715 540 742 567 q 653 514 689 514 q 590 540 617 514 q 564 603 564 567 q 590 665 564 639 q 653 692 617 692 z "},"Ł":{"ha":817,"x_min":31,"x_max":779,"o":"m 413 956 q 340 944 363 953 q 308 913 317 936 q 300 836 300 889 l 300 147 q 308 71 300 94 q 340 40 317 47 q 413 32 363 32 l 514 32 q 645 56 600 32 q 711 135 690 81 q 742 292 732 189 l 774 292 q 769 178 769 249 q 779 0 769 99 q 461 4 685 4 q 58 0 194 4 l 58 28 q 131 39 108 31 q 163 71 154 47 q 171 147 171 94 l 171 836 q 163 913 171 889 q 131 944 154 936 q 58 956 108 953 l 58 983 q 236 979 117 979 q 413 983 347 979 l 413 956 m 629 657 l 629 625 l 235 396 l 235 410 l 31 292 l 31 324 l 235 442 l 235 428 l 629 657 z "},"M":{"ha":1210,"x_min":58,"x_max":1151,"o":"m 1151 956 q 1078 944 1101 953 q 1047 913 1056 936 q 1039 836 1039 889 l 1039 147 q 1047 71 1039 94 q 1078 39 1056 47 q 1151 28 1101 31 l 1151 0 q 975 4 1088 4 q 797 0 856 4 l 797 28 q 870 39 847 31 q 901 71 893 47 q 910 147 910 94 l 910 892 l 575 -7 l 553 -7 l 203 894 l 203 161 q 212 81 203 107 q 247 42 221 54 q 329 28 274 31 l 329 0 q 188 4 279 4 q 58 0 104 4 l 58 28 q 131 42 107 31 q 163 81 154 54 q 171 161 171 108 l 171 836 q 163 913 171 889 q 131 944 154 936 q 58 956 108 953 l 58 983 q 188 979 104 979 q 306 983 260 979 l 611 179 l 910 979 l 975 979 q 1151 983 1088 979 l 1151 956 z "},"N":{"ha":981,"x_min":58,"x_max":931,"o":"m 931 956 q 858 941 882 953 q 826 902 835 929 q 818 822 818 875 l 818 -7 l 786 -7 l 203 894 l 203 161 q 212 81 203 107 q 247 42 221 54 q 329 28 274 31 l 329 0 q 188 4 279 4 q 58 0 104 4 l 58 28 q 131 42 107 31 q 163 81 154 54 q 171 161 171 108 l 171 836 q 163 913 171 889 q 131 944 154 936 q 58 956 108 953 l 58 983 q 188 979 104 979 q 296 983 250 979 l 786 228 l 786 822 q 777 903 786 876 q 742 941 768 929 q 660 956 715 953 l 660 983 q 801 979 710 979 q 931 983 885 979 l 931 956 z "},"Ń":{"ha":981,"x_min":58,"x_max":931,"o":"m 931 956 q 858 941 882 953 q 826 902 835 929 q 818 822 818 875 l 818 -7 l 786 -7 l 203 894 l 203 161 q 212 81 203 107 q 247 42 221 54 q 329 28 274 31 l 329 0 q 188 4 279 4 q 58 0 104 4 l 58 28 q 131 42 107 31 q 163 81 154 54 q 171 161 171 108 l 171 836 q 163 913 171 889 q 131 944 154 936 q 58 956 108 953 l 58 983 q 188 979 104 979 q 296 983 250 979 l 786 228 l 786 822 q 777 903 786 876 q 742 941 768 929 q 660 956 715 953 l 660 983 q 801 979 710 979 q 931 983 885 979 l 931 956 m 668 1286 q 710 1300 690 1300 q 753 1276 736 1300 q 761 1250 761 1264 q 724 1196 761 1219 q 624 1151 694 1178 q 444 1072 519 1110 l 435 1090 q 533 1170 492 1133 q 583 1215 574 1207 q 668 1286 635 1264 z "},"Ň":{"ha":981,"x_min":58,"x_max":931,"o":"m 931 956 q 858 941 882 953 q 826 902 835 929 q 818 822 818 875 l 818 -7 l 786 -7 l 203 894 l 203 161 q 212 81 203 107 q 247 42 221 54 q 329 28 274 31 l 329 0 q 188 4 279 4 q 58 0 104 4 l 58 28 q 131 42 107 31 q 163 81 154 54 q 171 161 171 108 l 171 836 q 163 913 171 889 q 131 944 154 936 q 58 956 108 953 l 58 983 q 188 979 104 979 q 296 983 250 979 l 786 228 l 786 822 q 777 903 786 876 q 742 941 768 929 q 660 956 715 953 l 660 983 q 801 979 710 979 q 931 983 885 979 l 931 956 m 788 1267 q 630 1187 699 1236 q 528 1083 561 1138 l 503 1083 q 401 1187 469 1138 q 243 1267 332 1236 l 250 1286 q 415 1242 333 1268 q 543 1189 496 1215 q 648 1242 582 1215 q 781 1286 714 1268 l 788 1267 z "},"Ņ":{"ha":981,"x_min":58,"x_max":931,"o":"m 931 956 q 858 941 882 953 q 826 902 835 929 q 818 822 818 875 l 818 -7 l 786 -7 l 203 894 l 203 161 q 212 81 203 107 q 247 42 221 54 q 329 28 274 31 l 329 0 q 188 4 279 4 q 58 0 104 4 l 58 28 q 131 42 107 31 q 163 81 154 54 q 171 161 171 108 l 171 836 q 163 913 171 889 q 131 944 154 936 q 58 956 108 953 l 58 983 q 188 979 104 979 q 296 983 250 979 l 786 228 l 786 822 q 777 903 786 876 q 742 941 768 929 q 660 956 715 953 l 660 983 q 801 979 710 979 q 931 983 885 979 l 931 956 m 500 -96 q 565 -124 540 -96 q 590 -193 590 -151 q 565 -278 590 -246 q 476 -335 540 -311 l 467 -310 q 528 -276 503 -299 q 553 -222 554 -253 q 494 -244 528 -244 q 442 -224 463 -244 q 422 -169 422 -204 q 445 -117 422 -139 q 500 -96 468 -96 z "},"Ŋ":{"ha":979,"x_min":58,"x_max":931,"o":"m 801 979 q 931 983 885 979 l 931 956 q 858 944 881 953 q 826 913 835 936 q 818 836 818 889 l 818 126 q 766 -178 818 -96 q 621 -261 714 -261 q 531 -240 567 -261 q 496 -175 496 -219 q 515 -124 496 -143 q 561 -106 533 -106 q 610 -125 589 -106 q 631 -171 631 -144 q 620 -207 631 -189 q 594 -235 610 -225 q 626 -237 611 -237 q 783 -3 765 -237 l 203 894 l 203 147 q 211 71 203 94 q 242 39 219 47 q 315 28 265 31 l 315 0 q 188 4 265 4 q 58 0 104 4 l 58 28 q 131 39 108 31 q 163 71 154 47 q 171 147 171 94 l 171 836 q 163 913 171 889 q 131 944 154 936 q 58 956 108 953 l 58 983 q 188 979 104 979 q 315 983 263 979 l 786 256 l 786 836 q 778 913 786 889 q 747 944 769 936 q 674 956 724 953 l 674 983 q 801 979 724 979 z "},"Ñ":{"ha":981,"x_min":58,"x_max":931,"o":"m 931 956 q 858 941 882 953 q 826 902 835 929 q 818 822 818 875 l 818 -7 l 786 -7 l 203 894 l 203 161 q 212 81 203 107 q 247 42 221 54 q 329 28 274 31 l 329 0 q 188 4 279 4 q 58 0 104 4 l 58 28 q 131 42 107 31 q 163 81 154 54 q 171 161 171 108 l 171 836 q 163 913 171 889 q 131 944 154 936 q 58 956 108 953 l 58 983 q 188 979 104 979 q 296 983 250 979 l 786 228 l 786 822 q 777 903 786 876 q 742 941 768 929 q 660 956 715 953 l 660 983 q 801 979 710 979 q 931 983 885 979 l 931 956 m 407 1253 q 472 1239 442 1253 q 546 1197 503 1225 q 620 1158 594 1169 q 676 1146 646 1146 q 763 1224 740 1146 l 783 1219 q 733 1113 778 1153 q 629 1072 689 1072 q 564 1086 594 1072 q 490 1128 533 1100 q 416 1167 442 1156 q 360 1179 390 1179 q 307 1162 328 1179 q 274 1101 286 1144 l 253 1106 q 303 1213 258 1172 q 407 1253 347 1253 z "},"O":{"ha":1029,"x_min":74,"x_max":956,"o":"m 515 1003 q 747 943 647 1003 q 901 770 846 883 q 956 500 956 657 q 899 229 956 347 q 742 46 843 111 q 514 -19 642 -19 q 283 40 382 -19 q 128 213 183 100 q 74 483 74 326 q 130 754 74 636 q 287 938 186 872 q 515 1003 388 1003 m 510 978 q 353 916 421 978 q 249 743 286 854 q 213 489 213 632 q 253 235 213 344 q 364 65 294 125 q 519 6 433 6 q 676 67 608 6 q 780 240 743 129 q 817 494 817 351 q 776 749 817 639 q 665 918 735 858 q 510 978 596 978 z "},"Ó":{"ha":1029,"x_min":74,"x_max":956,"o":"m 515 1003 q 747 943 647 1003 q 901 770 846 883 q 956 500 956 657 q 899 229 956 347 q 742 46 843 111 q 514 -19 642 -19 q 283 40 382 -19 q 128 213 183 100 q 74 483 74 326 q 130 754 74 636 q 287 938 186 872 q 515 1003 388 1003 m 510 978 q 353 916 421 978 q 249 743 286 854 q 213 489 213 632 q 253 235 213 344 q 364 65 294 125 q 519 6 433 6 q 676 67 608 6 q 780 240 743 129 q 817 494 817 351 q 776 749 817 639 q 665 918 735 858 q 510 978 596 978 m 661 1286 q 703 1300 683 1300 q 746 1276 729 1300 q 754 1250 754 1264 q 717 1196 754 1219 q 617 1151 688 1178 q 438 1072 513 1110 l 428 1090 q 526 1170 485 1133 q 576 1215 567 1207 q 661 1286 628 1264 z "},"Ŏ":{"ha":1029,"x_min":74,"x_max":956,"o":"m 515 1003 q 747 943 647 1003 q 901 770 846 883 q 956 500 956 657 q 899 229 956 347 q 742 46 843 111 q 514 -19 642 -19 q 283 40 382 -19 q 128 213 183 100 q 74 483 74 326 q 130 754 74 636 q 287 938 186 872 q 515 1003 388 1003 m 510 978 q 353 916 421 978 q 249 743 286 854 q 213 489 213 632 q 253 235 213 344 q 364 65 294 125 q 519 6 433 6 q 676 67 608 6 q 780 240 743 129 q 817 494 817 351 q 776 749 817 639 q 665 918 735 858 q 510 978 596 978 m 789 1247 q 678 1134 749 1182 q 513 1086 608 1086 q 347 1134 417 1086 q 236 1247 276 1182 l 254 1261 q 358 1198 293 1224 q 513 1172 422 1172 q 668 1199 603 1172 q 772 1263 733 1225 l 789 1247 z "},"Ô":{"ha":1029,"x_min":74,"x_max":956,"o":"m 515 1003 q 747 943 647 1003 q 901 770 846 883 q 956 500 956 657 q 899 229 956 347 q 742 46 843 111 q 514 -19 642 -19 q 283 40 382 -19 q 128 213 183 100 q 74 483 74 326 q 130 754 74 636 q 287 938 186 872 q 515 1003 388 1003 m 510 978 q 353 916 421 978 q 249 743 286 854 q 213 489 213 632 q 253 235 213 344 q 364 65 294 125 q 519 6 433 6 q 676 67 608 6 q 780 240 743 129 q 817 494 817 351 q 776 749 817 639 q 665 918 735 858 q 510 978 596 978 m 525 1272 q 627 1169 558 1218 q 785 1089 696 1119 l 778 1069 q 613 1114 694 1088 q 485 1167 532 1140 q 380 1114 446 1140 q 247 1069 314 1088 l 240 1089 q 398 1169 329 1119 q 500 1272 467 1218 l 525 1272 z "},"Ố":{"ha":1029,"x_min":74,"x_max":956,"o":"m 515 1003 q 747 943 647 1003 q 901 770 846 883 q 956 500 956 657 q 899 229 956 347 q 742 46 843 111 q 514 -19 642 -19 q 283 40 382 -19 q 128 213 183 100 q 74 483 74 326 q 130 754 74 636 q 287 938 186 872 q 515 1003 388 1003 m 510 978 q 353 916 421 978 q 249 743 286 854 q 213 489 213 632 q 253 235 213 344 q 364 65 294 125 q 519 6 433 6 q 676 67 608 6 q 780 240 743 129 q 817 494 817 351 q 776 749 817 639 q 665 918 735 858 q 510 978 596 978 m 525 1272 q 627 1169 558 1218 q 785 1089 696 1119 l 778 1069 q 613 1114 694 1088 q 485 1167 532 1140 q 380 1114 446 1140 q 247 1069 314 1088 l 240 1089 q 398 1169 329 1119 q 500 1272 467 1218 l 525 1272 m 661 1592 q 703 1606 683 1606 q 746 1582 729 1606 q 754 1556 754 1569 q 717 1501 754 1525 q 617 1457 688 1483 q 438 1378 513 1415 l 428 1396 q 526 1476 485 1439 q 576 1521 567 1513 q 661 1592 628 1569 z "},"Ộ":{"ha":1029,"x_min":74,"x_max":956,"o":"m 515 1003 q 747 943 647 1003 q 901 770 846 883 q 956 500 956 657 q 899 229 956 347 q 742 46 843 111 q 514 -19 642 -19 q 283 40 382 -19 q 128 213 183 100 q 74 483 74 326 q 130 754 74 636 q 287 938 186 872 q 515 1003 388 1003 m 510 978 q 353 916 421 978 q 249 743 286 854 q 213 489 213 632 q 253 235 213 344 q 364 65 294 125 q 519 6 433 6 q 676 67 608 6 q 780 240 743 129 q 817 494 817 351 q 776 749 817 639 q 665 918 735 858 q 510 978 596 978 m 525 1272 q 627 1169 558 1218 q 785 1089 696 1119 l 778 1069 q 613 1114 694 1088 q 485 1167 532 1140 q 380 1114 446 1140 q 247 1069 314 1088 l 240 1089 q 398 1169 329 1119 q 500 1272 467 1218 l 525 1272 m 517 -251 q 460 -229 483 -251 q 436 -174 436 -207 q 458 -118 436 -140 q 517 -96 481 -96 q 575 -119 553 -96 q 597 -175 597 -142 q 574 -231 597 -210 q 517 -251 550 -251 z "},"Ồ":{"ha":1029,"x_min":74,"x_max":956,"o":"m 515 1003 q 747 943 647 1003 q 901 770 846 883 q 956 500 956 657 q 899 229 956 347 q 742 46 843 111 q 514 -19 642 -19 q 283 40 382 -19 q 128 213 183 100 q 74 483 74 326 q 130 754 74 636 q 287 938 186 872 q 515 1003 388 1003 m 510 978 q 353 916 421 978 q 249 743 286 854 q 213 489 213 632 q 253 235 213 344 q 364 65 294 125 q 519 6 433 6 q 676 67 608 6 q 780 240 743 129 q 817 494 817 351 q 776 749 817 639 q 665 918 735 858 q 510 978 596 978 m 525 1272 q 627 1169 558 1218 q 785 1089 696 1119 l 778 1069 q 613 1114 694 1088 q 485 1167 532 1140 q 380 1114 446 1140 q 247 1069 314 1088 l 240 1089 q 398 1169 329 1119 q 500 1272 467 1218 l 525 1272 m 372 1592 q 457 1521 406 1569 q 508 1476 467 1513 q 606 1396 549 1439 l 596 1378 q 417 1457 521 1415 q 317 1501 346 1483 q 279 1556 279 1525 q 288 1582 279 1569 q 331 1606 304 1606 q 372 1592 350 1606 z "},"Ổ":{"ha":1029,"x_min":74,"x_max":956,"o":"m 515 1003 q 747 943 647 1003 q 901 770 846 883 q 956 500 956 657 q 899 229 956 347 q 742 46 843 111 q 514 -19 642 -19 q 283 40 382 -19 q 128 213 183 100 q 74 483 74 326 q 130 754 74 636 q 287 938 186 872 q 515 1003 388 1003 m 510 978 q 353 916 421 978 q 249 743 286 854 q 213 489 213 632 q 253 235 213 344 q 364 65 294 125 q 519 6 433 6 q 676 67 608 6 q 780 240 743 129 q 817 494 817 351 q 776 749 817 639 q 665 918 735 858 q 510 978 596 978 m 525 1272 q 627 1169 558 1218 q 785 1089 696 1119 l 778 1069 q 613 1114 694 1088 q 485 1167 532 1140 q 380 1114 446 1140 q 247 1069 314 1088 l 240 1089 q 398 1169 329 1119 q 500 1272 467 1218 l 525 1272 m 718 1346 q 810 1450 810 1382 q 783 1510 810 1489 q 713 1531 756 1531 q 646 1508 665 1531 q 678 1490 667 1504 q 690 1451 690 1475 q 672 1407 690 1424 q 628 1390 654 1390 q 585 1406 601 1390 q 568 1449 568 1422 q 583 1495 568 1474 q 622 1531 599 1517 q 739 1558 671 1558 q 855 1533 804 1558 q 906 1458 906 1508 q 863 1381 906 1414 q 746 1333 821 1349 l 746 1269 l 718 1269 l 718 1346 z "},"Ỗ":{"ha":1029,"x_min":74,"x_max":956,"o":"m 515 1003 q 747 943 647 1003 q 901 770 846 883 q 956 500 956 657 q 899 229 956 347 q 742 46 843 111 q 514 -19 642 -19 q 283 40 382 -19 q 128 213 183 100 q 74 483 74 326 q 130 754 74 636 q 287 938 186 872 q 515 1003 388 1003 m 510 978 q 353 916 421 978 q 249 743 286 854 q 213 489 213 632 q 253 235 213 344 q 364 65 294 125 q 519 6 433 6 q 676 67 608 6 q 780 240 743 129 q 817 494 817 351 q 776 749 817 639 q 665 918 735 858 q 510 978 596 978 m 525 1272 q 627 1169 558 1218 q 785 1089 696 1119 l 778 1069 q 613 1114 694 1088 q 485 1167 532 1140 q 380 1114 446 1140 q 247 1069 314 1088 l 240 1089 q 398 1169 329 1119 q 500 1272 467 1218 l 525 1272 m 400 1558 q 465 1544 435 1558 q 539 1503 496 1531 q 613 1463 588 1475 q 669 1451 639 1451 q 756 1529 733 1451 l 776 1525 q 726 1418 771 1458 q 622 1378 682 1378 q 557 1392 588 1378 q 483 1433 526 1406 q 409 1473 435 1461 q 353 1485 383 1485 q 300 1467 321 1485 q 267 1407 279 1450 l 246 1411 q 296 1518 251 1478 q 400 1558 340 1558 z "},"Ö":{"ha":1029,"x_min":74,"x_max":956,"o":"m 515 1003 q 747 943 647 1003 q 901 770 846 883 q 956 500 956 657 q 899 229 956 347 q 742 46 843 111 q 514 -19 642 -19 q 283 40 382 -19 q 128 213 183 100 q 74 483 74 326 q 130 754 74 636 q 287 938 186 872 q 515 1003 388 1003 m 510 978 q 353 916 421 978 q 249 743 286 854 q 213 489 213 632 q 253 235 213 344 q 364 65 294 125 q 519 6 433 6 q 676 67 608 6 q 780 240 743 129 q 817 494 817 351 q 776 749 817 639 q 665 918 735 858 q 510 978 596 978 m 365 1233 q 422 1209 397 1233 q 446 1153 446 1185 q 422 1096 446 1119 q 365 1072 397 1072 q 308 1096 332 1072 q 285 1153 285 1119 q 308 1209 285 1185 q 365 1233 332 1233 m 660 1233 q 716 1209 692 1233 q 740 1153 740 1185 q 716 1096 740 1119 q 660 1072 692 1072 q 603 1096 626 1072 q 579 1153 579 1119 q 603 1209 579 1185 q 660 1233 626 1233 z "},"Ọ":{"ha":1029,"x_min":74,"x_max":956,"o":"m 515 1003 q 747 943 647 1003 q 901 770 846 883 q 956 500 956 657 q 899 229 956 347 q 742 46 843 111 q 514 -19 642 -19 q 283 40 382 -19 q 128 213 183 100 q 74 483 74 326 q 130 754 74 636 q 287 938 186 872 q 515 1003 388 1003 m 510 978 q 353 916 421 978 q 249 743 286 854 q 213 489 213 632 q 253 235 213 344 q 364 65 294 125 q 519 6 433 6 q 676 67 608 6 q 780 240 743 129 q 817 494 817 351 q 776 749 817 639 q 665 918 735 858 q 510 978 596 978 m 517 -251 q 460 -229 483 -251 q 436 -174 436 -207 q 458 -118 436 -140 q 517 -96 481 -96 q 575 -119 553 -96 q 597 -175 597 -142 q 574 -231 597 -210 q 517 -251 550 -251 z "},"Ò":{"ha":1029,"x_min":74,"x_max":956,"o":"m 515 1003 q 747 943 647 1003 q 901 770 846 883 q 956 500 956 657 q 899 229 956 347 q 742 46 843 111 q 514 -19 642 -19 q 283 40 382 -19 q 128 213 183 100 q 74 483 74 326 q 130 754 74 636 q 287 938 186 872 q 515 1003 388 1003 m 510 978 q 353 916 421 978 q 249 743 286 854 q 213 489 213 632 q 253 235 213 344 q 364 65 294 125 q 519 6 433 6 q 676 67 608 6 q 780 240 743 129 q 817 494 817 351 q 776 749 817 639 q 665 918 735 858 q 510 978 596 978 m 372 1286 q 457 1215 406 1264 q 508 1170 467 1207 q 606 1090 549 1133 l 596 1072 q 417 1151 521 1110 q 317 1196 346 1178 q 279 1250 279 1219 q 288 1276 279 1264 q 331 1300 304 1300 q 372 1286 350 1300 z "},"Ỏ":{"ha":1029,"x_min":74,"x_max":956,"o":"m 515 1003 q 747 943 647 1003 q 901 770 846 883 q 956 500 956 657 q 899 229 956 347 q 742 46 843 111 q 514 -19 642 -19 q 283 40 382 -19 q 128 213 183 100 q 74 483 74 326 q 130 754 74 636 q 287 938 186 872 q 515 1003 388 1003 m 510 978 q 353 916 421 978 q 249 743 286 854 q 213 489 213 632 q 253 235 213 344 q 364 65 294 125 q 519 6 433 6 q 676 67 608 6 q 780 240 743 129 q 817 494 817 351 q 776 749 817 639 q 665 918 735 858 q 510 978 596 978 m 499 1140 q 590 1244 590 1176 q 563 1304 590 1283 q 493 1325 536 1325 q 426 1303 446 1325 q 459 1284 447 1299 q 471 1246 471 1269 q 453 1201 471 1218 q 408 1185 435 1185 q 365 1201 382 1185 q 349 1243 349 1217 q 364 1290 349 1268 q 403 1325 379 1311 q 519 1353 451 1353 q 635 1328 585 1353 q 686 1253 686 1303 q 644 1176 686 1208 q 526 1128 601 1143 l 526 1064 l 499 1064 l 499 1140 z "},"Ơ":{"ha":1029,"x_min":74,"x_max":976,"o":"m 732 951 q 897 778 838 894 q 956 500 956 663 q 899 229 956 347 q 742 46 843 111 q 514 -19 642 -19 q 283 40 382 -19 q 128 213 183 100 q 74 483 74 326 q 130 754 74 636 q 287 938 186 872 q 515 1003 388 1003 q 676 976 606 1003 q 785 988 740 976 q 869 1024 831 1000 q 818 1118 818 1065 q 839 1176 818 1151 q 899 1200 860 1200 q 956 1178 935 1200 q 976 1124 976 1156 q 952 1057 976 1089 q 886 1000 928 1025 q 732 951 817 961 m 519 6 q 676 67 608 6 q 780 240 743 129 q 817 494 817 351 q 776 749 817 639 q 665 918 735 858 q 510 978 596 978 q 353 916 421 978 q 249 743 286 854 q 213 489 213 632 q 253 235 213 344 q 364 65 294 125 q 519 6 433 6 z "},"Ớ":{"ha":1029,"x_min":74,"x_max":976,"o":"m 732 951 q 897 778 838 894 q 956 500 956 663 q 899 229 956 347 q 742 46 843 111 q 514 -19 642 -19 q 283 40 382 -19 q 128 213 183 100 q 74 483 74 326 q 130 754 74 636 q 287 938 186 872 q 515 1003 388 1003 q 676 976 606 1003 q 785 988 740 976 q 869 1024 831 1000 q 818 1118 818 1065 q 839 1176 818 1151 q 899 1200 860 1200 q 956 1178 935 1200 q 976 1124 976 1156 q 952 1057 976 1089 q 886 1000 928 1025 q 732 951 817 961 m 519 6 q 676 67 608 6 q 780 240 743 129 q 817 494 817 351 q 776 749 817 639 q 665 918 735 858 q 510 978 596 978 q 353 916 421 978 q 249 743 286 854 q 213 489 213 632 q 253 235 213 344 q 364 65 294 125 q 519 6 433 6 m 661 1286 q 703 1300 683 1300 q 746 1276 729 1300 q 754 1250 754 1264 q 717 1196 754 1219 q 617 1151 688 1178 q 438 1072 513 1110 l 428 1090 q 526 1170 485 1133 q 576 1215 567 1207 q 661 1286 628 1264 z "},"Ợ":{"ha":1029,"x_min":74,"x_max":976,"o":"m 732 951 q 897 778 838 894 q 956 500 956 663 q 899 229 956 347 q 742 46 843 111 q 514 -19 642 -19 q 283 40 382 -19 q 128 213 183 100 q 74 483 74 326 q 130 754 74 636 q 287 938 186 872 q 515 1003 388 1003 q 676 976 606 1003 q 785 988 740 976 q 869 1024 831 1000 q 818 1118 818 1065 q 839 1176 818 1151 q 899 1200 860 1200 q 956 1178 935 1200 q 976 1124 976 1156 q 952 1057 976 1089 q 886 1000 928 1025 q 732 951 817 961 m 519 6 q 676 67 608 6 q 780 240 743 129 q 817 494 817 351 q 776 749 817 639 q 665 918 735 858 q 510 978 596 978 q 353 916 421 978 q 249 743 286 854 q 213 489 213 632 q 253 235 213 344 q 364 65 294 125 q 519 6 433 6 m 517 -251 q 460 -229 483 -251 q 436 -174 436 -207 q 458 -118 436 -140 q 517 -96 481 -96 q 575 -119 553 -96 q 597 -175 597 -142 q 574 -231 597 -210 q 517 -251 550 -251 z "},"Ờ":{"ha":1029,"x_min":74,"x_max":976,"o":"m 732 951 q 897 778 838 894 q 956 500 956 663 q 899 229 956 347 q 742 46 843 111 q 514 -19 642 -19 q 283 40 382 -19 q 128 213 183 100 q 74 483 74 326 q 130 754 74 636 q 287 938 186 872 q 515 1003 388 1003 q 676 976 606 1003 q 785 988 740 976 q 869 1024 831 1000 q 818 1118 818 1065 q 839 1176 818 1151 q 899 1200 860 1200 q 956 1178 935 1200 q 976 1124 976 1156 q 952 1057 976 1089 q 886 1000 928 1025 q 732 951 817 961 m 519 6 q 676 67 608 6 q 780 240 743 129 q 817 494 817 351 q 776 749 817 639 q 665 918 735 858 q 510 978 596 978 q 353 916 421 978 q 249 743 286 854 q 213 489 213 632 q 253 235 213 344 q 364 65 294 125 q 519 6 433 6 m 372 1286 q 457 1215 406 1264 q 508 1170 467 1207 q 606 1090 549 1133 l 596 1072 q 417 1151 521 1110 q 317 1196 346 1178 q 279 1250 279 1219 q 288 1276 279 1264 q 331 1300 304 1300 q 372 1286 350 1300 z "},"Ở":{"ha":1029,"x_min":74,"x_max":976,"o":"m 732 951 q 897 778 838 894 q 956 500 956 663 q 899 229 956 347 q 742 46 843 111 q 514 -19 642 -19 q 283 40 382 -19 q 128 213 183 100 q 74 483 74 326 q 130 754 74 636 q 287 938 186 872 q 515 1003 388 1003 q 676 976 606 1003 q 785 988 740 976 q 869 1024 831 1000 q 818 1118 818 1065 q 839 1176 818 1151 q 899 1200 860 1200 q 956 1178 935 1200 q 976 1124 976 1156 q 952 1057 976 1089 q 886 1000 928 1025 q 732 951 817 961 m 519 6 q 676 67 608 6 q 780 240 743 129 q 817 494 817 351 q 776 749 817 639 q 665 918 735 858 q 510 978 596 978 q 353 916 421 978 q 249 743 286 854 q 213 489 213 632 q 253 235 213 344 q 364 65 294 125 q 519 6 433 6 m 499 1140 q 590 1244 590 1176 q 563 1304 590 1283 q 493 1325 536 1325 q 426 1303 446 1325 q 459 1284 447 1299 q 471 1246 471 1269 q 453 1201 471 1218 q 408 1185 435 1185 q 365 1201 382 1185 q 349 1243 349 1217 q 364 1290 349 1268 q 403 1325 379 1311 q 519 1353 451 1353 q 635 1328 585 1353 q 686 1253 686 1303 q 644 1176 686 1208 q 526 1128 601 1143 l 526 1064 l 499 1064 l 499 1140 z "},"Ỡ":{"ha":1029,"x_min":74,"x_max":976,"o":"m 732 951 q 897 778 838 894 q 956 500 956 663 q 899 229 956 347 q 742 46 843 111 q 514 -19 642 -19 q 283 40 382 -19 q 128 213 183 100 q 74 483 74 326 q 130 754 74 636 q 287 938 186 872 q 515 1003 388 1003 q 676 976 606 1003 q 785 988 740 976 q 869 1024 831 1000 q 818 1118 818 1065 q 839 1176 818 1151 q 899 1200 860 1200 q 956 1178 935 1200 q 976 1124 976 1156 q 952 1057 976 1089 q 886 1000 928 1025 q 732 951 817 961 m 519 6 q 676 67 608 6 q 780 240 743 129 q 817 494 817 351 q 776 749 817 639 q 665 918 735 858 q 510 978 596 978 q 353 916 421 978 q 249 743 286 854 q 213 489 213 632 q 253 235 213 344 q 364 65 294 125 q 519 6 433 6 m 400 1253 q 465 1239 435 1253 q 539 1197 496 1225 q 613 1158 588 1169 q 669 1146 639 1146 q 756 1224 733 1146 l 776 1219 q 726 1113 771 1153 q 622 1072 682 1072 q 557 1086 588 1072 q 483 1128 526 1100 q 409 1167 435 1156 q 353 1179 383 1179 q 300 1162 321 1179 q 267 1101 279 1144 l 246 1106 q 296 1213 251 1172 q 400 1253 340 1253 z "},"Ő":{"ha":1029,"x_min":74,"x_max":956,"o":"m 515 1003 q 747 943 647 1003 q 901 770 846 883 q 956 500 956 657 q 899 229 956 347 q 742 46 843 111 q 514 -19 642 -19 q 283 40 382 -19 q 128 213 183 100 q 74 483 74 326 q 130 754 74 636 q 287 938 186 872 q 515 1003 388 1003 m 510 978 q 353 916 421 978 q 249 743 286 854 q 213 489 213 632 q 253 235 213 344 q 364 65 294 125 q 519 6 433 6 q 676 67 608 6 q 780 240 743 129 q 817 494 817 351 q 776 749 817 639 q 665 918 735 858 q 510 978 596 978 m 469 1281 q 517 1301 494 1301 q 554 1283 539 1301 q 567 1251 567 1269 q 538 1199 567 1224 q 491 1167 519 1183 q 433 1138 463 1151 q 319 1072 353 1096 l 307 1089 q 392 1190 342 1124 q 431 1240 411 1215 q 469 1281 451 1265 m 729 1281 q 776 1301 754 1301 q 814 1283 799 1301 q 826 1251 826 1269 q 797 1199 826 1224 q 751 1167 779 1183 q 693 1138 722 1151 q 579 1072 613 1096 l 567 1089 q 651 1190 601 1124 q 691 1240 671 1215 q 729 1281 711 1265 z "},"Ō":{"ha":1029,"x_min":74,"x_max":956,"o":"m 515 1003 q 747 943 647 1003 q 901 770 846 883 q 956 500 956 657 q 899 229 956 347 q 742 46 843 111 q 514 -19 642 -19 q 283 40 382 -19 q 128 213 183 100 q 74 483 74 326 q 130 754 74 636 q 287 938 186 872 q 515 1003 388 1003 m 510 978 q 353 916 421 978 q 249 743 286 854 q 213 489 213 632 q 253 235 213 344 q 364 65 294 125 q 519 6 433 6 q 676 67 608 6 q 780 240 743 129 q 817 494 817 351 q 776 749 817 639 q 665 918 735 858 q 510 978 596 978 m 757 1138 l 268 1138 l 268 1172 l 757 1172 l 757 1138 z "},"Ø":{"ha":1029,"x_min":74,"x_max":956,"o":"m 810 896 q 918 730 881 831 q 956 500 956 629 q 899 229 956 347 q 742 46 843 111 q 514 -19 642 -19 q 244 67 354 -19 l 131 -101 l 101 -82 l 218 89 q 111 254 149 154 q 74 483 74 354 q 130 754 74 636 q 287 938 186 872 q 515 1003 388 1003 q 785 917 675 1003 l 893 1074 l 919 1056 l 810 896 m 510 978 q 353 916 421 978 q 249 743 286 854 q 213 489 213 632 q 282 169 213 300 l 728 846 q 630 944 686 910 q 510 978 574 978 m 519 6 q 676 67 608 6 q 780 240 743 129 q 817 494 817 351 q 746 815 817 685 l 303 136 q 399 40 343 74 q 519 6 456 6 z "},"Ǿ":{"ha":1029,"x_min":74,"x_max":956,"o":"m 717 1196 q 617 1151 688 1178 q 438 1072 513 1110 l 428 1090 q 526 1170 485 1133 q 576 1215 567 1207 q 661 1286 628 1264 q 703 1300 683 1300 q 746 1276 729 1300 q 754 1250 754 1264 q 717 1196 754 1219 m 810 896 q 918 730 881 831 q 956 500 956 629 q 899 229 956 347 q 742 46 843 111 q 514 -19 642 -19 q 244 67 354 -19 l 131 -101 l 101 -82 l 218 89 q 111 254 149 154 q 74 483 74 354 q 130 754 74 636 q 287 938 186 872 q 515 1003 388 1003 q 785 917 675 1003 l 893 1074 l 919 1056 l 810 896 m 510 978 q 353 916 421 978 q 249 743 286 854 q 213 489 213 632 q 282 169 213 300 l 728 846 q 630 944 686 910 q 510 978 574 978 m 519 6 q 676 67 608 6 q 780 240 743 129 q 817 494 817 351 q 746 815 817 685 l 303 136 q 399 40 343 74 q 519 6 456 6 z "},"Õ":{"ha":1029,"x_min":74,"x_max":956,"o":"m 515 1003 q 747 943 647 1003 q 901 770 846 883 q 956 500 956 657 q 899 229 956 347 q 742 46 843 111 q 514 -19 642 -19 q 283 40 382 -19 q 128 213 183 100 q 74 483 74 326 q 130 754 74 636 q 287 938 186 872 q 515 1003 388 1003 m 510 978 q 353 916 421 978 q 249 743 286 854 q 213 489 213 632 q 253 235 213 344 q 364 65 294 125 q 519 6 433 6 q 676 67 608 6 q 780 240 743 129 q 817 494 817 351 q 776 749 817 639 q 665 918 735 858 q 510 978 596 978 m 400 1253 q 465 1239 435 1253 q 539 1197 496 1225 q 613 1158 588 1169 q 669 1146 639 1146 q 756 1224 733 1146 l 776 1219 q 726 1113 771 1153 q 622 1072 682 1072 q 557 1086 588 1072 q 483 1128 526 1100 q 409 1167 435 1156 q 353 1179 383 1179 q 300 1162 321 1179 q 267 1101 279 1144 l 246 1106 q 296 1213 251 1172 q 400 1253 340 1253 z "},"Œ":{"ha":1289,"x_min":74,"x_max":1222,"o":"m 1213 178 q 1222 0 1213 99 q 932 4 1136 4 q 628 1 738 4 q 514 -19 574 -19 q 283 40 382 -19 q 128 213 183 100 q 74 483 74 326 q 130 754 74 636 q 287 938 186 872 q 515 1003 388 1003 q 638 982 582 1003 q 932 979 749 979 q 1194 983 1117 979 q 1185 819 1185 892 q 1189 733 1185 765 l 1157 733 q 1132 867 1147 824 q 1081 931 1117 911 q 971 951 1044 951 l 925 951 q 852 944 875 951 q 821 913 829 936 q 813 836 813 889 l 813 508 l 872 508 q 965 544 942 508 q 993 616 988 579 q 1001 664 999 653 l 1033 664 q 1029 551 1029 613 l 1029 494 q 1038 325 1029 435 l 1006 325 q 997 382 1004 333 q 959 456 990 431 q 872 481 928 481 l 813 481 l 813 147 q 821 71 813 94 q 852 40 829 47 q 925 32 875 32 l 957 32 q 1088 55 1043 32 q 1154 128 1133 78 q 1185 278 1175 179 l 1217 278 q 1213 178 1213 240 m 683 836 q 635 943 683 908 q 510 978 586 978 q 353 916 421 978 q 249 743 286 854 q 213 489 213 632 q 253 235 213 344 q 364 65 294 125 q 519 6 433 6 q 633 42 582 6 q 683 147 683 78 l 683 836 z "},"P":{"ha":813,"x_min":58,"x_max":772,"o":"m 300 397 l 300 147 q 311 71 300 94 q 350 39 322 47 q 440 28 378 31 l 440 0 q 236 4 368 4 q 58 0 117 4 l 58 28 q 131 39 108 31 q 163 71 154 47 q 171 147 171 94 l 171 836 q 163 913 171 889 q 131 944 154 936 q 58 956 108 953 l 58 983 q 228 979 117 979 l 378 981 q 438 982 404 982 q 686 908 600 982 q 772 708 772 833 q 738 562 772 632 q 623 444 704 492 q 407 397 542 397 l 300 397 m 403 956 q 338 946 360 956 q 308 911 317 936 q 300 836 300 886 l 300 425 l 393 425 q 581 498 529 425 q 633 693 633 571 q 580 892 633 828 q 403 956 526 956 z "},"Þ":{"ha":806,"x_min":58,"x_max":763,"o":"m 300 192 l 300 147 q 308 71 300 94 q 340 39 317 47 q 413 28 363 31 l 413 0 q 236 4 349 4 q 58 0 117 4 l 58 28 q 131 39 108 31 q 163 71 154 47 q 171 147 171 94 l 171 836 q 163 913 171 889 q 131 944 154 936 q 58 956 108 953 l 58 983 q 236 979 117 979 q 413 983 347 979 l 413 956 q 340 944 363 953 q 308 913 317 936 q 300 836 300 889 l 300 774 l 428 776 q 612 741 536 776 q 725 644 688 706 q 763 506 763 583 q 728 356 763 426 q 613 238 694 285 q 397 192 532 192 l 300 192 m 393 750 q 300 749 331 750 l 300 219 l 383 219 q 572 294 519 219 q 624 497 624 369 q 569 688 624 625 q 393 750 515 750 z "},"Q":{"ha":1029,"x_min":74,"x_max":1060,"o":"m 1060 -40 q 972 -199 1029 -146 q 785 -261 904 -261 q 660 -242 721 -261 q 506 -181 599 -222 q 338 -114 403 -136 l 304 -104 q 189 -125 244 -125 q 125 -97 125 -125 q 200 -68 125 -68 q 304 -79 249 -68 q 407 -40 349 -67 q 461 -17 443 -24 q 256 57 343 -6 q 122 228 169 119 q 74 483 74 338 q 130 754 74 636 q 287 938 186 872 q 515 1003 388 1003 q 747 943 647 1003 q 901 770 846 883 q 956 500 956 657 q 906 242 956 356 q 765 62 856 129 q 558 -17 675 -6 l 558 -18 q 501 -30 525 -22 q 436 -54 476 -37 q 353 -86 386 -76 q 615 -135 507 -117 q 793 -153 722 -153 q 949 -124 892 -153 q 1039 -32 1007 -96 l 1060 -40 m 213 489 q 253 235 213 344 q 364 65 294 125 q 519 6 433 6 q 676 67 608 6 q 780 240 743 129 q 817 494 817 351 q 776 749 817 639 q 665 918 735 858 q 510 978 596 978 q 353 916 421 978 q 249 743 286 854 q 213 489 213 632 z "},"R":{"ha":900,"x_min":58,"x_max":917,"o":"m 917 69 q 853 1 885 22 q 768 -19 821 -19 q 674 14 711 -19 q 619 131 638 47 l 589 269 q 558 381 572 342 q 514 443 543 419 q 432 467 485 467 l 300 467 l 300 147 q 308 71 300 94 q 340 39 317 47 q 413 28 363 31 l 413 0 q 236 4 349 4 q 58 0 117 4 l 58 28 q 131 39 108 31 q 163 71 154 47 q 171 147 171 94 l 171 836 q 163 913 171 889 q 131 944 154 936 q 58 956 108 953 l 58 983 q 228 979 117 979 l 378 981 q 438 982 404 982 q 685 915 599 982 q 772 740 772 847 q 747 631 772 686 q 660 533 721 576 q 503 474 600 489 l 519 471 q 653 415 611 456 q 714 288 694 375 l 749 146 q 778 57 763 82 q 819 32 793 32 q 859 44 843 32 q 896 85 875 57 l 917 69 m 403 956 q 338 946 360 956 q 308 911 317 936 q 300 836 300 886 l 300 494 l 393 494 q 582 556 531 494 q 633 725 633 617 q 579 897 633 839 q 403 956 525 956 z "},"Ŕ":{"ha":900,"x_min":58,"x_max":917,"o":"m 917 69 q 853 1 885 22 q 768 -19 821 -19 q 674 14 711 -19 q 619 131 638 47 l 589 269 q 558 381 572 342 q 514 443 543 419 q 432 467 485 467 l 300 467 l 300 147 q 308 71 300 94 q 340 39 317 47 q 413 28 363 31 l 413 0 q 236 4 349 4 q 58 0 117 4 l 58 28 q 131 39 108 31 q 163 71 154 47 q 171 147 171 94 l 171 836 q 163 913 171 889 q 131 944 154 936 q 58 956 108 953 l 58 983 q 228 979 117 979 l 378 981 q 438 982 404 982 q 685 915 599 982 q 772 740 772 847 q 747 631 772 686 q 660 533 721 576 q 503 474 600 489 l 519 471 q 653 415 611 456 q 714 288 694 375 l 749 146 q 778 57 763 82 q 819 32 793 32 q 859 44 843 32 q 896 85 875 57 l 917 69 m 403 956 q 338 946 360 956 q 308 911 317 936 q 300 836 300 886 l 300 494 l 393 494 q 582 556 531 494 q 633 725 633 617 q 579 897 633 839 q 403 956 525 956 m 560 1286 q 601 1300 582 1300 q 644 1276 628 1300 q 653 1250 653 1264 q 615 1196 653 1219 q 515 1151 586 1178 q 336 1072 411 1110 l 326 1090 q 424 1170 383 1133 q 475 1215 465 1207 q 560 1286 526 1264 z "},"Ř":{"ha":900,"x_min":58,"x_max":917,"o":"m 917 69 q 853 1 885 22 q 768 -19 821 -19 q 674 14 711 -19 q 619 131 638 47 l 589 269 q 558 381 572 342 q 514 443 543 419 q 432 467 485 467 l 300 467 l 300 147 q 308 71 300 94 q 340 39 317 47 q 413 28 363 31 l 413 0 q 236 4 349 4 q 58 0 117 4 l 58 28 q 131 39 108 31 q 163 71 154 47 q 171 147 171 94 l 171 836 q 163 913 171 889 q 131 944 154 936 q 58 956 108 953 l 58 983 q 228 979 117 979 l 378 981 q 438 982 404 982 q 685 915 599 982 q 772 740 772 847 q 747 631 772 686 q 660 533 721 576 q 503 474 600 489 l 519 471 q 653 415 611 456 q 714 288 694 375 l 749 146 q 778 57 763 82 q 819 32 793 32 q 859 44 843 32 q 896 85 875 57 l 917 69 m 403 956 q 338 946 360 956 q 308 911 317 936 q 300 836 300 886 l 300 494 l 393 494 q 582 556 531 494 q 633 725 633 617 q 579 897 633 839 q 403 956 525 956 m 679 1267 q 522 1187 590 1236 q 419 1083 453 1138 l 394 1083 q 292 1187 361 1138 q 135 1267 224 1236 l 142 1286 q 306 1242 225 1268 q 435 1189 388 1215 q 540 1242 474 1215 q 672 1286 606 1268 l 679 1267 z "},"Ŗ":{"ha":900,"x_min":58,"x_max":917,"o":"m 917 69 q 853 1 885 22 q 768 -19 821 -19 q 674 14 711 -19 q 619 131 638 47 l 589 269 q 558 381 572 342 q 514 443 543 419 q 432 467 485 467 l 300 467 l 300 147 q 308 71 300 94 q 340 39 317 47 q 413 28 363 31 l 413 0 q 236 4 349 4 q 58 0 117 4 l 58 28 q 131 39 108 31 q 163 71 154 47 q 171 147 171 94 l 171 836 q 163 913 171 889 q 131 944 154 936 q 58 956 108 953 l 58 983 q 228 979 117 979 l 378 981 q 438 982 404 982 q 685 915 599 982 q 772 740 772 847 q 747 631 772 686 q 660 533 721 576 q 503 474 600 489 l 519 471 q 653 415 611 456 q 714 288 694 375 l 749 146 q 778 57 763 82 q 819 32 793 32 q 859 44 843 32 q 896 85 875 57 l 917 69 m 403 956 q 338 946 360 956 q 308 911 317 936 q 300 836 300 886 l 300 494 l 393 494 q 582 556 531 494 q 633 725 633 617 q 579 897 633 839 q 403 956 525 956 m 458 -96 q 524 -124 499 -96 q 549 -193 549 -151 q 524 -278 549 -246 q 435 -335 499 -311 l 425 -310 q 487 -276 461 -299 q 511 -222 513 -253 q 453 -244 486 -244 q 401 -224 421 -244 q 381 -169 381 -204 q 403 -117 381 -139 q 458 -96 426 -96 z "},"S":{"ha":750,"x_min":88,"x_max":682,"o":"m 356 999 q 452 985 417 999 q 525 947 488 972 q 572 928 556 928 q 592 942 585 928 q 603 989 599 957 l 635 989 q 628 706 628 908 l 596 706 q 531 895 588 818 q 368 972 475 972 q 246 927 293 972 q 199 811 199 882 q 223 719 199 758 q 285 653 247 681 q 392 582 322 625 l 432 557 q 570 462 519 503 q 651 368 621 421 q 682 244 682 315 q 599 49 682 118 q 388 -19 515 -19 q 278 -6 321 -19 q 197 32 236 8 q 150 51 167 51 q 131 37 138 51 q 119 -10 124 22 l 88 -10 q 93 324 93 67 l 125 324 q 194 96 135 183 q 378 8 254 8 q 506 55 453 8 q 558 193 558 101 q 506 325 558 271 q 342 447 454 379 q 209 536 260 497 q 126 630 158 575 q 94 758 94 685 q 169 937 94 875 q 356 999 244 999 z "},"Ś":{"ha":750,"x_min":88,"x_max":682,"o":"m 356 999 q 452 985 417 999 q 525 947 488 972 q 572 928 556 928 q 592 942 585 928 q 603 989 599 957 l 635 989 q 628 706 628 908 l 596 706 q 531 895 588 818 q 368 972 475 972 q 246 927 293 972 q 199 811 199 882 q 223 719 199 758 q 285 653 247 681 q 392 582 322 625 l 432 557 q 570 462 519 503 q 651 368 621 421 q 682 244 682 315 q 599 49 682 118 q 388 -19 515 -19 q 278 -6 321 -19 q 197 32 236 8 q 150 51 167 51 q 131 37 138 51 q 119 -10 124 22 l 88 -10 q 93 324 93 67 l 125 324 q 194 96 135 183 q 378 8 254 8 q 506 55 453 8 q 558 193 558 101 q 506 325 558 271 q 342 447 454 379 q 209 536 260 497 q 126 630 158 575 q 94 758 94 685 q 169 937 94 875 q 356 999 244 999 m 531 1286 q 572 1300 553 1300 q 615 1276 599 1300 q 624 1250 624 1264 q 586 1196 624 1219 q 486 1151 557 1178 q 307 1072 382 1110 l 297 1090 q 395 1170 354 1133 q 446 1215 436 1207 q 531 1286 497 1264 z "},"Š":{"ha":750,"x_min":88,"x_max":682,"o":"m 356 999 q 452 985 417 999 q 525 947 488 972 q 572 928 556 928 q 592 942 585 928 q 603 989 599 957 l 635 989 q 628 706 628 908 l 596 706 q 531 895 588 818 q 368 972 475 972 q 246 927 293 972 q 199 811 199 882 q 223 719 199 758 q 285 653 247 681 q 392 582 322 625 l 432 557 q 570 462 519 503 q 651 368 621 421 q 682 244 682 315 q 599 49 682 118 q 388 -19 515 -19 q 278 -6 321 -19 q 197 32 236 8 q 150 51 167 51 q 131 37 138 51 q 119 -10 124 22 l 88 -10 q 93 324 93 67 l 125 324 q 194 96 135 183 q 378 8 254 8 q 506 55 453 8 q 558 193 558 101 q 506 325 558 271 q 342 447 454 379 q 209 536 260 497 q 126 630 158 575 q 94 758 94 685 q 169 937 94 875 q 356 999 244 999 m 650 1267 q 492 1187 561 1236 q 390 1083 424 1138 l 365 1083 q 263 1187 332 1138 q 106 1267 194 1236 l 113 1286 q 277 1242 196 1268 q 406 1189 358 1215 q 510 1242 444 1215 q 643 1286 576 1268 l 650 1267 z "},"Ş":{"ha":750,"x_min":88,"x_max":682,"o":"m 356 999 q 452 985 417 999 q 525 947 488 972 q 572 928 556 928 q 592 942 585 928 q 603 989 599 957 l 635 989 q 628 706 628 908 l 596 706 q 531 895 588 818 q 368 972 475 972 q 246 927 293 972 q 199 811 199 882 q 223 719 199 758 q 285 653 247 681 q 392 582 322 625 l 432 557 q 570 462 519 503 q 651 368 621 421 q 682 244 682 315 q 599 49 682 118 q 388 -19 515 -19 q 278 -6 321 -19 q 197 32 236 8 q 150 51 167 51 q 131 37 138 51 q 119 -10 124 22 l 88 -10 q 93 324 93 67 l 125 324 q 194 96 135 183 q 378 8 254 8 q 506 55 453 8 q 558 193 558 101 q 506 325 558 271 q 342 447 454 379 q 209 536 260 497 q 126 630 158 575 q 94 758 94 685 q 169 937 94 875 q 356 999 244 999 m 376 -100 q 458 -90 418 -90 q 520 -108 497 -90 q 543 -156 543 -125 q 494 -235 543 -208 q 386 -261 446 -261 q 271 -246 317 -261 l 276 -221 q 329 -225 306 -225 q 417 -210 379 -225 q 454 -162 454 -196 q 396 -124 454 -124 q 328 -133 357 -124 l 375 7 l 413 7 l 376 -100 z "},"Ŝ":{"ha":750,"x_min":88,"x_max":682,"o":"m 356 999 q 452 985 417 999 q 525 947 488 972 q 572 928 556 928 q 592 942 585 928 q 603 989 599 957 l 635 989 q 628 706 628 908 l 596 706 q 531 895 588 818 q 368 972 475 972 q 246 927 293 972 q 199 811 199 882 q 223 719 199 758 q 285 653 247 681 q 392 582 322 625 l 432 557 q 570 462 519 503 q 651 368 621 421 q 682 244 682 315 q 599 49 682 118 q 388 -19 515 -19 q 278 -6 321 -19 q 197 32 236 8 q 150 51 167 51 q 131 37 138 51 q 119 -10 124 22 l 88 -10 q 93 324 93 67 l 125 324 q 194 96 135 183 q 378 8 254 8 q 506 55 453 8 q 558 193 558 101 q 506 325 558 271 q 342 447 454 379 q 209 536 260 497 q 126 630 158 575 q 94 758 94 685 q 169 937 94 875 q 356 999 244 999 m 394 1272 q 497 1169 428 1218 q 654 1089 565 1119 l 647 1069 q 483 1114 564 1088 q 354 1167 401 1140 q 249 1114 315 1140 q 117 1069 183 1088 l 110 1089 q 267 1169 199 1119 q 369 1272 336 1218 l 394 1272 z "},"Ș":{"ha":750,"x_min":88,"x_max":682,"o":"m 356 999 q 452 985 417 999 q 525 947 488 972 q 572 928 556 928 q 592 942 585 928 q 603 989 599 957 l 635 989 q 628 706 628 908 l 596 706 q 531 895 588 818 q 368 972 475 972 q 246 927 293 972 q 199 811 199 882 q 223 719 199 758 q 285 653 247 681 q 392 582 322 625 l 432 557 q 570 462 519 503 q 651 368 621 421 q 682 244 682 315 q 599 49 682 118 q 388 -19 515 -19 q 278 -6 321 -19 q 197 32 236 8 q 150 51 167 51 q 131 37 138 51 q 119 -10 124 22 l 88 -10 q 93 324 93 67 l 125 324 q 194 96 135 183 q 378 8 254 8 q 506 55 453 8 q 558 193 558 101 q 506 325 558 271 q 342 447 454 379 q 209 536 260 497 q 126 630 158 575 q 94 758 94 685 q 169 937 94 875 q 356 999 244 999 m 388 -96 q 453 -124 428 -96 q 478 -193 478 -151 q 453 -278 478 -246 q 364 -335 428 -311 l 354 -310 q 416 -276 390 -299 q 440 -222 442 -253 q 382 -244 415 -244 q 330 -224 350 -244 q 310 -169 310 -204 q 333 -117 310 -139 q 388 -96 356 -96 z "},"ẞ":{"ha":946,"x_min":22,"x_max":892,"o":"m 511 1003 q 668 978 597 1003 q 801 904 739 953 l 592 572 q 808 464 724 544 q 892 269 892 383 q 849 124 892 190 q 729 19 807 58 q 547 -19 651 -19 q 415 6 468 -19 q 364 47 381 22 q 347 101 347 72 q 368 154 347 133 q 421 175 389 175 q 476 155 454 175 q 497 100 497 135 q 481 53 497 71 q 439 29 465 35 q 483 12 453 17 q 540 7 513 7 q 656 44 608 7 q 728 142 704 82 q 753 274 753 203 q 675 483 753 403 q 467 582 597 563 l 685 938 q 615 967 660 957 q 526 978 571 978 q 337 896 410 978 q 264 617 264 814 l 264 147 q 270 74 264 99 q 292 40 276 50 q 340 28 308 29 l 340 0 l 289 1 q 182 4 239 4 q 22 0 81 4 l 22 28 q 95 39 72 31 q 126 71 118 47 q 135 147 135 94 l 135 532 q 231 888 135 772 q 511 1003 328 1003 z "},"Ə":{"ha":976,"x_min":74,"x_max":903,"o":"m 461 1003 q 698 940 599 1003 q 850 762 797 878 q 903 488 903 646 q 852 218 903 332 q 703 42 801 104 q 469 -19 606 -19 q 181 89 289 -19 q 74 411 74 197 l 761 411 q 765 497 765 451 q 721 746 765 640 q 601 907 676 851 q 432 963 525 963 q 307 939 371 963 q 204 869 243 915 q 163 793 178 839 q 135 664 149 747 l 103 664 q 97 983 103 893 l 129 983 q 141 920 133 939 q 164 901 149 901 q 192 913 174 901 q 313 979 256 956 q 461 1003 371 1003 m 485 7 q 672 101 599 7 q 763 385 744 196 l 210 385 q 237 193 204 279 q 334 57 269 107 q 485 7 399 7 z "},"T":{"ha":863,"x_min":40,"x_max":822,"o":"m 822 983 q 813 806 813 885 q 817 692 813 736 l 785 692 q 757 851 774 799 q 699 927 740 903 q 571 951 657 951 l 496 951 l 496 161 q 507 76 496 103 q 546 40 518 50 q 636 28 574 31 l 636 0 q 432 4 564 4 q 226 0 293 4 l 226 28 q 317 40 289 31 q 356 76 344 50 q 367 161 367 103 l 367 951 l 292 951 q 164 927 206 951 q 106 851 122 903 q 78 692 89 799 l 46 692 q 50 806 50 736 q 40 983 50 885 q 432 979 156 979 q 822 983 707 979 z "},"Ŧ":{"ha":863,"x_min":40,"x_max":822,"o":"m 822 983 q 813 806 813 885 q 817 692 813 736 l 785 692 q 757 851 774 799 q 699 927 740 903 q 571 951 657 951 l 496 951 l 496 161 q 507 76 496 103 q 546 40 518 50 q 636 28 574 31 l 636 0 q 432 4 564 4 q 226 0 293 4 l 226 28 q 317 40 289 31 q 356 76 344 50 q 367 161 367 103 l 367 951 l 292 951 q 164 927 206 951 q 106 851 122 903 q 78 692 89 799 l 46 692 q 50 806 50 736 q 40 983 50 885 q 432 979 156 979 q 822 983 707 979 m 728 478 l 138 478 l 138 506 l 728 506 l 728 478 z "},"Ť":{"ha":863,"x_min":40,"x_max":822,"o":"m 822 983 q 813 806 813 885 q 817 692 813 736 l 785 692 q 757 851 774 799 q 699 927 740 903 q 571 951 657 951 l 496 951 l 496 161 q 507 76 496 103 q 546 40 518 50 q 636 28 574 31 l 636 0 q 432 4 564 4 q 226 0 293 4 l 226 28 q 317 40 289 31 q 356 76 344 50 q 367 161 367 103 l 367 951 l 292 951 q 164 927 206 951 q 106 851 122 903 q 78 692 89 799 l 46 692 q 50 806 50 736 q 40 983 50 885 q 432 979 156 979 q 822 983 707 979 m 700 1267 q 542 1187 611 1236 q 440 1083 474 1138 l 415 1083 q 313 1187 382 1138 q 156 1267 244 1236 l 163 1286 q 327 1242 246 1268 q 456 1189 408 1215 q 560 1242 494 1215 q 693 1286 626 1268 l 700 1267 z "},"Ţ":{"ha":863,"x_min":40,"x_max":822,"o":"m 822 983 q 813 806 813 885 q 817 692 813 736 l 785 692 q 757 851 774 799 q 699 927 740 903 q 571 951 657 951 l 496 951 l 496 161 q 507 76 496 103 q 546 40 518 50 q 636 28 574 31 l 636 0 q 432 4 564 4 q 226 0 293 4 l 226 28 q 317 40 289 31 q 356 76 344 50 q 367 161 367 103 l 367 951 l 292 951 q 164 927 206 951 q 106 851 122 903 q 78 692 89 799 l 46 692 q 50 806 50 736 q 40 983 50 885 q 432 979 156 979 q 822 983 707 979 m 411 -100 q 493 -90 453 -90 q 555 -108 532 -90 q 578 -156 578 -125 q 529 -235 578 -208 q 421 -261 481 -261 q 306 -246 351 -261 l 311 -221 q 364 -225 340 -225 q 451 -210 414 -225 q 489 -162 489 -196 q 431 -124 489 -124 q 363 -133 392 -124 l 410 7 l 447 7 l 411 -100 z "},"Ț":{"ha":863,"x_min":40,"x_max":822,"o":"m 822 983 q 813 806 813 885 q 817 692 813 736 l 785 692 q 757 851 774 799 q 699 927 740 903 q 571 951 657 951 l 496 951 l 496 161 q 507 76 496 103 q 546 40 518 50 q 636 28 574 31 l 636 0 q 432 4 564 4 q 226 0 293 4 l 226 28 q 317 40 289 31 q 356 76 344 50 q 367 161 367 103 l 367 951 l 292 951 q 164 927 206 951 q 106 851 122 903 q 78 692 89 799 l 46 692 q 50 806 50 736 q 40 983 50 885 q 432 979 156 979 q 822 983 707 979 m 422 -96 q 488 -124 463 -96 q 513 -193 513 -151 q 488 -278 513 -246 q 399 -335 463 -311 l 389 -310 q 451 -276 425 -299 q 475 -222 476 -253 q 417 -244 450 -244 q 365 -224 385 -244 q 344 -169 344 -204 q 367 -117 344 -139 q 422 -96 390 -96 z "},"U":{"ha":947,"x_min":38,"x_max":910,"o":"m 910 956 q 838 941 861 953 q 806 902 814 929 q 797 822 797 875 l 797 404 q 784 233 797 304 q 740 110 771 161 q 638 15 706 50 q 486 -19 571 -19 q 253 56 333 -19 q 171 185 192 113 q 150 400 150 257 l 150 836 q 142 913 150 889 q 110 944 133 936 q 38 956 88 953 l 38 983 q 215 979 96 979 q 392 983 328 979 l 392 956 q 319 944 342 953 q 288 913 296 936 q 279 836 279 889 l 279 376 q 294 192 279 265 q 358 74 310 118 q 499 29 406 29 q 706 124 646 29 q 765 389 765 218 l 765 822 q 738 925 765 897 q 639 956 711 953 l 639 983 q 781 979 689 979 q 910 983 864 979 l 910 956 z "},"Ú":{"ha":947,"x_min":38,"x_max":910,"o":"m 910 956 q 838 941 861 953 q 806 902 814 929 q 797 822 797 875 l 797 404 q 784 233 797 304 q 740 110 771 161 q 638 15 706 50 q 486 -19 571 -19 q 253 56 333 -19 q 171 185 192 113 q 150 400 150 257 l 150 836 q 142 913 150 889 q 110 944 133 936 q 38 956 88 953 l 38 983 q 215 979 96 979 q 392 983 328 979 l 392 956 q 319 944 342 953 q 288 913 296 936 q 279 836 279 889 l 279 376 q 294 192 279 265 q 358 74 310 118 q 499 29 406 29 q 706 124 646 29 q 765 389 765 218 l 765 822 q 738 925 765 897 q 639 956 711 953 l 639 983 q 781 979 689 979 q 910 983 864 979 l 910 956 m 638 1286 q 679 1300 660 1300 q 722 1276 706 1300 q 731 1250 731 1264 q 693 1196 731 1219 q 593 1151 664 1178 q 414 1072 489 1110 l 404 1090 q 502 1170 461 1133 q 553 1215 543 1207 q 638 1286 604 1264 z "},"Ŭ":{"ha":947,"x_min":38,"x_max":910,"o":"m 910 956 q 838 941 861 953 q 806 902 814 929 q 797 822 797 875 l 797 404 q 784 233 797 304 q 740 110 771 161 q 638 15 706 50 q 486 -19 571 -19 q 253 56 333 -19 q 171 185 192 113 q 150 400 150 257 l 150 836 q 142 913 150 889 q 110 944 133 936 q 38 956 88 953 l 38 983 q 215 979 96 979 q 392 983 328 979 l 392 956 q 319 944 342 953 q 288 913 296 936 q 279 836 279 889 l 279 376 q 294 192 279 265 q 358 74 310 118 q 499 29 406 29 q 706 124 646 29 q 765 389 765 218 l 765 822 q 738 925 765 897 q 639 956 711 953 l 639 983 q 781 979 689 979 q 910 983 864 979 l 910 956 m 765 1247 q 655 1134 725 1182 q 489 1086 585 1086 q 323 1134 393 1086 q 213 1247 253 1182 l 231 1261 q 334 1198 269 1224 q 489 1172 399 1172 q 644 1199 579 1172 q 749 1263 710 1225 l 765 1247 z "},"Ǔ":{"ha":947,"x_min":38,"x_max":910,"o":"m 910 956 q 838 941 861 953 q 806 902 814 929 q 797 822 797 875 l 797 404 q 784 233 797 304 q 740 110 771 161 q 638 15 706 50 q 486 -19 571 -19 q 253 56 333 -19 q 171 185 192 113 q 150 400 150 257 l 150 836 q 142 913 150 889 q 110 944 133 936 q 38 956 88 953 l 38 983 q 215 979 96 979 q 392 983 328 979 l 392 956 q 319 944 342 953 q 288 913 296 936 q 279 836 279 889 l 279 376 q 294 192 279 265 q 358 74 310 118 q 499 29 406 29 q 706 124 646 29 q 765 389 765 218 l 765 822 q 738 925 765 897 q 639 956 711 953 l 639 983 q 781 979 689 979 q 910 983 864 979 l 910 956 m 757 1267 q 599 1187 668 1236 q 497 1083 531 1138 l 472 1083 q 370 1187 439 1138 q 213 1267 301 1236 l 219 1286 q 384 1242 303 1268 q 513 1189 465 1215 q 617 1242 551 1215 q 750 1286 683 1268 l 757 1267 z "},"Û":{"ha":947,"x_min":38,"x_max":910,"o":"m 910 956 q 838 941 861 953 q 806 902 814 929 q 797 822 797 875 l 797 404 q 784 233 797 304 q 740 110 771 161 q 638 15 706 50 q 486 -19 571 -19 q 253 56 333 -19 q 171 185 192 113 q 150 400 150 257 l 150 836 q 142 913 150 889 q 110 944 133 936 q 38 956 88 953 l 38 983 q 215 979 96 979 q 392 983 328 979 l 392 956 q 319 944 342 953 q 288 913 296 936 q 279 836 279 889 l 279 376 q 294 192 279 265 q 358 74 310 118 q 499 29 406 29 q 706 124 646 29 q 765 389 765 218 l 765 822 q 738 925 765 897 q 639 956 711 953 l 639 983 q 781 979 689 979 q 910 983 864 979 l 910 956 m 501 1272 q 603 1169 535 1218 q 761 1089 672 1119 l 754 1069 q 590 1114 671 1088 q 461 1167 508 1140 q 356 1114 422 1140 q 224 1069 290 1088 l 217 1089 q 374 1169 306 1119 q 476 1272 443 1218 l 501 1272 z "},"Ü":{"ha":947,"x_min":38,"x_max":910,"o":"m 910 956 q 838 941 861 953 q 806 902 814 929 q 797 822 797 875 l 797 404 q 784 233 797 304 q 740 110 771 161 q 638 15 706 50 q 486 -19 571 -19 q 253 56 333 -19 q 171 185 192 113 q 150 400 150 257 l 150 836 q 142 913 150 889 q 110 944 133 936 q 38 956 88 953 l 38 983 q 215 979 96 979 q 392 983 328 979 l 392 956 q 319 944 342 953 q 288 913 296 936 q 279 836 279 889 l 279 376 q 294 192 279 265 q 358 74 310 118 q 499 29 406 29 q 706 124 646 29 q 765 389 765 218 l 765 822 q 738 925 765 897 q 639 956 711 953 l 639 983 q 781 979 689 979 q 910 983 864 979 l 910 956 m 342 1233 q 398 1209 374 1233 q 422 1153 422 1185 q 398 1096 422 1119 q 342 1072 374 1072 q 285 1096 308 1072 q 261 1153 261 1119 q 285 1209 261 1185 q 342 1233 308 1233 m 636 1233 q 692 1209 668 1233 q 717 1153 717 1185 q 692 1096 717 1119 q 636 1072 668 1072 q 579 1096 603 1072 q 556 1153 556 1119 q 579 1209 556 1185 q 636 1233 603 1233 z "},"Ụ":{"ha":947,"x_min":38,"x_max":910,"o":"m 910 956 q 838 941 861 953 q 806 902 814 929 q 797 822 797 875 l 797 404 q 784 233 797 304 q 740 110 771 161 q 638 15 706 50 q 486 -19 571 -19 q 253 56 333 -19 q 171 185 192 113 q 150 400 150 257 l 150 836 q 142 913 150 889 q 110 944 133 936 q 38 956 88 953 l 38 983 q 215 979 96 979 q 392 983 328 979 l 392 956 q 319 944 342 953 q 288 913 296 936 q 279 836 279 889 l 279 376 q 294 192 279 265 q 358 74 310 118 q 499 29 406 29 q 706 124 646 29 q 765 389 765 218 l 765 822 q 738 925 765 897 q 639 956 711 953 l 639 983 q 781 979 689 979 q 910 983 864 979 l 910 956 m 500 -251 q 443 -229 467 -251 q 419 -174 419 -207 q 442 -118 419 -140 q 500 -96 464 -96 q 558 -119 536 -96 q 581 -175 581 -142 q 557 -231 581 -210 q 500 -251 533 -251 z "},"Ù":{"ha":947,"x_min":38,"x_max":910,"o":"m 910 956 q 838 941 861 953 q 806 902 814 929 q 797 822 797 875 l 797 404 q 784 233 797 304 q 740 110 771 161 q 638 15 706 50 q 486 -19 571 -19 q 253 56 333 -19 q 171 185 192 113 q 150 400 150 257 l 150 836 q 142 913 150 889 q 110 944 133 936 q 38 956 88 953 l 38 983 q 215 979 96 979 q 392 983 328 979 l 392 956 q 319 944 342 953 q 288 913 296 936 q 279 836 279 889 l 279 376 q 294 192 279 265 q 358 74 310 118 q 499 29 406 29 q 706 124 646 29 q 765 389 765 218 l 765 822 q 738 925 765 897 q 639 956 711 953 l 639 983 q 781 979 689 979 q 910 983 864 979 l 910 956 m 349 1286 q 433 1215 382 1264 q 484 1170 443 1207 q 582 1090 525 1133 l 572 1072 q 393 1151 497 1110 q 293 1196 322 1178 q 256 1250 256 1219 q 264 1276 256 1264 q 307 1300 281 1300 q 349 1286 326 1300 z "},"Ủ":{"ha":947,"x_min":38,"x_max":910,"o":"m 910 956 q 838 941 861 953 q 806 902 814 929 q 797 822 797 875 l 797 404 q 784 233 797 304 q 740 110 771 161 q 638 15 706 50 q 486 -19 571 -19 q 253 56 333 -19 q 171 185 192 113 q 150 400 150 257 l 150 836 q 142 913 150 889 q 110 944 133 936 q 38 956 88 953 l 38 983 q 215 979 96 979 q 392 983 328 979 l 392 956 q 319 944 342 953 q 288 913 296 936 q 279 836 279 889 l 279 376 q 294 192 279 265 q 358 74 310 118 q 499 29 406 29 q 706 124 646 29 q 765 389 765 218 l 765 822 q 738 925 765 897 q 639 956 711 953 l 639 983 q 781 979 689 979 q 910 983 864 979 l 910 956 m 475 1140 q 567 1244 567 1176 q 540 1304 567 1283 q 469 1325 513 1325 q 403 1303 422 1325 q 435 1284 424 1299 q 447 1246 447 1269 q 429 1201 447 1218 q 385 1185 411 1185 q 342 1201 358 1185 q 325 1243 325 1217 q 340 1290 325 1268 q 379 1325 356 1311 q 496 1353 428 1353 q 612 1328 561 1353 q 663 1253 663 1303 q 620 1176 663 1208 q 503 1128 578 1143 l 503 1064 l 475 1064 l 475 1140 z "},"Ư":{"ha":947,"x_min":38,"x_max":1017,"o":"m 939 1200 q 997 1178 976 1200 q 1017 1122 1017 1156 q 992 1056 1017 1088 q 926 1000 968 1025 q 797 954 856 958 l 797 404 q 784 233 797 304 q 740 110 771 161 q 638 15 706 50 q 486 -19 571 -19 q 253 56 333 -19 q 171 185 192 113 q 150 400 150 257 l 150 836 q 142 913 150 889 q 110 944 133 936 q 38 956 88 953 l 38 983 q 215 979 96 979 q 392 983 328 979 l 392 956 q 319 944 342 953 q 288 913 296 936 q 279 836 279 889 l 279 376 q 294 192 279 265 q 358 74 310 118 q 499 29 406 29 q 706 124 646 29 q 765 389 765 218 l 765 953 q 719 951 750 951 q 636 956 678 951 l 643 983 q 746 979 682 979 q 835 986 797 979 q 911 1022 872 993 q 874 1065 889 1040 q 858 1117 858 1089 q 879 1176 858 1151 q 939 1200 900 1200 z "},"Ứ":{"ha":947,"x_min":38,"x_max":1017,"o":"m 939 1200 q 997 1178 976 1200 q 1017 1122 1017 1156 q 992 1056 1017 1088 q 926 1000 968 1025 q 797 954 856 958 l 797 404 q 784 233 797 304 q 740 110 771 161 q 638 15 706 50 q 486 -19 571 -19 q 253 56 333 -19 q 171 185 192 113 q 150 400 150 257 l 150 836 q 142 913 150 889 q 110 944 133 936 q 38 956 88 953 l 38 983 q 215 979 96 979 q 392 983 328 979 l 392 956 q 319 944 342 953 q 288 913 296 936 q 279 836 279 889 l 279 376 q 294 192 279 265 q 358 74 310 118 q 499 29 406 29 q 706 124 646 29 q 765 389 765 218 l 765 953 q 719 951 750 951 q 636 956 678 951 l 643 983 q 746 979 682 979 q 835 986 797 979 q 911 1022 872 993 q 874 1065 889 1040 q 858 1117 858 1089 q 879 1176 858 1151 q 939 1200 900 1200 m 638 1286 q 679 1300 660 1300 q 722 1276 706 1300 q 731 1250 731 1264 q 693 1196 731 1219 q 593 1151 664 1178 q 414 1072 489 1110 l 404 1090 q 502 1170 461 1133 q 553 1215 543 1207 q 638 1286 604 1264 z "},"Ự":{"ha":947,"x_min":38,"x_max":1017,"o":"m 939 1200 q 997 1178 976 1200 q 1017 1122 1017 1156 q 992 1056 1017 1088 q 926 1000 968 1025 q 797 954 856 958 l 797 404 q 784 233 797 304 q 740 110 771 161 q 638 15 706 50 q 486 -19 571 -19 q 253 56 333 -19 q 171 185 192 113 q 150 400 150 257 l 150 836 q 142 913 150 889 q 110 944 133 936 q 38 956 88 953 l 38 983 q 215 979 96 979 q 392 983 328 979 l 392 956 q 319 944 342 953 q 288 913 296 936 q 279 836 279 889 l 279 376 q 294 192 279 265 q 358 74 310 118 q 499 29 406 29 q 706 124 646 29 q 765 389 765 218 l 765 953 q 719 951 750 951 q 636 956 678 951 l 643 983 q 746 979 682 979 q 835 986 797 979 q 911 1022 872 993 q 874 1065 889 1040 q 858 1117 858 1089 q 879 1176 858 1151 q 939 1200 900 1200 m 500 -251 q 443 -229 467 -251 q 419 -174 419 -207 q 442 -118 419 -140 q 500 -96 464 -96 q 558 -119 536 -96 q 581 -175 581 -142 q 557 -231 581 -210 q 500 -251 533 -251 z "},"Ừ":{"ha":947,"x_min":38,"x_max":1017,"o":"m 939 1200 q 997 1178 976 1200 q 1017 1122 1017 1156 q 992 1056 1017 1088 q 926 1000 968 1025 q 797 954 856 958 l 797 404 q 784 233 797 304 q 740 110 771 161 q 638 15 706 50 q 486 -19 571 -19 q 253 56 333 -19 q 171 185 192 113 q 150 400 150 257 l 150 836 q 142 913 150 889 q 110 944 133 936 q 38 956 88 953 l 38 983 q 215 979 96 979 q 392 983 328 979 l 392 956 q 319 944 342 953 q 288 913 296 936 q 279 836 279 889 l 279 376 q 294 192 279 265 q 358 74 310 118 q 499 29 406 29 q 706 124 646 29 q 765 389 765 218 l 765 953 q 719 951 750 951 q 636 956 678 951 l 643 983 q 746 979 682 979 q 835 986 797 979 q 911 1022 872 993 q 874 1065 889 1040 q 858 1117 858 1089 q 879 1176 858 1151 q 939 1200 900 1200 m 349 1286 q 433 1215 382 1264 q 484 1170 443 1207 q 582 1090 525 1133 l 572 1072 q 393 1151 497 1110 q 293 1196 322 1178 q 256 1250 256 1219 q 264 1276 256 1264 q 307 1300 281 1300 q 349 1286 326 1300 z "},"Ử":{"ha":947,"x_min":38,"x_max":1017,"o":"m 939 1200 q 997 1178 976 1200 q 1017 1122 1017 1156 q 992 1056 1017 1088 q 926 1000 968 1025 q 797 954 856 958 l 797 404 q 784 233 797 304 q 740 110 771 161 q 638 15 706 50 q 486 -19 571 -19 q 253 56 333 -19 q 171 185 192 113 q 150 400 150 257 l 150 836 q 142 913 150 889 q 110 944 133 936 q 38 956 88 953 l 38 983 q 215 979 96 979 q 392 983 328 979 l 392 956 q 319 944 342 953 q 288 913 296 936 q 279 836 279 889 l 279 376 q 294 192 279 265 q 358 74 310 118 q 499 29 406 29 q 706 124 646 29 q 765 389 765 218 l 765 953 q 719 951 750 951 q 636 956 678 951 l 643 983 q 746 979 682 979 q 835 986 797 979 q 911 1022 872 993 q 874 1065 889 1040 q 858 1117 858 1089 q 879 1176 858 1151 q 939 1200 900 1200 m 475 1140 q 567 1244 567 1176 q 540 1304 567 1283 q 469 1325 513 1325 q 403 1303 422 1325 q 435 1284 424 1299 q 447 1246 447 1269 q 429 1201 447 1218 q 385 1185 411 1185 q 342 1201 358 1185 q 325 1243 325 1217 q 340 1290 325 1268 q 379 1325 356 1311 q 496 1353 428 1353 q 612 1328 561 1353 q 663 1253 663 1303 q 620 1176 663 1208 q 503 1128 578 1143 l 503 1064 l 475 1064 l 475 1140 z "},"Ữ":{"ha":947,"x_min":38,"x_max":1017,"o":"m 939 1200 q 997 1178 976 1200 q 1017 1122 1017 1156 q 992 1056 1017 1088 q 926 1000 968 1025 q 797 954 856 958 l 797 404 q 784 233 797 304 q 740 110 771 161 q 638 15 706 50 q 486 -19 571 -19 q 253 56 333 -19 q 171 185 192 113 q 150 400 150 257 l 150 836 q 142 913 150 889 q 110 944 133 936 q 38 956 88 953 l 38 983 q 215 979 96 979 q 392 983 328 979 l 392 956 q 319 944 342 953 q 288 913 296 936 q 279 836 279 889 l 279 376 q 294 192 279 265 q 358 74 310 118 q 499 29 406 29 q 706 124 646 29 q 765 389 765 218 l 765 953 q 719 951 750 951 q 636 956 678 951 l 643 983 q 746 979 682 979 q 835 986 797 979 q 911 1022 872 993 q 874 1065 889 1040 q 858 1117 858 1089 q 879 1176 858 1151 q 939 1200 900 1200 m 376 1253 q 442 1239 411 1253 q 515 1197 472 1225 q 590 1158 564 1169 q 646 1146 615 1146 q 732 1224 710 1146 l 753 1219 q 703 1113 747 1153 q 599 1072 658 1072 q 533 1086 564 1072 q 460 1128 503 1100 q 385 1167 411 1156 q 329 1179 360 1179 q 276 1162 297 1179 q 243 1101 256 1144 l 222 1106 q 272 1213 228 1172 q 376 1253 317 1253 z "},"Ű":{"ha":947,"x_min":38,"x_max":910,"o":"m 910 956 q 838 941 861 953 q 806 902 814 929 q 797 822 797 875 l 797 404 q 784 233 797 304 q 740 110 771 161 q 638 15 706 50 q 486 -19 571 -19 q 253 56 333 -19 q 171 185 192 113 q 150 400 150 257 l 150 836 q 142 913 150 889 q 110 944 133 936 q 38 956 88 953 l 38 983 q 215 979 96 979 q 392 983 328 979 l 392 956 q 319 944 342 953 q 288 913 296 936 q 279 836 279 889 l 279 376 q 294 192 279 265 q 358 74 310 118 q 499 29 406 29 q 706 124 646 29 q 765 389 765 218 l 765 822 q 738 925 765 897 q 639 956 711 953 l 639 983 q 781 979 689 979 q 910 983 864 979 l 910 956 m 446 1281 q 493 1301 471 1301 q 531 1283 515 1301 q 543 1251 543 1269 q 514 1199 543 1224 q 467 1167 496 1183 q 410 1138 439 1151 q 296 1072 329 1096 l 283 1089 q 368 1190 318 1124 q 408 1240 388 1215 q 446 1281 428 1265 m 706 1281 q 753 1301 731 1301 q 790 1283 775 1301 q 803 1251 803 1269 q 774 1199 803 1224 q 727 1167 756 1183 q 669 1138 699 1151 q 556 1072 589 1096 l 543 1089 q 628 1190 578 1124 q 667 1240 647 1215 q 706 1281 688 1265 z "},"Ū":{"ha":947,"x_min":38,"x_max":910,"o":"m 910 956 q 838 941 861 953 q 806 902 814 929 q 797 822 797 875 l 797 404 q 784 233 797 304 q 740 110 771 161 q 638 15 706 50 q 486 -19 571 -19 q 253 56 333 -19 q 171 185 192 113 q 150 400 150 257 l 150 836 q 142 913 150 889 q 110 944 133 936 q 38 956 88 953 l 38 983 q 215 979 96 979 q 392 983 328 979 l 392 956 q 319 944 342 953 q 288 913 296 936 q 279 836 279 889 l 279 376 q 294 192 279 265 q 358 74 310 118 q 499 29 406 29 q 706 124 646 29 q 765 389 765 218 l 765 822 q 738 925 765 897 q 639 956 711 953 l 639 983 q 781 979 689 979 q 910 983 864 979 l 910 956 m 733 1138 l 244 1138 l 244 1172 l 733 1172 l 733 1138 z "},"Ų":{"ha":947,"x_min":38,"x_max":910,"o":"m 910 956 q 838 941 861 953 q 806 902 814 929 q 797 822 797 875 l 797 404 q 784 233 797 304 q 740 110 771 161 q 638 15 706 50 q 486 -19 571 -19 q 253 56 333 -19 q 171 185 192 113 q 150 400 150 257 l 150 836 q 142 913 150 889 q 110 944 133 936 q 38 956 88 953 l 38 983 q 215 979 96 979 q 392 983 328 979 l 392 956 q 319 944 342 953 q 288 913 296 936 q 279 836 279 889 l 279 376 q 294 192 279 265 q 358 74 310 118 q 499 29 406 29 q 706 124 646 29 q 765 389 765 218 l 765 822 q 738 925 765 897 q 639 956 711 953 l 639 983 q 781 979 689 979 q 910 983 864 979 l 910 956 m 611 4 q 502 -53 536 -15 q 468 -133 468 -92 q 484 -178 468 -161 q 528 -194 500 -194 q 576 -181 553 -194 q 613 -149 599 -168 l 633 -167 q 476 -261 571 -261 q 397 -236 426 -261 q 367 -171 367 -211 q 417 -72 367 -117 q 558 4 467 -26 l 611 4 z "},"Ů":{"ha":947,"x_min":38,"x_max":910,"o":"m 910 956 q 838 941 861 953 q 806 902 814 929 q 797 822 797 875 l 797 404 q 784 233 797 304 q 740 110 771 161 q 638 15 706 50 q 486 -19 571 -19 q 253 56 333 -19 q 171 185 192 113 q 150 400 150 257 l 150 836 q 142 913 150 889 q 110 944 133 936 q 38 956 88 953 l 38 983 q 215 979 96 979 q 392 983 328 979 l 392 956 q 319 944 342 953 q 288 913 296 936 q 279 836 279 889 l 279 376 q 294 192 279 265 q 358 74 310 118 q 499 29 406 29 q 706 124 646 29 q 765 389 765 218 l 765 822 q 738 925 765 897 q 639 956 711 953 l 639 983 q 781 979 689 979 q 910 983 864 979 l 910 956 m 489 1368 q 584 1333 544 1368 q 624 1242 624 1299 q 584 1149 624 1185 q 489 1114 544 1114 q 394 1149 433 1114 q 356 1242 356 1185 q 394 1333 356 1299 q 489 1368 433 1368 m 489 1339 q 424 1312 453 1339 q 394 1240 394 1285 q 423 1169 394 1194 q 489 1143 451 1143 q 556 1169 526 1143 q 585 1240 585 1194 q 556 1313 585 1286 q 489 1339 526 1339 z "},"Ũ":{"ha":947,"x_min":38,"x_max":910,"o":"m 910 956 q 838 941 861 953 q 806 902 814 929 q 797 822 797 875 l 797 404 q 784 233 797 304 q 740 110 771 161 q 638 15 706 50 q 486 -19 571 -19 q 253 56 333 -19 q 171 185 192 113 q 150 400 150 257 l 150 836 q 142 913 150 889 q 110 944 133 936 q 38 956 88 953 l 38 983 q 215 979 96 979 q 392 983 328 979 l 392 956 q 319 944 342 953 q 288 913 296 936 q 279 836 279 889 l 279 376 q 294 192 279 265 q 358 74 310 118 q 499 29 406 29 q 706 124 646 29 q 765 389 765 218 l 765 822 q 738 925 765 897 q 639 956 711 953 l 639 983 q 781 979 689 979 q 910 983 864 979 l 910 956 m 376 1253 q 442 1239 411 1253 q 515 1197 472 1225 q 590 1158 564 1169 q 646 1146 615 1146 q 732 1224 710 1146 l 753 1219 q 703 1113 747 1153 q 599 1072 658 1072 q 533 1086 564 1072 q 460 1128 503 1100 q 385 1167 411 1156 q 329 1179 360 1179 q 276 1162 297 1179 q 243 1101 256 1144 l 222 1106 q 272 1213 228 1172 q 376 1253 317 1253 z "},"V":{"ha":875,"x_min":-8,"x_max":885,"o":"m 781 979 q 885 983 843 979 l 885 956 q 775 835 815 939 l 449 -7 l 438 -7 l 426 -7 l 88 867 q -8 956 54 953 l -8 983 q 140 979 47 979 q 318 983 260 979 l 318 956 q 242 942 265 953 q 219 904 219 932 q 236 839 219 881 l 488 171 l 714 758 q 742 872 742 833 q 712 935 742 915 q 621 956 682 954 l 621 983 q 781 979 700 979 z "},"W":{"ha":1257,"x_min":-10,"x_max":1260,"o":"m 1156 979 q 1260 983 1218 979 l 1260 956 q 1150 835 1182 938 l 888 -7 l 876 -7 l 865 -7 l 624 708 l 403 -7 l 392 -7 l 381 -7 l 86 867 q -10 956 57 953 l -10 983 q 139 979 47 979 q 289 983 239 979 l 289 956 q 236 942 251 953 q 221 907 221 931 q 236 839 221 885 l 439 219 l 608 757 l 571 867 q 489 956 543 953 l 489 983 q 624 979 539 979 q 801 983 743 979 l 801 956 q 728 944 749 953 q 707 906 707 935 q 721 839 707 881 l 921 221 l 1092 758 q 1114 871 1114 826 q 1086 935 1114 917 q 996 956 1058 954 l 996 983 q 1156 979 1075 979 z "},"Ẃ":{"ha":1257,"x_min":-10,"x_max":1260,"o":"m 1156 979 q 1260 983 1218 979 l 1260 956 q 1150 835 1182 938 l 888 -7 l 876 -7 l 865 -7 l 624 708 l 403 -7 l 392 -7 l 381 -7 l 86 867 q -10 956 57 953 l -10 983 q 139 979 47 979 q 289 983 239 979 l 289 956 q 236 942 251 953 q 221 907 221 931 q 236 839 221 885 l 439 219 l 608 757 l 571 867 q 489 956 543 953 l 489 983 q 624 979 539 979 q 801 983 743 979 l 801 956 q 728 944 749 953 q 707 906 707 935 q 721 839 707 881 l 921 221 l 1092 758 q 1114 871 1114 826 q 1086 935 1114 917 q 996 956 1058 954 l 996 983 q 1156 979 1075 979 m 793 1286 q 835 1300 815 1300 q 878 1276 861 1300 q 886 1250 886 1264 q 849 1196 886 1219 q 749 1151 819 1178 q 569 1072 644 1110 l 560 1090 q 658 1170 617 1133 q 708 1215 699 1207 q 793 1286 760 1264 z "},"Ŵ":{"ha":1257,"x_min":-10,"x_max":1260,"o":"m 1156 979 q 1260 983 1218 979 l 1260 956 q 1150 835 1182 938 l 888 -7 l 876 -7 l 865 -7 l 624 708 l 403 -7 l 392 -7 l 381 -7 l 86 867 q -10 956 57 953 l -10 983 q 139 979 47 979 q 289 983 239 979 l 289 956 q 236 942 251 953 q 221 907 221 931 q 236 839 221 885 l 439 219 l 608 757 l 571 867 q 489 956 543 953 l 489 983 q 624 979 539 979 q 801 983 743 979 l 801 956 q 728 944 749 953 q 707 906 707 935 q 721 839 707 881 l 921 221 l 1092 758 q 1114 871 1114 826 q 1086 935 1114 917 q 996 956 1058 954 l 996 983 q 1156 979 1075 979 m 657 1272 q 759 1169 690 1218 q 917 1089 828 1119 l 910 1069 q 745 1114 826 1088 q 617 1167 664 1140 q 512 1114 578 1140 q 379 1069 446 1088 l 372 1089 q 530 1169 461 1119 q 632 1272 599 1218 l 657 1272 z "},"Ẅ":{"ha":1257,"x_min":-10,"x_max":1260,"o":"m 1156 979 q 1260 983 1218 979 l 1260 956 q 1150 835 1182 938 l 888 -7 l 876 -7 l 865 -7 l 624 708 l 403 -7 l 392 -7 l 381 -7 l 86 867 q -10 956 57 953 l -10 983 q 139 979 47 979 q 289 983 239 979 l 289 956 q 236 942 251 953 q 221 907 221 931 q 236 839 221 885 l 439 219 l 608 757 l 571 867 q 489 956 543 953 l 489 983 q 624 979 539 979 q 801 983 743 979 l 801 956 q 728 944 749 953 q 707 906 707 935 q 721 839 707 881 l 921 221 l 1092 758 q 1114 871 1114 826 q 1086 935 1114 917 q 996 956 1058 954 l 996 983 q 1156 979 1075 979 m 497 1233 q 553 1209 529 1233 q 578 1153 578 1185 q 553 1096 578 1119 q 497 1072 529 1072 q 440 1096 464 1072 q 417 1153 417 1119 q 440 1209 417 1185 q 497 1233 464 1233 m 792 1233 q 848 1209 824 1233 q 872 1153 872 1185 q 848 1096 872 1119 q 792 1072 824 1072 q 735 1096 758 1072 q 711 1153 711 1119 q 735 1209 711 1185 q 792 1233 758 1233 z "},"Ẁ":{"ha":1257,"x_min":-10,"x_max":1260,"o":"m 1156 979 q 1260 983 1218 979 l 1260 956 q 1150 835 1182 938 l 888 -7 l 876 -7 l 865 -7 l 624 708 l 403 -7 l 392 -7 l 381 -7 l 86 867 q -10 956 57 953 l -10 983 q 139 979 47 979 q 289 983 239 979 l 289 956 q 236 942 251 953 q 221 907 221 931 q 236 839 221 885 l 439 219 l 608 757 l 571 867 q 489 956 543 953 l 489 983 q 624 979 539 979 q 801 983 743 979 l 801 956 q 728 944 749 953 q 707 906 707 935 q 721 839 707 881 l 921 221 l 1092 758 q 1114 871 1114 826 q 1086 935 1114 917 q 996 956 1058 954 l 996 983 q 1156 979 1075 979 m 504 1286 q 589 1215 538 1264 q 640 1170 599 1207 q 738 1090 681 1133 l 728 1072 q 549 1151 653 1110 q 449 1196 478 1178 q 411 1250 411 1219 q 419 1276 411 1264 q 463 1300 436 1300 q 504 1286 482 1300 z "},"X":{"ha":881,"x_min":22,"x_max":871,"o":"m 778 99 q 822 44 804 58 q 871 29 840 31 l 871 0 q 751 6 776 6 q 556 0 706 6 l 556 29 q 632 34 610 29 q 654 51 654 39 q 644 76 654 63 l 407 440 l 257 217 q 204 94 204 138 q 236 44 204 58 q 328 28 268 29 l 328 0 q 140 4 249 4 q 22 0 64 4 l 22 28 q 102 65 64 33 q 179 156 140 97 l 389 468 l 117 885 q 72 939 90 925 q 24 954 54 953 l 24 983 q 143 978 118 978 q 339 983 236 978 l 339 954 q 267 947 289 954 q 246 924 246 939 q 258 893 246 915 l 475 563 l 611 767 q 671 900 671 854 q 644 942 671 929 q 564 956 618 954 l 564 983 q 724 979 643 979 q 842 983 800 979 l 842 956 q 762 918 800 950 q 685 828 724 886 l 490 538 l 778 99 z "},"Y":{"ha":821,"x_min":-4,"x_max":817,"o":"m 713 979 q 817 983 775 979 l 817 956 q 763 920 789 949 q 706 832 736 892 l 488 400 l 488 147 q 496 71 488 94 q 527 39 504 47 q 600 28 550 31 l 600 0 q 424 4 536 4 q 246 0 304 4 l 246 28 q 319 39 296 31 q 350 71 342 47 q 358 147 358 94 l 358 356 l 76 876 q 33 938 51 922 q -4 954 14 954 l -4 983 q 118 979 50 979 q 313 983 253 979 l 313 954 q 215 901 215 954 q 229 853 215 881 l 460 410 l 638 763 q 675 882 675 836 q 644 938 675 921 q 553 956 614 954 l 553 983 q 713 979 632 979 z "},"Ý":{"ha":821,"x_min":-4,"x_max":817,"o":"m 713 979 q 817 983 775 979 l 817 956 q 763 920 789 949 q 706 832 736 892 l 488 400 l 488 147 q 496 71 488 94 q 527 39 504 47 q 600 28 550 31 l 600 0 q 424 4 536 4 q 246 0 304 4 l 246 28 q 319 39 296 31 q 350 71 342 47 q 358 147 358 94 l 358 356 l 76 876 q 33 938 51 922 q -4 954 14 954 l -4 983 q 118 979 50 979 q 313 983 253 979 l 313 954 q 215 901 215 954 q 229 853 215 881 l 460 410 l 638 763 q 675 882 675 836 q 644 938 675 921 q 553 956 614 954 l 553 983 q 713 979 632 979 m 571 1286 q 613 1300 593 1300 q 656 1276 639 1300 q 664 1250 664 1264 q 626 1196 664 1219 q 526 1151 597 1178 q 347 1072 422 1110 l 338 1090 q 435 1170 394 1133 q 486 1215 476 1207 q 571 1286 538 1264 z "},"Ŷ":{"ha":821,"x_min":-4,"x_max":817,"o":"m 713 979 q 817 983 775 979 l 817 956 q 763 920 789 949 q 706 832 736 892 l 488 400 l 488 147 q 496 71 488 94 q 527 39 504 47 q 600 28 550 31 l 600 0 q 424 4 536 4 q 246 0 304 4 l 246 28 q 319 39 296 31 q 350 71 342 47 q 358 147 358 94 l 358 356 l 76 876 q 33 938 51 922 q -4 954 14 954 l -4 983 q 118 979 50 979 q 313 983 253 979 l 313 954 q 215 901 215 954 q 229 853 215 881 l 460 410 l 638 763 q 675 882 675 836 q 644 938 675 921 q 553 956 614 954 l 553 983 q 713 979 632 979 m 435 1272 q 537 1169 468 1218 q 694 1089 606 1119 l 688 1069 q 523 1114 604 1088 q 394 1167 442 1140 q 290 1114 356 1140 q 157 1069 224 1088 l 150 1089 q 308 1169 239 1119 q 410 1272 376 1218 l 435 1272 z "},"Ÿ":{"ha":821,"x_min":-4,"x_max":817,"o":"m 713 979 q 817 983 775 979 l 817 956 q 763 920 789 949 q 706 832 736 892 l 488 400 l 488 147 q 496 71 488 94 q 527 39 504 47 q 600 28 550 31 l 600 0 q 424 4 536 4 q 246 0 304 4 l 246 28 q 319 39 296 31 q 350 71 342 47 q 358 147 358 94 l 358 356 l 76 876 q 33 938 51 922 q -4 954 14 954 l -4 983 q 118 979 50 979 q 313 983 253 979 l 313 954 q 215 901 215 954 q 229 853 215 881 l 460 410 l 638 763 q 675 882 675 836 q 644 938 675 921 q 553 956 614 954 l 553 983 q 713 979 632 979 m 275 1233 q 331 1209 307 1233 q 356 1153 356 1185 q 331 1096 356 1119 q 275 1072 307 1072 q 218 1096 242 1072 q 194 1153 194 1119 q 218 1209 194 1185 q 275 1233 242 1233 m 569 1233 q 626 1209 601 1233 q 650 1153 650 1185 q 626 1096 650 1119 q 569 1072 601 1072 q 513 1096 536 1072 q 489 1153 489 1119 q 513 1209 489 1185 q 569 1233 536 1233 z "},"Ỵ":{"ha":821,"x_min":-4,"x_max":817,"o":"m 713 979 q 817 983 775 979 l 817 956 q 763 920 789 949 q 706 832 736 892 l 488 400 l 488 147 q 496 71 488 94 q 527 39 504 47 q 600 28 550 31 l 600 0 q 424 4 536 4 q 246 0 304 4 l 246 28 q 319 39 296 31 q 350 71 342 47 q 358 147 358 94 l 358 356 l 76 876 q 33 938 51 922 q -4 954 14 954 l -4 983 q 118 979 50 979 q 313 983 253 979 l 313 954 q 215 901 215 954 q 229 853 215 881 l 460 410 l 638 763 q 675 882 675 836 q 644 938 675 921 q 553 956 614 954 l 553 983 q 713 979 632 979 m 411 -251 q 354 -229 378 -251 q 331 -174 331 -207 q 353 -118 331 -140 q 411 -96 375 -96 q 469 -119 447 -96 q 492 -175 492 -142 q 468 -231 492 -210 q 411 -251 444 -251 z "},"Ỳ":{"ha":821,"x_min":-4,"x_max":817,"o":"m 713 979 q 817 983 775 979 l 817 956 q 763 920 789 949 q 706 832 736 892 l 488 400 l 488 147 q 496 71 488 94 q 527 39 504 47 q 600 28 550 31 l 600 0 q 424 4 536 4 q 246 0 304 4 l 246 28 q 319 39 296 31 q 350 71 342 47 q 358 147 358 94 l 358 356 l 76 876 q 33 938 51 922 q -4 954 14 954 l -4 983 q 118 979 50 979 q 313 983 253 979 l 313 954 q 215 901 215 954 q 229 853 215 881 l 460 410 l 638 763 q 675 882 675 836 q 644 938 675 921 q 553 956 614 954 l 553 983 q 713 979 632 979 m 282 1286 q 367 1215 315 1264 q 417 1170 376 1207 q 515 1090 458 1133 l 506 1072 q 326 1151 431 1110 q 226 1196 256 1178 q 189 1250 189 1219 q 197 1276 189 1264 q 240 1300 214 1300 q 282 1286 260 1300 z "},"Ỷ":{"ha":821,"x_min":-4,"x_max":817,"o":"m 713 979 q 817 983 775 979 l 817 956 q 763 920 789 949 q 706 832 736 892 l 488 400 l 488 147 q 496 71 488 94 q 527 39 504 47 q 600 28 550 31 l 600 0 q 424 4 536 4 q 246 0 304 4 l 246 28 q 319 39 296 31 q 350 71 342 47 q 358 147 358 94 l 358 356 l 76 876 q 33 938 51 922 q -4 954 14 954 l -4 983 q 118 979 50 979 q 313 983 253 979 l 313 954 q 215 901 215 954 q 229 853 215 881 l 460 410 l 638 763 q 675 882 675 836 q 644 938 675 921 q 553 956 614 954 l 553 983 q 713 979 632 979 m 408 1140 q 500 1244 500 1176 q 473 1304 500 1283 q 403 1325 446 1325 q 336 1303 356 1325 q 369 1284 357 1299 q 381 1246 381 1269 q 363 1201 381 1218 q 318 1185 344 1185 q 275 1201 292 1185 q 258 1243 258 1217 q 274 1290 258 1268 q 313 1325 289 1311 q 429 1353 361 1353 q 545 1328 494 1353 q 596 1253 596 1303 q 553 1176 596 1208 q 436 1128 511 1143 l 436 1064 l 408 1064 l 408 1140 z "},"Ỹ":{"ha":821,"x_min":-4,"x_max":817,"o":"m 713 979 q 817 983 775 979 l 817 956 q 763 920 789 949 q 706 832 736 892 l 488 400 l 488 147 q 496 71 488 94 q 527 39 504 47 q 600 28 550 31 l 600 0 q 424 4 536 4 q 246 0 304 4 l 246 28 q 319 39 296 31 q 350 71 342 47 q 358 147 358 94 l 358 356 l 76 876 q 33 938 51 922 q -4 954 14 954 l -4 983 q 118 979 50 979 q 313 983 253 979 l 313 954 q 215 901 215 954 q 229 853 215 881 l 460 410 l 638 763 q 675 882 675 836 q 644 938 675 921 q 553 956 614 954 l 553 983 q 713 979 632 979 m 310 1253 q 375 1239 344 1253 q 449 1197 406 1225 q 523 1158 497 1169 q 579 1146 549 1146 q 665 1224 643 1146 l 686 1219 q 636 1113 681 1153 q 532 1072 592 1072 q 467 1086 497 1072 q 393 1128 436 1100 q 319 1167 344 1156 q 263 1179 293 1179 q 210 1162 231 1179 q 176 1101 189 1144 l 156 1106 q 206 1213 161 1172 q 310 1253 250 1253 z "},"Z":{"ha":825,"x_min":58,"x_max":764,"o":"m 764 956 l 210 32 l 482 32 q 613 56 568 32 q 679 135 658 81 q 710 292 700 189 l 742 292 q 738 178 738 249 q 747 0 738 99 q 401 4 644 4 q 58 0 164 4 l 58 28 l 617 951 l 346 951 q 215 927 260 951 q 149 849 169 903 q 118 692 128 794 l 86 692 q 90 806 90 736 q 81 983 90 885 q 426 979 183 979 q 764 983 663 979 l 764 956 z "},"Ź":{"ha":825,"x_min":58,"x_max":764,"o":"m 764 956 l 210 32 l 482 32 q 613 56 568 32 q 679 135 658 81 q 710 292 700 189 l 742 292 q 738 178 738 249 q 747 0 738 99 q 401 4 644 4 q 58 0 164 4 l 58 28 l 617 951 l 346 951 q 215 927 260 951 q 149 849 169 903 q 118 692 128 794 l 86 692 q 90 806 90 736 q 81 983 90 885 q 426 979 183 979 q 764 983 663 979 l 764 956 m 558 1286 q 600 1300 581 1300 q 643 1276 626 1300 q 651 1250 651 1264 q 614 1196 651 1219 q 514 1151 585 1178 q 335 1072 410 1110 l 325 1090 q 423 1170 382 1133 q 474 1215 464 1207 q 558 1286 525 1264 z "},"Ž":{"ha":825,"x_min":58,"x_max":764,"o":"m 764 956 l 210 32 l 482 32 q 613 56 568 32 q 679 135 658 81 q 710 292 700 189 l 742 292 q 738 178 738 249 q 747 0 738 99 q 401 4 644 4 q 58 0 164 4 l 58 28 l 617 951 l 346 951 q 215 927 260 951 q 149 849 169 903 q 118 692 128 794 l 86 692 q 90 806 90 736 q 81 983 90 885 q 426 979 183 979 q 764 983 663 979 l 764 956 m 678 1267 q 520 1187 589 1236 q 418 1083 451 1138 l 393 1083 q 291 1187 360 1138 q 133 1267 222 1236 l 140 1286 q 305 1242 224 1268 q 433 1189 386 1215 q 538 1242 472 1215 q 671 1286 604 1268 l 678 1267 z "},"Ż":{"ha":825,"x_min":58,"x_max":764,"o":"m 764 956 l 210 32 l 482 32 q 613 56 568 32 q 679 135 658 81 q 710 292 700 189 l 742 292 q 738 178 738 249 q 747 0 738 99 q 401 4 644 4 q 58 0 164 4 l 58 28 l 617 951 l 346 951 q 215 927 260 951 q 149 849 169 903 q 118 692 128 794 l 86 692 q 90 806 90 736 q 81 983 90 885 q 426 979 183 979 q 764 983 663 979 l 764 956 m 410 1332 q 472 1306 446 1332 q 499 1243 499 1279 q 472 1181 499 1207 q 410 1154 446 1154 q 347 1181 374 1154 q 321 1243 321 1207 q 347 1306 321 1279 q 410 1332 374 1332 z "},"a":{"ha":692,"x_min":54,"x_max":690,"o":"m 226 -10 q 97 34 139 -10 q 54 156 54 78 q 88 258 54 218 q 169 322 122 299 q 292 372 215 346 q 407 421 369 399 q 444 481 444 443 l 444 567 q 410 677 444 647 q 315 707 376 707 q 178 657 218 707 q 224 628 206 650 q 243 572 243 606 q 221 517 243 538 q 164 497 199 497 q 106 522 125 497 q 86 581 86 546 q 102 636 86 614 q 150 681 118 658 q 235 719 183 704 q 347 735 286 735 q 511 683 456 735 q 558 606 546 651 q 569 488 569 561 l 569 101 q 579 51 569 67 q 613 36 589 36 q 644 44 629 36 q 675 65 658 51 l 690 42 q 628 2 654 14 q 564 -10 603 -10 q 471 24 497 -10 q 444 114 444 57 q 349 17 403 44 q 226 -10 294 -10 m 288 46 q 444 151 379 46 l 444 424 q 410 392 432 404 q 342 358 388 379 q 256 316 289 336 q 200 261 224 296 q 176 172 176 226 q 207 78 176 110 q 288 46 238 46 z "},"á":{"ha":692,"x_min":54,"x_max":690,"o":"m 226 -10 q 97 34 139 -10 q 54 156 54 78 q 88 258 54 218 q 169 322 122 299 q 292 372 215 346 q 407 421 369 399 q 444 481 444 443 l 444 567 q 410 677 444 647 q 315 707 376 707 q 178 657 218 707 q 224 628 206 650 q 243 572 243 606 q 221 517 243 538 q 164 497 199 497 q 106 522 125 497 q 86 581 86 546 q 102 636 86 614 q 150 681 118 658 q 235 719 183 704 q 347 735 286 735 q 511 683 456 735 q 558 606 546 651 q 569 488 569 561 l 569 101 q 579 51 569 67 q 613 36 589 36 q 644 44 629 36 q 675 65 658 51 l 690 42 q 628 2 654 14 q 564 -10 603 -10 q 471 24 497 -10 q 444 114 444 57 q 349 17 403 44 q 226 -10 294 -10 m 288 46 q 444 151 379 46 l 444 424 q 410 392 432 404 q 342 358 388 379 q 256 316 289 336 q 200 261 224 296 q 176 172 176 226 q 207 78 176 110 q 288 46 238 46 m 490 1129 q 510 1090 510 1113 q 490 1043 510 1069 q 411 967 463 1008 q 360 920 401 958 q 271 832 319 882 l 256 844 q 351 1013 307 926 q 407 1108 383 1076 q 460 1139 429 1139 q 490 1129 479 1139 z "},"ă":{"ha":692,"x_min":54,"x_max":690,"o":"m 226 -10 q 97 34 139 -10 q 54 156 54 78 q 88 258 54 218 q 169 322 122 299 q 292 372 215 346 q 407 421 369 399 q 444 481 444 443 l 444 567 q 410 677 444 647 q 315 707 376 707 q 178 657 218 707 q 224 628 206 650 q 243 572 243 606 q 221 517 243 538 q 164 497 199 497 q 106 522 125 497 q 86 581 86 546 q 102 636 86 614 q 150 681 118 658 q 235 719 183 704 q 347 735 286 735 q 511 683 456 735 q 558 606 546 651 q 569 488 569 561 l 569 101 q 579 51 569 67 q 613 36 589 36 q 644 44 629 36 q 675 65 658 51 l 690 42 q 628 2 654 14 q 564 -10 603 -10 q 471 24 497 -10 q 444 114 444 57 q 349 17 403 44 q 226 -10 294 -10 m 288 46 q 444 151 379 46 l 444 424 q 410 392 432 404 q 342 358 388 379 q 256 316 289 336 q 200 261 224 296 q 176 172 176 226 q 207 78 176 110 q 288 46 238 46 m 589 1082 q 491 939 554 999 q 340 879 428 879 q 190 939 253 879 q 92 1082 126 999 l 115 1094 q 340 961 196 961 q 565 1094 485 961 l 589 1082 z "},"ắ":{"ha":692,"x_min":54,"x_max":690,"o":"m 226 -10 q 97 34 139 -10 q 54 156 54 78 q 88 258 54 218 q 169 322 122 299 q 292 372 215 346 q 407 421 369 399 q 444 481 444 443 l 444 567 q 410 677 444 647 q 315 707 376 707 q 178 657 218 707 q 224 628 206 650 q 243 572 243 606 q 221 517 243 538 q 164 497 199 497 q 106 522 125 497 q 86 581 86 546 q 102 636 86 614 q 150 681 118 658 q 235 719 183 704 q 347 735 286 735 q 511 683 456 735 q 558 606 546 651 q 569 488 569 561 l 569 101 q 579 51 569 67 q 613 36 589 36 q 644 44 629 36 q 675 65 658 51 l 690 42 q 628 2 654 14 q 564 -10 603 -10 q 471 24 497 -10 q 444 114 444 57 q 349 17 403 44 q 226 -10 294 -10 m 288 46 q 444 151 379 46 l 444 424 q 410 392 432 404 q 342 358 388 379 q 256 316 289 336 q 200 261 224 296 q 176 172 176 226 q 207 78 176 110 q 288 46 238 46 m 589 1082 q 491 939 554 999 q 340 879 428 879 q 190 939 253 879 q 92 1082 126 999 l 115 1094 q 340 961 196 961 q 565 1094 485 961 l 589 1082 m 489 1399 q 508 1360 508 1382 q 489 1313 508 1339 q 410 1236 461 1278 q 359 1190 400 1228 q 269 1101 318 1151 l 254 1114 q 350 1282 306 1196 q 406 1378 382 1346 q 458 1408 428 1408 q 489 1399 478 1408 z "},"ặ":{"ha":692,"x_min":54,"x_max":690,"o":"m 226 -10 q 97 34 139 -10 q 54 156 54 78 q 88 258 54 218 q 169 322 122 299 q 292 372 215 346 q 407 421 369 399 q 444 481 444 443 l 444 567 q 410 677 444 647 q 315 707 376 707 q 178 657 218 707 q 224 628 206 650 q 243 572 243 606 q 221 517 243 538 q 164 497 199 497 q 106 522 125 497 q 86 581 86 546 q 102 636 86 614 q 150 681 118 658 q 235 719 183 704 q 347 735 286 735 q 511 683 456 735 q 558 606 546 651 q 569 488 569 561 l 569 101 q 579 51 569 67 q 613 36 589 36 q 644 44 629 36 q 675 65 658 51 l 690 42 q 628 2 654 14 q 564 -10 603 -10 q 471 24 497 -10 q 444 114 444 57 q 349 17 403 44 q 226 -10 294 -10 m 288 46 q 444 151 379 46 l 444 424 q 410 392 432 404 q 342 358 388 379 q 256 316 289 336 q 200 261 224 296 q 176 172 176 226 q 207 78 176 110 q 288 46 238 46 m 589 1082 q 491 939 554 999 q 340 879 428 879 q 190 939 253 879 q 92 1082 126 999 l 115 1094 q 340 961 196 961 q 565 1094 485 961 l 589 1082 m 346 -251 q 289 -229 313 -251 q 265 -174 265 -207 q 288 -118 265 -140 q 346 -96 310 -96 q 404 -119 382 -96 q 426 -175 426 -142 q 403 -231 426 -210 q 346 -251 379 -251 z "},"ằ":{"ha":692,"x_min":54,"x_max":690,"o":"m 226 -10 q 97 34 139 -10 q 54 156 54 78 q 88 258 54 218 q 169 322 122 299 q 292 372 215 346 q 407 421 369 399 q 444 481 444 443 l 444 567 q 410 677 444 647 q 315 707 376 707 q 178 657 218 707 q 224 628 206 650 q 243 572 243 606 q 221 517 243 538 q 164 497 199 497 q 106 522 125 497 q 86 581 86 546 q 102 636 86 614 q 150 681 118 658 q 235 719 183 704 q 347 735 286 735 q 511 683 456 735 q 558 606 546 651 q 569 488 569 561 l 569 101 q 579 51 569 67 q 613 36 589 36 q 644 44 629 36 q 675 65 658 51 l 690 42 q 628 2 654 14 q 564 -10 603 -10 q 471 24 497 -10 q 444 114 444 57 q 349 17 403 44 q 226 -10 294 -10 m 288 46 q 444 151 379 46 l 444 424 q 410 392 432 404 q 342 358 388 379 q 256 316 289 336 q 200 261 224 296 q 176 172 176 226 q 207 78 176 110 q 288 46 238 46 m 589 1082 q 491 939 554 999 q 340 879 428 879 q 190 939 253 879 q 92 1082 126 999 l 115 1094 q 340 961 196 961 q 565 1094 485 961 l 589 1082 m 169 1399 q 200 1408 181 1408 q 253 1378 229 1408 q 308 1282 276 1346 q 404 1114 353 1196 l 389 1101 q 299 1190 340 1151 q 249 1236 258 1228 q 169 1313 197 1278 q 150 1360 150 1339 q 169 1399 150 1382 z "},"ẳ":{"ha":692,"x_min":54,"x_max":690,"o":"m 226 -10 q 97 34 139 -10 q 54 156 54 78 q 88 258 54 218 q 169 322 122 299 q 292 372 215 346 q 407 421 369 399 q 444 481 444 443 l 444 567 q 410 677 444 647 q 315 707 376 707 q 178 657 218 707 q 224 628 206 650 q 243 572 243 606 q 221 517 243 538 q 164 497 199 497 q 106 522 125 497 q 86 581 86 546 q 102 636 86 614 q 150 681 118 658 q 235 719 183 704 q 347 735 286 735 q 511 683 456 735 q 558 606 546 651 q 569 488 569 561 l 569 101 q 579 51 569 67 q 613 36 589 36 q 644 44 629 36 q 675 65 658 51 l 690 42 q 628 2 654 14 q 564 -10 603 -10 q 471 24 497 -10 q 444 114 444 57 q 349 17 403 44 q 226 -10 294 -10 m 288 46 q 444 151 379 46 l 444 424 q 410 392 432 404 q 342 358 388 379 q 256 316 289 336 q 200 261 224 296 q 176 172 176 226 q 207 78 176 110 q 288 46 238 46 m 589 1082 q 491 939 554 999 q 340 879 428 879 q 190 939 253 879 q 92 1082 126 999 l 115 1094 q 340 961 196 961 q 565 1094 485 961 l 589 1082 m 326 1168 q 407 1219 382 1190 q 432 1290 432 1249 q 409 1356 432 1331 q 346 1381 386 1381 q 282 1358 301 1381 q 315 1340 303 1354 q 326 1301 326 1325 q 308 1257 326 1274 q 264 1240 290 1240 q 221 1256 238 1240 q 204 1299 204 1272 q 219 1345 204 1324 q 258 1381 235 1367 q 372 1408 304 1408 q 483 1378 439 1408 q 528 1297 528 1349 q 480 1210 528 1246 q 354 1156 432 1174 l 354 1092 l 326 1092 l 326 1168 z "},"ẵ":{"ha":692,"x_min":54,"x_max":690,"o":"m 226 -10 q 97 34 139 -10 q 54 156 54 78 q 88 258 54 218 q 169 322 122 299 q 292 372 215 346 q 407 421 369 399 q 444 481 444 443 l 444 567 q 410 677 444 647 q 315 707 376 707 q 178 657 218 707 q 224 628 206 650 q 243 572 243 606 q 221 517 243 538 q 164 497 199 497 q 106 522 125 497 q 86 581 86 546 q 102 636 86 614 q 150 681 118 658 q 235 719 183 704 q 347 735 286 735 q 511 683 456 735 q 558 606 546 651 q 569 488 569 561 l 569 101 q 579 51 569 67 q 613 36 589 36 q 644 44 629 36 q 675 65 658 51 l 690 42 q 628 2 654 14 q 564 -10 603 -10 q 471 24 497 -10 q 444 114 444 57 q 349 17 403 44 q 226 -10 294 -10 m 288 46 q 444 151 379 46 l 444 424 q 410 392 432 404 q 342 358 388 379 q 256 316 289 336 q 200 261 224 296 q 176 172 176 226 q 207 78 176 110 q 288 46 238 46 m 589 1082 q 491 939 554 999 q 340 879 428 879 q 190 939 253 879 q 92 1082 126 999 l 115 1094 q 340 961 196 961 q 565 1094 485 961 l 589 1082 m 238 1336 q 299 1323 272 1336 q 354 1286 325 1310 q 402 1255 382 1265 q 447 1244 422 1244 q 554 1318 510 1244 l 574 1308 q 509 1200 553 1235 q 410 1165 465 1165 q 349 1178 374 1165 q 292 1215 324 1190 q 243 1248 263 1238 q 199 1258 224 1258 q 92 1183 138 1258 l 72 1193 q 137 1301 93 1267 q 238 1336 181 1336 z "},"ǎ":{"ha":692,"x_min":54,"x_max":690,"o":"m 226 -10 q 97 34 139 -10 q 54 156 54 78 q 88 258 54 218 q 169 322 122 299 q 292 372 215 346 q 407 421 369 399 q 444 481 444 443 l 444 567 q 410 677 444 647 q 315 707 376 707 q 178 657 218 707 q 224 628 206 650 q 243 572 243 606 q 221 517 243 538 q 164 497 199 497 q 106 522 125 497 q 86 581 86 546 q 102 636 86 614 q 150 681 118 658 q 235 719 183 704 q 347 735 286 735 q 511 683 456 735 q 558 606 546 651 q 569 488 569 561 l 569 101 q 579 51 569 67 q 613 36 589 36 q 644 44 629 36 q 675 65 658 51 l 690 42 q 628 2 654 14 q 564 -10 603 -10 q 471 24 497 -10 q 444 114 444 57 q 349 17 403 44 q 226 -10 294 -10 m 288 46 q 444 151 379 46 l 444 424 q 410 392 432 404 q 342 358 388 379 q 256 316 289 336 q 200 261 224 296 q 176 172 176 226 q 207 78 176 110 q 288 46 238 46 m 572 1094 q 431 991 493 1056 q 340 856 369 926 l 315 856 q 224 991 286 926 q 83 1094 163 1056 l 94 1114 q 241 1050 169 1088 q 356 975 313 1013 q 447 1050 390 1013 q 561 1114 503 1088 l 572 1094 z "},"â":{"ha":692,"x_min":54,"x_max":690,"o":"m 226 -10 q 97 34 139 -10 q 54 156 54 78 q 88 258 54 218 q 169 322 122 299 q 292 372 215 346 q 407 421 369 399 q 444 481 444 443 l 444 567 q 410 677 444 647 q 315 707 376 707 q 178 657 218 707 q 224 628 206 650 q 243 572 243 606 q 221 517 243 538 q 164 497 199 497 q 106 522 125 497 q 86 581 86 546 q 102 636 86 614 q 150 681 118 658 q 235 719 183 704 q 347 735 286 735 q 511 683 456 735 q 558 606 546 651 q 569 488 569 561 l 569 101 q 579 51 569 67 q 613 36 589 36 q 644 44 629 36 q 675 65 658 51 l 690 42 q 628 2 654 14 q 564 -10 603 -10 q 471 24 497 -10 q 444 114 444 57 q 349 17 403 44 q 226 -10 294 -10 m 288 46 q 444 151 379 46 l 444 424 q 410 392 432 404 q 342 358 388 379 q 256 316 289 336 q 200 261 224 296 q 176 172 176 226 q 207 78 176 110 q 288 46 238 46 m 354 1114 q 445 978 383 1043 q 586 875 507 914 l 575 856 q 428 919 500 882 q 314 994 357 957 q 223 919 279 957 q 108 856 167 882 l 97 875 q 238 978 176 914 q 329 1114 300 1043 l 354 1114 z "},"ấ":{"ha":692,"x_min":54,"x_max":690,"o":"m 226 -10 q 97 34 139 -10 q 54 156 54 78 q 88 258 54 218 q 169 322 122 299 q 292 372 215 346 q 407 421 369 399 q 444 481 444 443 l 444 567 q 410 677 444 647 q 315 707 376 707 q 178 657 218 707 q 224 628 206 650 q 243 572 243 606 q 221 517 243 538 q 164 497 199 497 q 106 522 125 497 q 86 581 86 546 q 102 636 86 614 q 150 681 118 658 q 235 719 183 704 q 347 735 286 735 q 511 683 456 735 q 558 606 546 651 q 569 488 569 561 l 569 101 q 579 51 569 67 q 613 36 589 36 q 644 44 629 36 q 675 65 658 51 l 690 42 q 628 2 654 14 q 564 -10 603 -10 q 471 24 497 -10 q 444 114 444 57 q 349 17 403 44 q 226 -10 294 -10 m 288 46 q 444 151 379 46 l 444 424 q 410 392 432 404 q 342 358 388 379 q 256 316 289 336 q 200 261 224 296 q 176 172 176 226 q 207 78 176 110 q 288 46 238 46 m 354 1114 q 445 978 383 1043 q 586 875 507 914 l 575 856 q 428 919 500 882 q 314 994 357 957 q 223 919 279 957 q 108 856 167 882 l 97 875 q 238 978 176 914 q 329 1114 300 1043 l 354 1114 m 478 1468 q 497 1429 497 1451 q 478 1382 497 1408 q 399 1306 450 1347 q 348 1259 389 1297 q 258 1171 307 1221 l 243 1183 q 339 1351 294 1265 q 394 1447 371 1415 q 447 1478 417 1478 q 478 1468 467 1478 z "},"ậ":{"ha":692,"x_min":54,"x_max":690,"o":"m 226 -10 q 97 34 139 -10 q 54 156 54 78 q 88 258 54 218 q 169 322 122 299 q 292 372 215 346 q 407 421 369 399 q 444 481 444 443 l 444 567 q 410 677 444 647 q 315 707 376 707 q 178 657 218 707 q 224 628 206 650 q 243 572 243 606 q 221 517 243 538 q 164 497 199 497 q 106 522 125 497 q 86 581 86 546 q 102 636 86 614 q 150 681 118 658 q 235 719 183 704 q 347 735 286 735 q 511 683 456 735 q 558 606 546 651 q 569 488 569 561 l 569 101 q 579 51 569 67 q 613 36 589 36 q 644 44 629 36 q 675 65 658 51 l 690 42 q 628 2 654 14 q 564 -10 603 -10 q 471 24 497 -10 q 444 114 444 57 q 349 17 403 44 q 226 -10 294 -10 m 288 46 q 444 151 379 46 l 444 424 q 410 392 432 404 q 342 358 388 379 q 256 316 289 336 q 200 261 224 296 q 176 172 176 226 q 207 78 176 110 q 288 46 238 46 m 354 1114 q 445 978 383 1043 q 586 875 507 914 l 575 856 q 428 919 500 882 q 314 994 357 957 q 223 919 279 957 q 108 856 167 882 l 97 875 q 238 978 176 914 q 329 1114 300 1043 l 354 1114 m 346 -251 q 289 -229 313 -251 q 265 -174 265 -207 q 288 -118 265 -140 q 346 -96 310 -96 q 404 -119 382 -96 q 426 -175 426 -142 q 403 -231 426 -210 q 346 -251 379 -251 z "},"ầ":{"ha":692,"x_min":54,"x_max":690,"o":"m 226 -10 q 97 34 139 -10 q 54 156 54 78 q 88 258 54 218 q 169 322 122 299 q 292 372 215 346 q 407 421 369 399 q 444 481 444 443 l 444 567 q 410 677 444 647 q 315 707 376 707 q 178 657 218 707 q 224 628 206 650 q 243 572 243 606 q 221 517 243 538 q 164 497 199 497 q 106 522 125 497 q 86 581 86 546 q 102 636 86 614 q 150 681 118 658 q 235 719 183 704 q 347 735 286 735 q 511 683 456 735 q 558 606 546 651 q 569 488 569 561 l 569 101 q 579 51 569 67 q 613 36 589 36 q 644 44 629 36 q 675 65 658 51 l 690 42 q 628 2 654 14 q 564 -10 603 -10 q 471 24 497 -10 q 444 114 444 57 q 349 17 403 44 q 226 -10 294 -10 m 288 46 q 444 151 379 46 l 444 424 q 410 392 432 404 q 342 358 388 379 q 256 316 289 336 q 200 261 224 296 q 176 172 176 226 q 207 78 176 110 q 288 46 238 46 m 354 1114 q 445 978 383 1043 q 586 875 507 914 l 575 856 q 428 919 500 882 q 314 994 357 957 q 223 919 279 957 q 108 856 167 882 l 97 875 q 238 978 176 914 q 329 1114 300 1043 l 354 1114 m 158 1468 q 189 1478 169 1478 q 242 1447 218 1478 q 297 1351 265 1415 q 393 1183 342 1265 l 378 1171 q 288 1259 329 1221 q 238 1306 247 1297 q 158 1382 186 1347 q 139 1429 139 1408 q 158 1468 139 1451 z "},"ẩ":{"ha":692,"x_min":54,"x_max":763,"o":"m 226 -10 q 97 34 139 -10 q 54 156 54 78 q 88 258 54 218 q 169 322 122 299 q 292 372 215 346 q 407 421 369 399 q 444 481 444 443 l 444 567 q 410 677 444 647 q 315 707 376 707 q 178 657 218 707 q 224 628 206 650 q 243 572 243 606 q 221 517 243 538 q 164 497 199 497 q 106 522 125 497 q 86 581 86 546 q 102 636 86 614 q 150 681 118 658 q 235 719 183 704 q 347 735 286 735 q 511 683 456 735 q 558 606 546 651 q 569 488 569 561 l 569 101 q 579 51 569 67 q 613 36 589 36 q 644 44 629 36 q 675 65 658 51 l 690 42 q 628 2 654 14 q 564 -10 603 -10 q 471 24 497 -10 q 444 114 444 57 q 349 17 403 44 q 226 -10 294 -10 m 288 46 q 444 151 379 46 l 444 424 q 410 392 432 404 q 342 358 388 379 q 256 316 289 336 q 200 261 224 296 q 176 172 176 226 q 207 78 176 110 q 288 46 238 46 m 354 1114 q 445 978 383 1043 q 586 875 507 914 l 575 856 q 428 919 500 882 q 314 994 357 957 q 223 919 279 957 q 108 856 167 882 l 97 875 q 238 978 176 914 q 329 1114 300 1043 l 354 1114 m 561 1138 q 642 1189 617 1160 q 667 1260 667 1218 q 644 1325 667 1300 q 581 1350 621 1350 q 517 1328 536 1350 q 549 1309 538 1324 q 561 1271 561 1294 q 543 1226 561 1243 q 499 1210 525 1210 q 456 1226 472 1210 q 439 1268 439 1242 q 454 1315 439 1293 q 493 1350 469 1336 q 607 1378 539 1378 q 718 1348 674 1378 q 763 1267 763 1318 q 715 1179 763 1215 q 589 1125 667 1143 l 589 1061 l 561 1061 l 561 1138 z "},"ẫ":{"ha":692,"x_min":54,"x_max":690,"o":"m 226 -10 q 97 34 139 -10 q 54 156 54 78 q 88 258 54 218 q 169 322 122 299 q 292 372 215 346 q 407 421 369 399 q 444 481 444 443 l 444 567 q 410 677 444 647 q 315 707 376 707 q 178 657 218 707 q 224 628 206 650 q 243 572 243 606 q 221 517 243 538 q 164 497 199 497 q 106 522 125 497 q 86 581 86 546 q 102 636 86 614 q 150 681 118 658 q 235 719 183 704 q 347 735 286 735 q 511 683 456 735 q 558 606 546 651 q 569 488 569 561 l 569 101 q 579 51 569 67 q 613 36 589 36 q 644 44 629 36 q 675 65 658 51 l 690 42 q 628 2 654 14 q 564 -10 603 -10 q 471 24 497 -10 q 444 114 444 57 q 349 17 403 44 q 226 -10 294 -10 m 288 46 q 444 151 379 46 l 444 424 q 410 392 432 404 q 342 358 388 379 q 256 316 289 336 q 200 261 224 296 q 176 172 176 226 q 207 78 176 110 q 288 46 238 46 m 354 1114 q 445 978 383 1043 q 586 875 507 914 l 575 856 q 428 919 500 882 q 314 994 357 957 q 223 919 279 957 q 108 856 167 882 l 97 875 q 238 978 176 914 q 329 1114 300 1043 l 354 1114 m 226 1406 q 288 1392 261 1406 q 343 1356 314 1379 q 391 1324 371 1335 q 436 1314 411 1314 q 543 1388 499 1314 l 563 1378 q 498 1269 542 1304 q 399 1235 454 1235 q 338 1247 363 1235 q 281 1285 313 1260 q 232 1317 251 1307 q 188 1328 213 1328 q 81 1253 126 1328 l 61 1263 q 126 1371 82 1336 q 226 1406 169 1406 z "},"ä":{"ha":692,"x_min":54,"x_max":690,"o":"m 226 -10 q 97 34 139 -10 q 54 156 54 78 q 88 258 54 218 q 169 322 122 299 q 292 372 215 346 q 407 421 369 399 q 444 481 444 443 l 444 567 q 410 677 444 647 q 315 707 376 707 q 178 657 218 707 q 224 628 206 650 q 243 572 243 606 q 221 517 243 538 q 164 497 199 497 q 106 522 125 497 q 86 581 86 546 q 102 636 86 614 q 150 681 118 658 q 235 719 183 704 q 347 735 286 735 q 511 683 456 735 q 558 606 546 651 q 569 488 569 561 l 569 101 q 579 51 569 67 q 613 36 589 36 q 644 44 629 36 q 675 65 658 51 l 690 42 q 628 2 654 14 q 564 -10 603 -10 q 471 24 497 -10 q 444 114 444 57 q 349 17 403 44 q 226 -10 294 -10 m 288 46 q 444 151 379 46 l 444 424 q 410 392 432 404 q 342 358 388 379 q 256 316 289 336 q 200 261 224 296 q 176 172 176 226 q 207 78 176 110 q 288 46 238 46 m 196 1032 q 252 1008 228 1032 q 276 951 276 983 q 252 894 276 918 q 196 871 228 871 q 139 894 163 871 q 115 951 115 918 q 139 1008 115 983 q 196 1032 163 1032 m 490 1032 q 547 1008 522 1032 q 571 951 571 983 q 547 894 571 918 q 490 871 522 871 q 433 894 457 871 q 410 951 410 918 q 433 1008 410 983 q 490 1032 457 1032 z "},"ạ":{"ha":692,"x_min":54,"x_max":690,"o":"m 226 -10 q 97 34 139 -10 q 54 156 54 78 q 88 258 54 218 q 169 322 122 299 q 292 372 215 346 q 407 421 369 399 q 444 481 444 443 l 444 567 q 410 677 444 647 q 315 707 376 707 q 178 657 218 707 q 224 628 206 650 q 243 572 243 606 q 221 517 243 538 q 164 497 199 497 q 106 522 125 497 q 86 581 86 546 q 102 636 86 614 q 150 681 118 658 q 235 719 183 704 q 347 735 286 735 q 511 683 456 735 q 558 606 546 651 q 569 488 569 561 l 569 101 q 579 51 569 67 q 613 36 589 36 q 644 44 629 36 q 675 65 658 51 l 690 42 q 628 2 654 14 q 564 -10 603 -10 q 471 24 497 -10 q 444 114 444 57 q 349 17 403 44 q 226 -10 294 -10 m 288 46 q 444 151 379 46 l 444 424 q 410 392 432 404 q 342 358 388 379 q 256 316 289 336 q 200 261 224 296 q 176 172 176 226 q 207 78 176 110 q 288 46 238 46 m 346 -251 q 289 -229 313 -251 q 265 -174 265 -207 q 288 -118 265 -140 q 346 -96 310 -96 q 404 -119 382 -96 q 426 -175 426 -142 q 403 -231 426 -210 q 346 -251 379 -251 z "},"à":{"ha":692,"x_min":54,"x_max":690,"o":"m 226 -10 q 97 34 139 -10 q 54 156 54 78 q 88 258 54 218 q 169 322 122 299 q 292 372 215 346 q 407 421 369 399 q 444 481 444 443 l 444 567 q 410 677 444 647 q 315 707 376 707 q 178 657 218 707 q 224 628 206 650 q 243 572 243 606 q 221 517 243 538 q 164 497 199 497 q 106 522 125 497 q 86 581 86 546 q 102 636 86 614 q 150 681 118 658 q 235 719 183 704 q 347 735 286 735 q 511 683 456 735 q 558 606 546 651 q 569 488 569 561 l 569 101 q 579 51 569 67 q 613 36 589 36 q 644 44 629 36 q 675 65 658 51 l 690 42 q 628 2 654 14 q 564 -10 603 -10 q 471 24 497 -10 q 444 114 444 57 q 349 17 403 44 q 226 -10 294 -10 m 288 46 q 444 151 379 46 l 444 424 q 410 392 432 404 q 342 358 388 379 q 256 316 289 336 q 200 261 224 296 q 176 172 176 226 q 207 78 176 110 q 288 46 238 46 m 171 1129 q 201 1139 182 1139 q 254 1108 231 1139 q 310 1013 278 1076 q 406 844 354 926 l 390 832 q 301 920 342 882 q 250 967 260 958 q 171 1043 199 1008 q 151 1090 151 1069 q 171 1129 151 1113 z "},"ả":{"ha":692,"x_min":54,"x_max":690,"o":"m 226 -10 q 97 34 139 -10 q 54 156 54 78 q 88 258 54 218 q 169 322 122 299 q 292 372 215 346 q 407 421 369 399 q 444 481 444 443 l 444 567 q 410 677 444 647 q 315 707 376 707 q 178 657 218 707 q 224 628 206 650 q 243 572 243 606 q 221 517 243 538 q 164 497 199 497 q 106 522 125 497 q 86 581 86 546 q 102 636 86 614 q 150 681 118 658 q 235 719 183 704 q 347 735 286 735 q 511 683 456 735 q 558 606 546 651 q 569 488 569 561 l 569 101 q 579 51 569 67 q 613 36 589 36 q 644 44 629 36 q 675 65 658 51 l 690 42 q 628 2 654 14 q 564 -10 603 -10 q 471 24 497 -10 q 444 114 444 57 q 349 17 403 44 q 226 -10 294 -10 m 288 46 q 444 151 379 46 l 444 424 q 410 392 432 404 q 342 358 388 379 q 256 316 289 336 q 200 261 224 296 q 176 172 176 226 q 207 78 176 110 q 288 46 238 46 m 328 899 q 408 950 383 921 q 433 1021 433 979 q 410 1086 433 1061 q 347 1111 388 1111 q 283 1089 303 1111 q 316 1070 304 1085 q 328 1032 328 1056 q 310 988 328 1004 q 265 971 292 971 q 222 987 239 971 q 206 1029 206 1003 q 221 1076 206 1054 q 260 1111 236 1097 q 374 1139 306 1139 q 485 1109 440 1139 q 529 1028 529 1079 q 481 940 529 976 q 356 886 433 904 l 356 822 l 328 822 l 328 899 z "},"ā":{"ha":692,"x_min":54,"x_max":690,"o":"m 226 -10 q 97 34 139 -10 q 54 156 54 78 q 88 258 54 218 q 169 322 122 299 q 292 372 215 346 q 407 421 369 399 q 444 481 444 443 l 444 567 q 410 677 444 647 q 315 707 376 707 q 178 657 218 707 q 224 628 206 650 q 243 572 243 606 q 221 517 243 538 q 164 497 199 497 q 106 522 125 497 q 86 581 86 546 q 102 636 86 614 q 150 681 118 658 q 235 719 183 704 q 347 735 286 735 q 511 683 456 735 q 558 606 546 651 q 569 488 569 561 l 569 101 q 579 51 569 67 q 613 36 589 36 q 644 44 629 36 q 675 65 658 51 l 690 42 q 628 2 654 14 q 564 -10 603 -10 q 471 24 497 -10 q 444 114 444 57 q 349 17 403 44 q 226 -10 294 -10 m 288 46 q 444 151 379 46 l 444 424 q 410 392 432 404 q 342 358 388 379 q 256 316 289 336 q 200 261 224 296 q 176 172 176 226 q 207 78 176 110 q 288 46 238 46 m 554 954 l 121 954 l 121 989 l 554 989 l 554 954 z "},"ą":{"ha":692,"x_min":54,"x_max":690,"o":"m 226 -10 q 97 34 139 -10 q 54 156 54 78 q 88 258 54 218 q 169 322 122 299 q 292 372 215 346 q 407 421 369 399 q 444 481 444 443 l 444 567 q 410 677 444 647 q 315 707 376 707 q 178 657 218 707 q 224 628 206 650 q 243 572 243 606 q 221 517 243 538 q 164 497 199 497 q 106 522 125 497 q 86 581 86 546 q 102 636 86 614 q 150 681 118 658 q 235 719 183 704 q 347 735 286 735 q 511 683 456 735 q 558 606 546 651 q 569 488 569 561 l 569 101 q 579 51 569 67 q 613 36 589 36 q 644 44 629 36 q 675 65 658 51 l 690 42 q 628 2 654 14 q 564 -10 603 -10 q 471 24 497 -10 q 444 114 444 57 q 349 17 403 44 q 226 -10 294 -10 m 288 46 q 444 151 379 46 l 444 424 q 410 392 432 404 q 342 358 388 379 q 256 316 289 336 q 200 261 224 296 q 176 172 176 226 q 207 78 176 110 q 288 46 238 46 m 631 4 q 617 -3 626 0 q 496 -133 496 -54 q 512 -178 496 -161 q 556 -194 528 -194 q 603 -181 581 -194 q 640 -149 626 -168 l 661 -167 q 504 -261 599 -261 q 424 -236 454 -261 q 394 -171 394 -211 q 444 -72 394 -117 q 586 4 494 -26 l 631 4 z "},"å":{"ha":692,"x_min":54,"x_max":690,"o":"m 226 -10 q 97 34 139 -10 q 54 156 54 78 q 88 258 54 218 q 169 322 122 299 q 292 372 215 346 q 407 421 369 399 q 444 481 444 443 l 444 567 q 410 677 444 647 q 315 707 376 707 q 178 657 218 707 q 224 628 206 650 q 243 572 243 606 q 221 517 243 538 q 164 497 199 497 q 106 522 125 497 q 86 581 86 546 q 102 636 86 614 q 150 681 118 658 q 235 719 183 704 q 347 735 286 735 q 511 683 456 735 q 558 606 546 651 q 569 488 569 561 l 569 101 q 579 51 569 67 q 613 36 589 36 q 644 44 629 36 q 675 65 658 51 l 690 42 q 628 2 654 14 q 564 -10 603 -10 q 471 24 497 -10 q 444 114 444 57 q 349 17 403 44 q 226 -10 294 -10 m 288 46 q 444 151 379 46 l 444 424 q 410 392 432 404 q 342 358 388 379 q 256 316 289 336 q 200 261 224 296 q 176 172 176 226 q 207 78 176 110 q 288 46 238 46 m 342 1099 q 437 1064 397 1099 q 476 972 476 1029 q 437 880 476 915 q 342 844 397 844 q 247 880 286 844 q 208 972 208 915 q 247 1064 208 1029 q 342 1099 286 1099 m 342 1069 q 276 1042 306 1069 q 247 971 247 1015 q 276 899 247 925 q 342 874 304 874 q 408 899 379 874 q 438 971 438 925 q 408 1043 438 1017 q 342 1069 379 1069 z "},"ã":{"ha":692,"x_min":54,"x_max":690,"o":"m 226 -10 q 97 34 139 -10 q 54 156 54 78 q 88 258 54 218 q 169 322 122 299 q 292 372 215 346 q 407 421 369 399 q 444 481 444 443 l 444 567 q 410 677 444 647 q 315 707 376 707 q 178 657 218 707 q 224 628 206 650 q 243 572 243 606 q 221 517 243 538 q 164 497 199 497 q 106 522 125 497 q 86 581 86 546 q 102 636 86 614 q 150 681 118 658 q 235 719 183 704 q 347 735 286 735 q 511 683 456 735 q 558 606 546 651 q 569 488 569 561 l 569 101 q 579 51 569 67 q 613 36 589 36 q 644 44 629 36 q 675 65 658 51 l 690 42 q 628 2 654 14 q 564 -10 603 -10 q 471 24 497 -10 q 444 114 444 57 q 349 17 403 44 q 226 -10 294 -10 m 288 46 q 444 151 379 46 l 444 424 q 410 392 432 404 q 342 358 388 379 q 256 316 289 336 q 200 261 224 296 q 176 172 176 226 q 207 78 176 110 q 288 46 238 46 m 239 1067 q 300 1053 274 1067 q 356 1017 326 1040 q 403 985 383 996 q 449 975 424 975 q 556 1049 511 975 l 575 1039 q 510 931 554 965 q 411 896 467 896 q 350 908 375 896 q 293 946 325 921 q 244 978 264 968 q 200 989 225 989 q 93 914 139 989 l 74 924 q 138 1032 94 997 q 239 1067 182 1067 z "},"æ":{"ha":1035,"x_min":54,"x_max":975,"o":"m 763 39 q 864 71 819 39 q 939 178 908 103 l 967 167 q 883 35 943 90 q 735 -19 822 -19 q 574 26 639 -19 q 476 160 508 72 q 361 24 422 58 q 226 -10 300 -10 q 97 34 139 -10 q 54 156 54 78 q 88 258 54 218 q 169 322 122 299 q 292 372 215 346 q 407 421 369 399 q 444 481 444 443 l 444 567 q 410 677 444 647 q 315 707 376 707 q 178 657 218 707 q 224 628 206 650 q 243 572 243 606 q 221 517 243 538 q 164 497 199 497 q 106 522 125 497 q 86 581 86 546 q 102 636 86 614 q 150 681 118 658 q 235 719 183 704 q 347 735 286 735 q 511 683 456 735 q 536 650 526 668 q 729 735 608 735 q 911 659 847 735 q 975 429 975 583 l 571 429 q 567 340 567 390 q 594 180 567 249 q 667 75 622 111 q 763 39 711 39 m 724 708 q 620 644 663 708 q 569 456 578 581 l 842 456 q 814 636 844 564 q 724 708 783 708 m 444 424 q 410 392 432 404 q 342 358 388 379 q 256 316 289 336 q 200 261 224 296 q 176 172 176 226 q 207 78 176 110 q 288 46 238 46 q 444 151 379 46 l 444 424 z "},"b":{"ha":782,"x_min":6,"x_max":717,"o":"m 453 735 q 644 638 571 735 q 717 357 717 540 q 675 151 717 236 q 563 24 633 67 q 407 -19 493 -19 q 308 1 356 -19 q 224 61 260 22 l 125 -22 l 101 -12 q 111 68 111 22 l 111 921 q 88 1014 111 985 q 6 1043 64 1043 l 6 1072 q 92 1068 50 1068 q 236 1088 179 1068 l 236 586 q 324 696 267 657 q 453 735 382 735 m 396 13 q 535 97 489 13 q 582 357 582 181 q 540 610 582 526 q 413 693 499 693 q 306 648 354 693 q 236 521 257 603 l 236 81 q 310 30 268 47 q 396 13 351 13 z "},"c":{"ha":675,"x_min":64,"x_max":626,"o":"m 388 735 q 549 690 481 735 q 614 583 614 647 q 593 526 614 547 q 540 506 572 506 q 486 524 508 506 q 464 575 464 543 q 481 624 464 604 q 522 651 497 644 q 473 693 508 676 q 397 710 438 710 q 301 677 346 710 q 228 569 257 644 q 199 369 199 493 q 254 119 199 197 q 399 40 310 40 q 512 75 458 40 q 600 183 565 110 l 626 174 q 538 38 603 94 q 371 -19 474 -19 q 215 25 285 -19 q 104 153 144 69 q 64 349 64 238 q 105 549 64 461 q 219 685 146 636 q 388 735 293 735 z "},"ć":{"ha":675,"x_min":64,"x_max":626,"o":"m 388 735 q 549 690 481 735 q 614 583 614 647 q 593 526 614 547 q 540 506 572 506 q 486 524 508 506 q 464 575 464 543 q 481 624 464 604 q 522 651 497 644 q 473 693 508 676 q 397 710 438 710 q 301 677 346 710 q 228 569 257 644 q 199 369 199 493 q 254 119 199 197 q 399 40 310 40 q 512 75 458 40 q 600 183 565 110 l 626 174 q 538 38 603 94 q 371 -19 474 -19 q 215 25 285 -19 q 104 153 144 69 q 64 349 64 238 q 105 549 64 461 q 219 685 146 636 q 388 735 293 735 m 514 1129 q 533 1090 533 1113 q 514 1043 533 1069 q 435 967 486 1008 q 384 920 425 958 q 294 832 343 882 l 279 844 q 375 1013 331 926 q 431 1108 407 1076 q 483 1139 453 1139 q 514 1129 503 1139 z "},"č":{"ha":675,"x_min":64,"x_max":626,"o":"m 388 735 q 549 690 481 735 q 614 583 614 647 q 593 526 614 547 q 540 506 572 506 q 486 524 508 506 q 464 575 464 543 q 481 624 464 604 q 522 651 497 644 q 473 693 508 676 q 397 710 438 710 q 301 677 346 710 q 228 569 257 644 q 199 369 199 493 q 254 119 199 197 q 399 40 310 40 q 512 75 458 40 q 600 183 565 110 l 626 174 q 538 38 603 94 q 371 -19 474 -19 q 215 25 285 -19 q 104 153 144 69 q 64 349 64 238 q 105 549 64 461 q 219 685 146 636 q 388 735 293 735 m 596 1094 q 455 991 517 1056 q 364 856 393 926 l 339 856 q 248 991 310 926 q 107 1094 186 1056 l 118 1114 q 265 1050 193 1088 q 379 975 336 1013 q 470 1050 414 1013 q 585 1114 526 1088 l 596 1094 z "},"ç":{"ha":675,"x_min":64,"x_max":626,"o":"m 388 735 q 549 690 481 735 q 614 583 614 647 q 593 526 614 547 q 540 506 572 506 q 486 524 508 506 q 464 575 464 543 q 481 624 464 604 q 522 651 497 644 q 473 693 508 676 q 397 710 438 710 q 301 677 346 710 q 228 569 257 644 q 199 369 199 493 q 254 119 199 197 q 399 40 310 40 q 512 75 458 40 q 600 183 565 110 l 626 174 q 538 38 603 94 q 371 -19 474 -19 q 215 25 285 -19 q 104 153 144 69 q 64 349 64 238 q 105 549 64 461 q 219 685 146 636 q 388 735 293 735 m 332 -100 q 414 -90 374 -90 q 476 -108 453 -90 q 499 -156 499 -125 q 450 -235 499 -208 q 342 -261 401 -261 q 226 -246 272 -261 l 232 -221 q 285 -225 261 -225 q 372 -210 335 -225 q 410 -162 410 -196 q 351 -124 410 -124 q 283 -133 313 -124 l 331 8 l 368 8 l 332 -100 z "},"ĉ":{"ha":675,"x_min":64,"x_max":626,"o":"m 388 735 q 549 690 481 735 q 614 583 614 647 q 593 526 614 547 q 540 506 572 506 q 486 524 508 506 q 464 575 464 543 q 481 624 464 604 q 522 651 497 644 q 473 693 508 676 q 397 710 438 710 q 301 677 346 710 q 228 569 257 644 q 199 369 199 493 q 254 119 199 197 q 399 40 310 40 q 512 75 458 40 q 600 183 565 110 l 626 174 q 538 38 603 94 q 371 -19 474 -19 q 215 25 285 -19 q 104 153 144 69 q 64 349 64 238 q 105 549 64 461 q 219 685 146 636 q 388 735 293 735 m 378 1114 q 469 978 407 1043 q 610 875 531 914 l 599 856 q 452 919 524 882 q 338 994 381 957 q 247 919 303 957 q 132 856 190 882 l 121 875 q 262 978 200 914 q 353 1114 324 1043 l 378 1114 z "},"ċ":{"ha":675,"x_min":64,"x_max":626,"o":"m 388 735 q 549 690 481 735 q 614 583 614 647 q 593 526 614 547 q 540 506 572 506 q 486 524 508 506 q 464 575 464 543 q 481 624 464 604 q 522 651 497 644 q 473 693 508 676 q 397 710 438 710 q 301 677 346 710 q 228 569 257 644 q 199 369 199 493 q 254 119 199 197 q 399 40 310 40 q 512 75 458 40 q 600 183 565 110 l 626 174 q 538 38 603 94 q 371 -19 474 -19 q 215 25 285 -19 q 104 153 144 69 q 64 349 64 238 q 105 549 64 461 q 219 685 146 636 q 388 735 293 735 m 385 1063 q 447 1036 421 1063 q 474 974 474 1010 q 447 911 474 938 q 385 885 421 885 q 322 911 349 885 q 296 974 296 938 q 322 1036 296 1010 q 385 1063 349 1063 z "},"d":{"ha":807,"x_min":65,"x_max":778,"o":"m 672 151 q 696 58 672 88 q 778 29 719 29 l 778 0 q 692 4 735 4 q 547 -15 604 4 l 547 108 q 472 13 522 46 q 350 -19 422 -19 q 141 76 217 -19 q 67 357 65 172 q 109 563 67 478 q 223 692 151 649 q 381 735 294 735 q 477 715 433 735 q 547 653 521 694 l 547 922 q 524 1015 547 986 q 442 1044 500 1044 l 442 1074 q 528 1069 486 1069 q 672 1089 615 1069 l 672 151 m 390 22 q 488 64 444 22 q 547 182 531 106 l 547 596 q 392 703 510 703 q 253 615 306 703 q 201 357 200 526 q 249 106 200 190 q 390 22 297 22 z "},"ð":{"ha":769,"x_min":64,"x_max":692,"o":"m 433 954 q 692 419 692 757 q 648 178 692 276 q 532 30 604 79 q 375 -19 460 -19 q 149 77 233 -19 q 64 354 64 174 q 99 538 64 450 q 203 680 135 625 q 367 735 271 735 q 533 663 479 735 q 386 931 494 825 l 135 808 l 122 833 l 364 951 q 181 1063 290 1013 l 192 1086 q 408 972 319 1035 l 604 1068 l 617 1043 l 433 954 m 368 8 q 506 103 451 8 q 560 419 560 199 q 557 507 560 451 q 494 664 543 622 q 376 706 444 706 q 247 622 296 706 q 199 351 199 538 q 247 92 199 175 q 368 8 294 8 z "},"ď":{"ha":807,"x_min":67,"x_max":867,"o":"m 672 151 q 696 58 672 88 q 778 29 719 29 l 778 0 q 692 4 735 4 q 547 -15 604 4 l 547 108 q 472 13 522 46 q 350 -19 422 -19 q 141 76 217 -19 q 67 357 65 172 q 109 563 67 478 q 223 692 151 649 q 381 735 294 735 q 477 715 433 735 q 547 653 521 694 l 547 922 q 524 1015 547 986 q 442 1044 500 1044 l 442 1074 q 528 1069 486 1069 q 672 1089 615 1069 l 672 151 m 390 22 q 488 64 444 22 q 547 182 531 106 l 547 596 q 392 703 510 703 q 253 615 306 703 q 201 357 200 526 q 249 106 200 190 q 390 22 297 22 m 860 1089 q 865 1065 863 1082 q 867 1032 867 1047 q 846 942 867 994 q 774 782 825 890 l 754 788 q 782 989 782 944 q 776 1031 782 1018 q 754 1044 771 1044 l 754 1074 l 776 1072 q 860 1089 815 1072 z "},"đ":{"ha":807,"x_min":67,"x_max":794,"o":"m 672 151 q 696 58 672 88 q 778 29 719 29 l 778 0 q 692 4 735 4 q 547 -15 604 4 l 547 108 q 472 13 522 46 q 350 -19 422 -19 q 141 76 217 -19 q 67 357 65 172 q 109 563 67 478 q 223 692 151 649 q 381 735 294 735 q 477 715 433 735 q 547 653 521 694 l 547 922 q 524 1015 547 986 q 442 1044 500 1044 l 442 1074 q 528 1069 486 1069 q 672 1089 615 1069 l 672 151 m 390 22 q 488 64 444 22 q 547 182 531 106 l 547 596 q 392 703 510 703 q 253 615 306 703 q 201 357 200 526 q 249 106 200 190 q 390 22 297 22 m 794 844 l 303 844 l 303 872 l 794 872 l 794 844 z "},"e":{"ha":703,"x_min":64,"x_max":643,"o":"m 643 167 q 549 35 618 90 q 383 -19 481 -19 q 213 26 285 -19 q 102 152 140 71 q 64 340 64 233 q 103 550 64 461 q 213 687 142 639 q 378 735 283 735 q 570 659 503 735 q 638 429 638 583 l 203 429 q 199 340 199 390 q 228 181 199 249 q 308 76 258 113 q 411 39 357 39 q 529 71 478 39 q 615 178 581 103 l 643 167 m 372 708 q 260 644 307 708 q 201 456 213 581 l 504 456 q 473 636 507 564 q 372 708 439 708 z "},"é":{"ha":703,"x_min":64,"x_max":643,"o":"m 643 167 q 549 35 618 90 q 383 -19 481 -19 q 213 26 285 -19 q 102 152 140 71 q 64 340 64 233 q 103 550 64 461 q 213 687 142 639 q 378 735 283 735 q 570 659 503 735 q 638 429 638 583 l 203 429 q 199 340 199 390 q 228 181 199 249 q 308 76 258 113 q 411 39 357 39 q 529 71 478 39 q 615 178 581 103 l 643 167 m 372 708 q 260 644 307 708 q 201 456 213 581 l 504 456 q 473 636 507 564 q 372 708 439 708 m 525 1129 q 544 1090 544 1113 q 525 1043 544 1069 q 446 967 497 1008 q 395 920 436 958 q 306 832 354 882 l 290 844 q 386 1013 342 926 q 442 1108 418 1076 q 494 1139 464 1139 q 525 1129 514 1139 z "},"ĕ":{"ha":703,"x_min":64,"x_max":643,"o":"m 643 167 q 549 35 618 90 q 383 -19 481 -19 q 213 26 285 -19 q 102 152 140 71 q 64 340 64 233 q 103 550 64 461 q 213 687 142 639 q 378 735 283 735 q 570 659 503 735 q 638 429 638 583 l 203 429 q 199 340 199 390 q 228 181 199 249 q 308 76 258 113 q 411 39 357 39 q 529 71 478 39 q 615 178 581 103 l 643 167 m 372 708 q 260 644 307 708 q 201 456 213 581 l 504 456 q 473 636 507 564 q 372 708 439 708 m 624 1082 q 526 939 589 999 q 375 879 463 879 q 224 939 288 879 q 126 1082 161 999 l 150 1094 q 375 961 231 961 q 600 1094 519 961 l 624 1082 z "},"ě":{"ha":703,"x_min":64,"x_max":643,"o":"m 643 167 q 549 35 618 90 q 383 -19 481 -19 q 213 26 285 -19 q 102 152 140 71 q 64 340 64 233 q 103 550 64 461 q 213 687 142 639 q 378 735 283 735 q 570 659 503 735 q 638 429 638 583 l 203 429 q 199 340 199 390 q 228 181 199 249 q 308 76 258 113 q 411 39 357 39 q 529 71 478 39 q 615 178 581 103 l 643 167 m 372 708 q 260 644 307 708 q 201 456 213 581 l 504 456 q 473 636 507 564 q 372 708 439 708 m 607 1094 q 466 991 528 1056 q 375 856 404 926 l 350 856 q 259 991 321 926 q 118 1094 197 1056 l 129 1114 q 276 1050 204 1088 q 390 975 347 1013 q 481 1050 425 1013 q 596 1114 538 1088 l 607 1094 z "},"ê":{"ha":703,"x_min":64,"x_max":643,"o":"m 643 167 q 549 35 618 90 q 383 -19 481 -19 q 213 26 285 -19 q 102 152 140 71 q 64 340 64 233 q 103 550 64 461 q 213 687 142 639 q 378 735 283 735 q 570 659 503 735 q 638 429 638 583 l 203 429 q 199 340 199 390 q 228 181 199 249 q 308 76 258 113 q 411 39 357 39 q 529 71 478 39 q 615 178 581 103 l 643 167 m 372 708 q 260 644 307 708 q 201 456 213 581 l 504 456 q 473 636 507 564 q 372 708 439 708 m 389 1114 q 480 978 418 1043 q 621 875 542 914 l 610 856 q 463 919 535 882 q 349 994 392 957 q 258 919 314 957 q 143 856 201 882 l 132 875 q 273 978 211 914 q 364 1114 335 1043 l 389 1114 z "},"ế":{"ha":703,"x_min":64,"x_max":643,"o":"m 643 167 q 549 35 618 90 q 383 -19 481 -19 q 213 26 285 -19 q 102 152 140 71 q 64 340 64 233 q 103 550 64 461 q 213 687 142 639 q 378 735 283 735 q 570 659 503 735 q 638 429 638 583 l 203 429 q 199 340 199 390 q 228 181 199 249 q 308 76 258 113 q 411 39 357 39 q 529 71 478 39 q 615 178 581 103 l 643 167 m 372 708 q 260 644 307 708 q 201 456 213 581 l 504 456 q 473 636 507 564 q 372 708 439 708 m 389 1114 q 480 978 418 1043 q 621 875 542 914 l 610 856 q 463 919 535 882 q 349 994 392 957 q 258 919 314 957 q 143 856 201 882 l 132 875 q 273 978 211 914 q 364 1114 335 1043 l 389 1114 m 513 1468 q 532 1429 532 1451 q 513 1382 532 1408 q 433 1306 485 1347 q 383 1259 424 1297 q 293 1171 342 1221 l 278 1183 q 374 1351 329 1265 q 429 1447 406 1415 q 482 1478 451 1478 q 513 1468 501 1478 z "},"ệ":{"ha":703,"x_min":64,"x_max":643,"o":"m 643 167 q 549 35 618 90 q 383 -19 481 -19 q 213 26 285 -19 q 102 152 140 71 q 64 340 64 233 q 103 550 64 461 q 213 687 142 639 q 378 735 283 735 q 570 659 503 735 q 638 429 638 583 l 203 429 q 199 340 199 390 q 228 181 199 249 q 308 76 258 113 q 411 39 357 39 q 529 71 478 39 q 615 178 581 103 l 643 167 m 372 708 q 260 644 307 708 q 201 456 213 581 l 504 456 q 473 636 507 564 q 372 708 439 708 m 389 1114 q 480 978 418 1043 q 621 875 542 914 l 610 856 q 463 919 535 882 q 349 994 392 957 q 258 919 314 957 q 143 856 201 882 l 132 875 q 273 978 211 914 q 364 1114 335 1043 l 389 1114 m 388 -251 q 331 -229 354 -251 q 307 -174 307 -207 q 329 -118 307 -140 q 388 -96 351 -96 q 446 -119 424 -96 q 468 -175 468 -142 q 444 -231 468 -210 q 388 -251 421 -251 z "},"ề":{"ha":703,"x_min":64,"x_max":643,"o":"m 643 167 q 549 35 618 90 q 383 -19 481 -19 q 213 26 285 -19 q 102 152 140 71 q 64 340 64 233 q 103 550 64 461 q 213 687 142 639 q 378 735 283 735 q 570 659 503 735 q 638 429 638 583 l 203 429 q 199 340 199 390 q 228 181 199 249 q 308 76 258 113 q 411 39 357 39 q 529 71 478 39 q 615 178 581 103 l 643 167 m 372 708 q 260 644 307 708 q 201 456 213 581 l 504 456 q 473 636 507 564 q 372 708 439 708 m 389 1114 q 480 978 418 1043 q 621 875 542 914 l 610 856 q 463 919 535 882 q 349 994 392 957 q 258 919 314 957 q 143 856 201 882 l 132 875 q 273 978 211 914 q 364 1114 335 1043 l 389 1114 m 193 1468 q 224 1478 204 1478 q 276 1447 253 1478 q 332 1351 300 1415 q 428 1183 376 1265 l 413 1171 q 323 1259 364 1221 q 272 1306 282 1297 q 193 1382 221 1347 q 174 1429 174 1408 q 193 1468 174 1451 z "},"ể":{"ha":703,"x_min":64,"x_max":797,"o":"m 643 167 q 549 35 618 90 q 383 -19 481 -19 q 213 26 285 -19 q 102 152 140 71 q 64 340 64 233 q 103 550 64 461 q 213 687 142 639 q 378 735 283 735 q 570 659 503 735 q 638 429 638 583 l 203 429 q 199 340 199 390 q 228 181 199 249 q 308 76 258 113 q 411 39 357 39 q 529 71 478 39 q 615 178 581 103 l 643 167 m 372 708 q 260 644 307 708 q 201 456 213 581 l 504 456 q 473 636 507 564 q 372 708 439 708 m 389 1114 q 480 978 418 1043 q 621 875 542 914 l 610 856 q 463 919 535 882 q 349 994 392 957 q 258 919 314 957 q 143 856 201 882 l 132 875 q 273 978 211 914 q 364 1114 335 1043 l 389 1114 m 596 1138 q 676 1189 651 1160 q 701 1260 701 1218 q 678 1325 701 1300 q 615 1350 656 1350 q 551 1328 571 1350 q 584 1309 572 1324 q 596 1271 596 1294 q 578 1226 596 1243 q 533 1210 560 1210 q 490 1226 507 1210 q 474 1268 474 1242 q 489 1315 474 1293 q 528 1350 504 1336 q 642 1378 574 1378 q 753 1348 708 1378 q 797 1267 797 1318 q 749 1179 797 1215 q 624 1125 701 1143 l 624 1061 l 596 1061 l 596 1138 z "},"ễ":{"ha":703,"x_min":64,"x_max":643,"o":"m 643 167 q 549 35 618 90 q 383 -19 481 -19 q 213 26 285 -19 q 102 152 140 71 q 64 340 64 233 q 103 550 64 461 q 213 687 142 639 q 378 735 283 735 q 570 659 503 735 q 638 429 638 583 l 203 429 q 199 340 199 390 q 228 181 199 249 q 308 76 258 113 q 411 39 357 39 q 529 71 478 39 q 615 178 581 103 l 643 167 m 372 708 q 260 644 307 708 q 201 456 213 581 l 504 456 q 473 636 507 564 q 372 708 439 708 m 389 1114 q 480 978 418 1043 q 621 875 542 914 l 610 856 q 463 919 535 882 q 349 994 392 957 q 258 919 314 957 q 143 856 201 882 l 132 875 q 273 978 211 914 q 364 1114 335 1043 l 389 1114 m 261 1406 q 322 1392 296 1406 q 378 1356 349 1379 q 426 1324 406 1335 q 471 1314 446 1314 q 578 1388 533 1314 l 597 1378 q 533 1269 576 1304 q 433 1235 489 1235 q 372 1247 397 1235 q 315 1285 347 1260 q 267 1317 286 1307 q 222 1328 247 1328 q 115 1253 161 1328 l 96 1263 q 160 1371 117 1336 q 261 1406 204 1406 z "},"ë":{"ha":703,"x_min":64,"x_max":643,"o":"m 643 167 q 549 35 618 90 q 383 -19 481 -19 q 213 26 285 -19 q 102 152 140 71 q 64 340 64 233 q 103 550 64 461 q 213 687 142 639 q 378 735 283 735 q 570 659 503 735 q 638 429 638 583 l 203 429 q 199 340 199 390 q 228 181 199 249 q 308 76 258 113 q 411 39 357 39 q 529 71 478 39 q 615 178 581 103 l 643 167 m 372 708 q 260 644 307 708 q 201 456 213 581 l 504 456 q 473 636 507 564 q 372 708 439 708 m 231 1032 q 287 1008 263 1032 q 311 951 311 983 q 287 894 311 918 q 231 871 263 871 q 174 894 197 871 q 150 951 150 918 q 174 1008 150 983 q 231 1032 197 1032 m 525 1032 q 581 1008 557 1032 q 606 951 606 983 q 581 894 606 918 q 525 871 557 871 q 468 894 492 871 q 444 951 444 918 q 468 1008 444 983 q 525 1032 492 1032 z "},"ė":{"ha":703,"x_min":64,"x_max":643,"o":"m 643 167 q 549 35 618 90 q 383 -19 481 -19 q 213 26 285 -19 q 102 152 140 71 q 64 340 64 233 q 103 550 64 461 q 213 687 142 639 q 378 735 283 735 q 570 659 503 735 q 638 429 638 583 l 203 429 q 199 340 199 390 q 228 181 199 249 q 308 76 258 113 q 411 39 357 39 q 529 71 478 39 q 615 178 581 103 l 643 167 m 372 708 q 260 644 307 708 q 201 456 213 581 l 504 456 q 473 636 507 564 q 372 708 439 708 m 376 1063 q 439 1036 413 1063 q 465 974 465 1010 q 439 911 465 938 q 376 885 413 885 q 314 911 340 885 q 288 974 288 938 q 314 1036 288 1010 q 376 1063 340 1063 z "},"ẹ":{"ha":703,"x_min":64,"x_max":643,"o":"m 643 167 q 549 35 618 90 q 383 -19 481 -19 q 213 26 285 -19 q 102 152 140 71 q 64 340 64 233 q 103 550 64 461 q 213 687 142 639 q 378 735 283 735 q 570 659 503 735 q 638 429 638 583 l 203 429 q 199 340 199 390 q 228 181 199 249 q 308 76 258 113 q 411 39 357 39 q 529 71 478 39 q 615 178 581 103 l 643 167 m 372 708 q 260 644 307 708 q 201 456 213 581 l 504 456 q 473 636 507 564 q 372 708 439 708 m 388 -251 q 331 -229 354 -251 q 307 -174 307 -207 q 329 -118 307 -140 q 388 -96 351 -96 q 446 -119 424 -96 q 468 -175 468 -142 q 444 -231 468 -210 q 388 -251 421 -251 z "},"è":{"ha":703,"x_min":64,"x_max":643,"o":"m 643 167 q 549 35 618 90 q 383 -19 481 -19 q 213 26 285 -19 q 102 152 140 71 q 64 340 64 233 q 103 550 64 461 q 213 687 142 639 q 378 735 283 735 q 570 659 503 735 q 638 429 638 583 l 203 429 q 199 340 199 390 q 228 181 199 249 q 308 76 258 113 q 411 39 357 39 q 529 71 478 39 q 615 178 581 103 l 643 167 m 372 708 q 260 644 307 708 q 201 456 213 581 l 504 456 q 473 636 507 564 q 372 708 439 708 m 206 1129 q 236 1139 217 1139 q 289 1108 265 1139 q 344 1013 313 1076 q 440 844 389 926 l 425 832 q 335 920 376 882 q 285 967 294 958 q 206 1043 233 1008 q 186 1090 186 1069 q 206 1129 186 1113 z "},"ẻ":{"ha":703,"x_min":64,"x_max":643,"o":"m 643 167 q 549 35 618 90 q 383 -19 481 -19 q 213 26 285 -19 q 102 152 140 71 q 64 340 64 233 q 103 550 64 461 q 213 687 142 639 q 378 735 283 735 q 570 659 503 735 q 638 429 638 583 l 203 429 q 199 340 199 390 q 228 181 199 249 q 308 76 258 113 q 411 39 357 39 q 529 71 478 39 q 615 178 581 103 l 643 167 m 372 708 q 260 644 307 708 q 201 456 213 581 l 504 456 q 473 636 507 564 q 372 708 439 708 m 363 899 q 443 950 418 921 q 468 1021 468 979 q 445 1086 468 1061 q 382 1111 422 1111 q 318 1089 338 1111 q 351 1070 339 1085 q 363 1032 363 1056 q 344 988 363 1004 q 300 971 326 971 q 257 987 274 971 q 240 1029 240 1003 q 256 1076 240 1054 q 294 1111 271 1097 q 408 1139 340 1139 q 519 1109 475 1139 q 564 1028 564 1079 q 516 940 564 976 q 390 886 468 904 l 390 822 l 363 822 l 363 899 z "},"ē":{"ha":703,"x_min":64,"x_max":643,"o":"m 643 167 q 549 35 618 90 q 383 -19 481 -19 q 213 26 285 -19 q 102 152 140 71 q 64 340 64 233 q 103 550 64 461 q 213 687 142 639 q 378 735 283 735 q 570 659 503 735 q 638 429 638 583 l 203 429 q 199 340 199 390 q 228 181 199 249 q 308 76 258 113 q 411 39 357 39 q 529 71 478 39 q 615 178 581 103 l 643 167 m 372 708 q 260 644 307 708 q 201 456 213 581 l 504 456 q 473 636 507 564 q 372 708 439 708 m 589 954 l 156 954 l 156 989 l 589 989 l 589 954 z "},"ę":{"ha":703,"x_min":64,"x_max":643,"o":"m 643 167 q 549 35 618 90 q 383 -19 481 -19 q 213 26 285 -19 q 102 152 140 71 q 64 340 64 233 q 103 550 64 461 q 213 687 142 639 q 378 735 283 735 q 570 659 503 735 q 638 429 638 583 l 203 429 q 199 340 199 390 q 228 181 199 249 q 308 76 258 113 q 411 39 357 39 q 529 71 478 39 q 615 178 581 103 l 643 167 m 372 708 q 260 644 307 708 q 201 456 213 581 l 504 456 q 473 636 507 564 q 372 708 439 708 m 493 4 q 479 -3 489 0 q 358 -133 358 -54 q 374 -178 358 -161 q 418 -194 390 -194 q 466 -181 443 -194 q 503 -149 489 -168 l 524 -167 q 367 -261 461 -261 q 287 -236 317 -261 q 257 -171 257 -211 q 307 -72 257 -117 q 449 4 357 -26 l 493 4 z "},"ẽ":{"ha":703,"x_min":64,"x_max":643,"o":"m 643 167 q 549 35 618 90 q 383 -19 481 -19 q 213 26 285 -19 q 102 152 140 71 q 64 340 64 233 q 103 550 64 461 q 213 687 142 639 q 378 735 283 735 q 570 659 503 735 q 638 429 638 583 l 203 429 q 199 340 199 390 q 228 181 199 249 q 308 76 258 113 q 411 39 357 39 q 529 71 478 39 q 615 178 581 103 l 643 167 m 372 708 q 260 644 307 708 q 201 456 213 581 l 504 456 q 473 636 507 564 q 372 708 439 708 m 274 1067 q 335 1053 308 1067 q 390 1017 361 1040 q 438 985 418 996 q 483 975 458 975 q 590 1049 546 975 l 610 1039 q 545 931 589 965 q 446 896 501 896 q 385 908 410 896 q 328 946 360 921 q 279 978 299 968 q 235 989 260 989 q 128 914 174 989 l 108 924 q 173 1032 129 997 q 274 1067 217 1067 z "},"ə":{"ha":703,"x_min":60,"x_max":639,"o":"m 319 733 q 490 688 418 733 q 601 562 563 643 q 639 374 639 481 q 600 164 639 253 q 490 27 561 75 q 325 -21 419 -21 q 133 55 200 -21 q 65 285 65 131 l 500 285 q 504 374 504 325 q 474 533 504 465 q 395 638 444 601 q 292 675 346 675 q 174 643 225 675 q 88 536 122 611 l 60 547 q 153 678 85 624 q 319 733 222 733 m 331 6 q 443 69 396 6 q 501 258 490 133 l 199 258 q 230 78 196 150 q 331 6 264 6 z "},"ʒ":{"ha":661,"x_min":51,"x_max":610,"o":"m 222 290 q 376 238 319 288 q 433 94 433 188 q 379 -76 433 -4 q 238 -185 325 -147 q 51 -226 150 -224 l 51 -251 q 292 -208 174 -251 q 488 -85 411 -164 q 565 94 565 -6 q 510 233 565 181 q 368 300 454 285 l 610 722 q 329 715 461 715 q 71 721 181 715 q 76 471 76 653 l 108 471 q 163 642 118 590 q 301 694 208 694 l 454 694 l 222 290 z "},"ǯ":{"ha":661,"x_min":51,"x_max":610,"o":"m 222 290 q 376 238 319 288 q 433 94 433 188 q 379 -76 433 -4 q 238 -185 325 -147 q 51 -226 150 -224 l 51 -251 q 292 -208 174 -251 q 488 -85 411 -164 q 565 94 565 -6 q 510 233 565 181 q 368 300 454 285 l 610 722 q 329 715 461 715 q 71 721 181 715 q 76 471 76 653 l 108 471 q 163 642 118 590 q 301 694 208 694 l 454 694 l 222 290 m 583 1094 q 442 991 504 1056 q 351 856 381 926 l 326 856 q 235 991 297 926 q 94 1094 174 1056 l 106 1114 q 252 1050 181 1088 q 367 975 324 1013 q 458 1050 401 1013 q 572 1114 514 1088 l 583 1094 z "},"f":{"ha":461,"x_min":36,"x_max":547,"o":"m 383 1086 q 504 1049 456 1086 q 547 963 547 1014 q 526 910 547 931 q 474 889 506 889 q 419 909 442 889 q 397 964 397 929 q 413 1011 397 993 q 456 1035 429 1029 q 433 1057 451 1049 q 388 1065 415 1065 q 333 1051 357 1065 q 297 1014 310 1038 q 277 932 282 986 q 272 750 272 878 l 272 714 l 421 714 l 421 686 l 272 686 l 272 143 q 309 54 272 79 q 419 29 346 29 l 419 0 l 386 1 q 206 6 244 6 q 42 0 169 6 l 42 29 q 124 51 100 29 q 147 129 147 72 l 147 686 l 36 686 l 36 714 l 147 714 q 163 903 147 836 q 218 1017 178 969 q 289 1067 246 1049 q 383 1086 332 1086 z "},"g":{"ha":733,"x_min":13,"x_max":724,"o":"m 654 590 q 612 607 629 590 q 594 656 594 624 q 608 719 594 683 q 551 685 572 704 q 514 639 531 667 q 546 515 546 590 q 479 351 546 406 q 303 296 413 296 l 301 296 q 232 247 256 269 q 208 197 208 225 q 275 153 208 153 l 449 153 q 605 112 543 153 q 667 -11 667 71 q 624 -135 667 -78 q 497 -226 581 -192 q 296 -261 414 -261 q 94 -224 175 -261 q 13 -115 13 -187 q 51 -33 13 -68 q 157 21 89 1 l 165 -1 q 117 -40 135 -11 q 99 -106 99 -69 q 156 -203 99 -169 q 311 -237 214 -237 q 494 -197 418 -237 q 571 -69 571 -156 q 535 8 571 -19 q 410 36 500 36 l 307 36 q 176 57 225 36 q 126 140 126 78 q 158 222 126 183 q 261 299 189 261 q 115 363 169 308 q 60 515 60 417 q 126 680 60 625 q 303 735 193 735 q 496 663 433 735 q 563 724 522 700 q 643 749 603 749 q 701 728 679 749 q 724 668 724 707 q 702 610 724 629 q 654 590 681 590 m 303 321 q 387 365 358 321 q 415 515 415 408 q 387 666 415 622 q 303 710 358 710 q 219 666 247 710 q 190 515 190 622 q 219 365 190 408 q 303 321 247 321 z "},"ǵ":{"ha":733,"x_min":13,"x_max":724,"o":"m 654 590 q 612 607 629 590 q 594 656 594 624 q 608 719 594 683 q 551 685 572 704 q 514 639 531 667 q 546 515 546 590 q 479 351 546 406 q 303 296 413 296 l 301 296 q 232 247 256 269 q 208 197 208 225 q 275 153 208 153 l 449 153 q 605 112 543 153 q 667 -11 667 71 q 624 -135 667 -78 q 497 -226 581 -192 q 296 -261 414 -261 q 94 -224 175 -261 q 13 -115 13 -187 q 51 -33 13 -68 q 157 21 89 1 l 165 -1 q 117 -40 135 -11 q 99 -106 99 -69 q 156 -203 99 -169 q 311 -237 214 -237 q 494 -197 418 -237 q 571 -69 571 -156 q 535 8 571 -19 q 410 36 500 36 l 307 36 q 176 57 225 36 q 126 140 126 78 q 158 222 126 183 q 261 299 189 261 q 115 363 169 308 q 60 515 60 417 q 126 680 60 625 q 303 735 193 735 q 496 663 433 735 q 563 724 522 700 q 643 749 603 749 q 701 728 679 749 q 724 668 724 707 q 702 610 724 629 q 654 590 681 590 m 303 321 q 387 365 358 321 q 415 515 415 408 q 387 666 415 622 q 303 710 358 710 q 219 666 247 710 q 190 515 190 622 q 219 365 190 408 q 303 321 247 321 m 481 1129 q 500 1090 500 1113 q 481 1043 500 1069 q 401 967 453 1008 q 351 920 392 958 q 261 832 310 882 l 246 844 q 342 1013 297 926 q 397 1108 374 1076 q 450 1139 419 1139 q 481 1129 469 1139 z "}}}
